<svg xmlns="http://www.w3.org/2000/svg" viewBox="438.69 64.53 279.79 311.6">
    <g xmlns="http://www.w3.org/2000/svg">
        <path
              d="M682.365,229.856c-0.09,11.09-5.81,23.29-8.89,33.86c-1.8,6.17-3.69,12.52-7.68,17.58    c-4.49,5.7-11.11,8.52-16.34,13.4c-3.08,2.87-5.87,6.05-8.31,9.48c-0.37,0.51-0.73,1.03-1.08,1.56c-1.81,2.72-3.41,5.59-4.77,8.57    c-3.12,6.82-5.23,14.56-11.04,19.34c-3.53,2.9-8.03,4.34-12.42,5.65c-7.36,2.19-27.15,7.4-36.5,3.55    c-5.29-0.61-10.59-2.04-15.68-3.55c-4.39-1.31-8.89-2.75-12.41-5.65c-5.82-4.78-7.94-12.52-11.04-19.34    c-0.03-0.07-0.06-0.14-0.1-0.21c-0.28-0.6-0.57-1.21-0.87-1.8c-3.29-6.58-7.79-12.57-13.19-17.6c-5.23-4.88-11.86-7.7-16.34-13.4    c-3.99-5.06-5.88-11.41-7.68-17.58c-3.09-10.57-8.8-22.77-8.9-33.86c-0.09-11.03,6.45-20.64,10.16-30.53    c4.36-11.63,9.29-23,14.81-34.17c7.96-16.1,22.23-26.21,39.82-29.76c19.65-3.97,40.12-3.83,59.74,0.22    c8.57,1.78,20.32,3.75,27.57,8.83c6.76,4.74,12.6,13.48,16.18,20.71c5.52,11.17,10.44,22.54,14.81,34.17    C675.924,209.216,682.464,218.826,682.365,229.856z"></path>
        <g>
            <path style="fill:#C1B7AE;"
                  d="M640.065,305.736c-1.81,2.72-3.41,5.59-4.77,8.57c-3.12,6.82-5.23,14.56-11.04,19.34     c-3.53,2.9-8.03,4.34-12.42,5.65c-7.36,2.19-27.15,7.4-36.5,3.55c-5.29-0.61-10.59-2.04-15.68-3.55     c-4.39-1.31-8.89-2.75-12.41-5.65c-5.82-4.78-7.94-12.52-11.04-19.34c-0.03-0.07-0.06-0.14-0.1-0.21     c4.09-6.2,9.39-11.83,14.55-17.21c1.15-1.2,2.33-2.42,3.59-3.5c1.37-1.19,2.84-2.23,4.5-2.94c1.61,2.51,2.72,5.32,3.68,8.22     c2.32,7.06,3.73,14.58,9.22,19.34c2.39,2.08,5.35,3.29,8.45,3.72c2.08,0.3,4.23,0.24,6.33-0.14c3.12-0.55,6.14-1.81,8.67-3.68     c4.41-3.27,7.45-8.02,9.21-13.26c0.96-2.82,1.54-5.77,1.76-8.71c0.25-3.23,0.9-7.45,4.09-7.94c1.53-0.24,2.99,0.58,4.3,1.4     c0.04,0.03,0.08,0.06,0.12,0.08c6.15,3.87,12.3,7.73,18.44,11.6C635.384,302.576,637.784,304.086,640.065,305.736z"></path>
            <path style="fill:#A79D94;"
                  d="M507.947,269.884c0.914,1.382,1.908,2.71,2.978,3.975c3.53,3.352,7.06,6.705,10.59,10.057     c-0.346-1.095-0.692-2.19-1.038-3.285c3.02,2.66,5.672,5.737,7.855,9.117c0.107-1.691,0.214-3.382,0.321-5.073     c2.362,0.943,4.464,2.527,6.022,4.537c-0.02-1.475-0.04-2.95-0.06-4.425c4.05,1.949,7.194,5.693,8.416,10.018     c-0.208-2.16-0.415-4.319-0.623-6.479c1.817,0.525,3.4,1.81,4.288,3.48c-0.091-0.886-0.181-1.772-0.271-2.657     c1.264-0.536,2.526,0.923,2.749,2.279c-0.629-3.824,3.916-7.705,2.803-12.048c-1.053-4.113-5.741-4.995-9.34-5.914     c-10.984-2.806-34.72-12.053-32.221-26.777c-2.755-0.025-5.241,1.865-6.695,4.204c-1.454,2.34-2.065,5.09-2.652,7.782     c0.356-0.661,0.713-1.321,1.069-1.982C503.305,261.377,505.284,265.857,507.947,269.884z"></path>
            <path style="fill:#A79D94;"
                  d="M659.341,269.884c-0.914,1.382-1.908,2.71-2.978,3.975c-3.53,3.352-7.06,6.705-10.59,10.057     c0.346-1.095,0.692-2.19,1.038-3.285c-3.02,2.66-5.672,5.737-7.855,9.117c-0.107-1.691-0.214-3.382-0.321-5.073     c-2.362,0.943-4.464,2.527-6.022,4.537c0.02-1.475,0.04-2.95,0.06-4.425c-4.05,1.949-7.195,5.693-8.416,10.018     c0.208-2.16,0.415-4.319,0.623-6.479c-1.817,0.525-3.4,1.81-4.288,3.48c0.091-0.886,0.181-1.772,0.271-2.657     c-1.264-0.536-2.526,0.923-2.749,2.279c0.629-3.824-3.916-7.705-2.803-12.048c1.053-4.113,5.741-4.995,9.34-5.914     c10.984-2.806,34.72-12.053,32.221-26.777c2.755-0.025,5.241,1.865,6.695,4.204c1.454,2.34,2.065,5.09,2.652,7.782     c-0.356-0.661-0.713-1.321-1.069-1.982C663.982,261.377,662.004,265.857,659.341,269.884z"></path>
            <path style="fill:#392B22;"
                  d="M552.557,257.484c-0.811-2.67-1.743-5.471-3.846-7.305c-1.788-1.56-4.192-2.202-6.538-2.564     c-5.447-0.839-11.087-0.401-16.339,1.27c-1.447,0.46-3.028,1.012-4.436,0.442c-2.283-0.925-2.549-4.141-1.679-6.446     c0.87-2.305,2.489-4.377,2.721-6.83c-2.758,3.111-5.211,6.493-7.311,10.081c-0.249-2.294-0.499-4.587-0.748-6.881     c-6.3,6.736-7.519,17.57-3.249,25.746c4.27,8.176,13.556,13.321,22.775,13.052c4.826-0.141,10.147-1.502,14.146,1.204     c4.071,2.755,4.727,8.329,5.917,13.098c1.721,6.899,5.348,13.313,10.373,18.343C561.787,292.69,557.843,274.883,552.557,257.484z     "></path>
            <path style="fill:#84969A;"
                  d="M522.778,242.604c-3.978,1.608-5.857,4.882-7.321,8.536c-1.577,3.935-2.245,8.498-0.815,12.628     c1.189,3.433,4.013,6.244,7.409,7.823c0.945,0.439,1.932,0.79,2.923,1.126c1.96,0.665,3.961,1.282,6.034,1.445     c1.178,0.093,2.363,0.038,3.544-0.018c2.627-0.123,5.277-0.249,7.819-0.893c3.074-0.779,8.455-3.015,9.539-6.178     c2.119-6.181-0.522-13.414-4.545-18.346c-4.598-5.636-12.479-7.884-19.78-7.186C525.942,241.698,524.298,241.99,522.778,242.604z     "></path>
            <path style="fill:#738487;"
                  d="M515.457,256.41c1.464-3.655,3.343-6.928,7.321-8.536c1.521-0.615,3.164-0.906,4.806-1.063     c7.302-0.698,15.182,1.55,19.78,7.186c2.484,3.045,4.436,6.966,5.072,10.976c0.978-5.664-1.496-11.863-5.072-16.246     c-4.598-5.636-12.479-7.884-19.78-7.186c-1.642,0.157-3.286,0.448-4.806,1.063c-3.978,1.608-5.857,4.881-7.321,8.536     c-1.285,3.208-1.945,6.83-1.379,10.298C514.339,259.706,514.817,258.006,515.457,256.41z"></path>
            <path style="fill:#060706;"
                  d="M553.504,260.666c-0.48-4.83-2.88-9.42-5.39-12.5c-3.97-4.86-10.51-7.65-17.94-7.65     c-0.9,0-1.8,0.04-2.69,0.12c-2.04,0.2-3.65,0.56-5.07,1.13c-1.1,0.44-2.04,1-2.87,1.64c-2.49,1.95-3.87,4.67-4.97,7.41     c-0.82,2.06-1.34,4.12-1.56,6.11c0.01,0.01,0.01,0.01,0,0.01c-0.26,2.54-0.02,4.96,0.73,7.12c1.23,3.54,4.1,6.59,7.89,8.35     c1.03,0.48,2.1,0.85,3.02,1.17c1.86,0.63,4.03,1.31,6.28,1.49c0.48,0.04,0.96,0.05,1.45,0.05c0.74,0,1.48-0.03,2.21-0.06     c2.64-0.13,5.37-0.26,8.02-0.93c0.38-0.1,0.79-0.21,1.23-0.36c3.27-1.02,7.87-3.22,8.96-6.41     C553.565,265.156,553.734,262.886,553.504,260.666z M551.014,266.786c-0.92,2.68-5.82,4.81-8.89,5.59c-0.65,0.17-1.32,0.3-2,0.4     c-1.85,0.29-3.76,0.38-5.62,0.46c-1.14,0.06-2.28,0.11-3.42,0.02c-2.02-0.16-4.05-0.8-5.8-1.39c-0.87-0.3-1.88-0.65-2.82-1.09     c-3.33-1.55-5.86-4.21-6.92-7.29c-0.47-1.34-0.71-2.81-0.73-4.36c-0.04-2.43,0.48-5.04,1.53-7.66c0.75-1.87,1.64-3.74,2.97-5.27     c0.99-1.15,2.22-2.11,3.83-2.76c1.25-0.5,2.69-0.82,4.53-0.99c0.83-0.08,1.67-0.12,2.5-0.12c6.47,0,12.19,2.27,15.83,6.26     c0.21,0.23,0.42,0.46,0.61,0.7C549.995,253.426,553.164,260.486,551.014,266.786z"></path>
            <path style="fill:#060706;"
                  d="M528.287,256.715c0,5.424,2.598,9.822,5.802,9.822c3.204,0,5.802-4.397,5.802-9.822     c0-5.424-2.598-9.822-5.802-9.822C530.885,246.893,528.287,251.291,528.287,256.715z"></path>
            <path style="fill:#392B22;"
                  d="M615.178,257.484c0.811-2.67,1.743-5.471,3.846-7.305c1.788-1.56,4.192-2.202,6.538-2.564     c5.447-0.839,11.087-0.401,16.339,1.27c1.447,0.46,3.028,1.012,4.436,0.442c2.283-0.925,2.55-4.141,1.679-6.446     c-0.87-2.305-2.488-4.377-2.721-6.83c2.758,3.111,5.211,6.493,7.311,10.081c0.249-2.294,0.499-4.587,0.748-6.881     c6.301,6.736,7.519,17.57,3.249,25.746c-4.27,8.176-13.556,13.321-22.775,13.052c-4.827-0.141-10.147-1.502-14.146,1.204     c-4.071,2.755-4.727,8.329-5.917,13.098c-1.721,6.899-5.348,13.313-10.373,18.343     C605.948,292.69,609.893,274.883,615.178,257.484z"></path>
            <path style="fill:#84969A;"
                  d="M644.958,242.604c3.978,1.608,5.857,4.882,7.321,8.536c1.577,3.935,2.245,8.498,0.815,12.628     c-1.189,3.433-4.013,6.244-7.409,7.823c-0.945,0.439-1.932,0.79-2.923,1.126c-1.96,0.665-3.962,1.282-6.034,1.445     c-1.178,0.093-2.363,0.038-3.544-0.018c-2.627-0.123-5.277-0.249-7.819-0.893c-3.074-0.779-8.455-3.015-9.539-6.178     c-2.119-6.181,0.521-13.414,4.545-18.346c4.598-5.636,12.479-7.884,19.78-7.186C641.794,241.698,643.437,241.99,644.958,242.604z     "></path>
            <path style="fill:#738487;"
                  d="M620.371,255.394c4.598-5.636,12.479-7.884,19.78-7.186c1.642,0.157,3.286,0.448,4.806,1.063     c3.978,1.608,5.857,4.882,7.321,8.536c0.554,1.383,0.987,2.845,1.265,4.337c0.789-3.677,0.108-7.578-1.265-11.003     c-1.464-3.655-3.343-6.928-7.321-8.536c-1.521-0.615-3.164-0.906-4.806-1.063c-7.302-0.698-15.182,1.55-19.78,7.186     c-3.718,4.557-6.246,11.077-4.939,16.918C616.177,261.89,618.037,258.255,620.371,255.394z"></path>
            <path style="fill:#060706;"
                  d="M654.644,256.376c-0.23-1.82-0.73-3.69-1.48-5.56c-1.1-2.73-2.47-5.46-4.97-7.4     c-0.82-0.65-1.77-1.21-2.87-1.65c-1.42-0.57-3.04-0.93-5.08-1.13c-0.88-0.08-1.79-0.12-2.68-0.12c-7.43,0-13.97,2.79-17.94,7.65     c-2.5,3.07-4.9,7.67-5.39,12.5c-0.24,2.22-0.06,4.49,0.69,6.69c1.07,3.13,5.52,5.3,8.77,6.35c0.52,0.17,1,0.31,1.43,0.42     c2.65,0.67,5.38,0.8,8.01,0.93c0.74,0.03,1.48,0.06,2.22,0.06c0.48,0,0.97-0.01,1.45-0.05c2.25-0.18,4.42-0.86,6.27-1.49     c0.93-0.32,2-0.69,3.02-1.17c3.79-1.76,6.67-4.81,7.9-8.35C654.794,261.736,655.014,259.116,654.644,256.376z M652.194,263.486     c-1.07,3.08-3.59,5.74-6.92,7.29c-0.94,0.44-1.96,0.79-2.83,1.09c-1.74,0.59-3.77,1.23-5.79,1.39c-1.14,0.09-2.29,0.04-3.42-0.02     c-1.96-0.08-3.96-0.18-5.91-0.51c-0.58-0.09-1.15-0.21-1.72-0.35c-3.07-0.78-7.96-2.91-8.88-5.59c-2.16-6.3,1.02-13.36,4.39-17.5     c0.2-0.24,0.4-0.48,0.62-0.71c3.65-3.98,9.36-6.25,15.83-6.25c0.83,0,1.67,0.04,2.49,0.12c1.85,0.17,3.29,0.49,4.54,0.99     c1.61,0.65,2.84,1.61,3.83,2.76c1.33,1.53,2.22,3.4,2.97,5.27c0.98,2.45,1.49,4.89,1.52,7.17     C652.954,260.356,652.714,261.996,652.194,263.486z"></path>
            <ellipse style="fill:#060706;" cx="633.646" cy="256.715" rx="5.802"
                     ry="9.822"></ellipse>
            <path style="fill:#835442;"
                  d="M600.187,321.432c-0.514-0.324-1.179-0.199-1.776-0.08c-2.93,0.588-5.942,0.767-8.921,0.53     c-1.851-0.147-3.707-0.448-5.555-0.422c-1.848-0.026-3.704,0.275-5.555,0.422c-2.979,0.237-5.991,0.058-8.921-0.53     c-0.596-0.12-1.261-0.245-1.776,0.08c-0.599,0.378-0.719,1.256-0.418,1.897c0.301,0.641,0.917,1.076,1.55,1.391     c1.937,0.966,4.24,1.084,6.083,2.218c1.114,0.686,2.005,1.729,2.507,2.937c0.374,0.899,0.552,1.908,1.167,2.663     c0.885,1.088,2.388,1.338,3.815,1.436v0.161c0.019-0.001,0.039-0.001,0.057-0.002c0.497-0.025,0.993-0.05,1.49-0.076     c0.497,0.025,0.993,0.05,1.49,0.076c0.019,0.001,0.038,0.001,0.057,0.002v-0.161c1.427-0.098,2.93-0.348,3.815-1.436     c0.615-0.755,0.792-1.764,1.167-2.663c0.503-1.208,1.393-2.251,2.507-2.937c1.843-1.134,4.146-1.253,6.083-2.218     c0.633-0.316,1.249-0.751,1.55-1.391C600.906,322.688,600.786,321.81,600.187,321.432z"></path>
            <ellipse style="fill:#FFFFFF;" cx="526.551" cy="253.703" rx="5" ry="2"></ellipse>
            <ellipse style="fill:#FFFFFF;" cx="627.844" cy="253.703" rx="5" ry="2"></ellipse>
        </g>
        <g>
            <g>
                <path style="fill:#FFFFFF;"
                      d="M611.533,331.2c28.931,10.312,55.953,25.489,79.811,44.833c0.39,0.316,0.949-0.236,0.555-0.556      c-23.968-19.433-51.093-34.674-80.158-45.035C611.263,330.272,611.059,331.032,611.533,331.2L611.533,331.2z"></path>
            </g>
            <g>
                <path style="fill:#FFFFFF;"
                      d="M608.598,323.581c35.069-1.599,69.079,8.384,102.282,18.447c0.486,0.147,0.692-0.611,0.209-0.758      c-33.268-10.082-67.354-20.077-102.491-18.475C608.094,322.818,608.092,323.604,608.598,323.581L608.598,323.581z"></path>
            </g>
            <g>
                <path style="fill:#FFFFFF;"
                      d="M557.546,330.443c-29.065,10.36-56.19,25.602-80.158,45.035      c-0.394,0.319,0.166,0.871,0.555,0.556c23.858-19.343,50.88-34.52,79.811-44.833      C558.229,331.032,558.025,330.272,557.546,330.443L557.546,330.443z"></path>
            </g>
            <g>
                <path style="fill:#FFFFFF;"
                      d="M560.69,322.795c-35.137-1.602-69.223,8.392-102.491,18.475      c-0.483,0.147-0.277,0.905,0.209,0.758c33.203-10.063,67.214-20.045,102.282-18.447      C561.196,323.604,561.194,322.818,560.69,322.795L560.69,322.795z"></path>
            </g>
        </g>
        <g>
            <g>
                <path
                      d="M441.776,119.172c1.76,5.763,4.24,11.283,6.045,17.028c1.906,6.073,3.064,12.372,4.138,18.687      c1.84,10.798,3.458,21.633,8.25,31.407c2.153,4.384,4.907,8.464,6.806,12.962c1.551,3.656,2.548,7.616,4.884,10.829      c1.486,2.039,3.443,3.675,5.033,5.63c3.412,4.204,5.14,9.851,9.498,13.056c3.081,2.27,7.422,3.301,9.046,6.763      c5.021-4.304,5.656-11.644,7.411-18.018c2.629-9.56,8.431-18.005,15.353-25.098c6.923-7.093,14.972-12.968,22.97-18.824      c2.699-1.975,5.509-4.102,6.828-7.17c2.002-4.67-0.024-10.052-2.522-14.479c-6.518-11.555-16.045-20.855-26.463-29.21      c-5.533-4.439-11.325-8.618-17.055-12.723c-6.811-4.883-13.622-9.766-20.433-14.649c-7.704-5.521-15.45-11.07-23.941-15.296      c-2.092-1.036-4.305-2.014-6.645-2.059c-4.014-0.075-7.678,2.715-9.63,6.221c-1.952,3.507-2.475,7.621-2.616,11.635      C438.448,103.733,439.483,111.642,441.776,119.172z"></path>
                <path style="fill:#E3B699;"
                      d="M445.79,121.768c1.629,5.338,3.925,10.445,5.599,15.771c1.765,5.623,2.835,11.458,3.832,17.302      c1.703,10.007,3.202,20.037,7.639,29.09c1.585,3.226,3.518,6.276,5.128,9.479c0.421,0.834,0.815,1.671,1.179,2.53      c1.435,3.382,2.355,7.051,4.52,10.029c1.378,1.891,3.188,3.403,4.664,5.216c3.159,3.892,4.763,9.118,8.797,12.092      c2.85,2.101,6.87,3.053,8.38,6.261c4.649-3.985,5.235-10.781,6.86-16.688c2.438-8.855,7.813-16.676,14.225-23.243      c6.405-6.573,13.862-12.012,21.273-17.44c2.495-1.827,5.101-3.8,6.325-6.637c1.852-4.328-0.026-9.313-2.336-13.414      c-6.042-10.7-14.864-19.31-24.512-27.053c-5.125-4.11-10.492-7.981-15.797-11.778c-4.652-3.341-9.309-6.675-13.961-10.016      c-1.655-1.183-3.305-2.372-4.96-3.555c-7.141-5.114-14.312-10.252-22.178-14.165c-1.938-0.96-3.99-1.867-6.157-1.911      c-3.713-0.067-7.107,2.514-8.919,5.767c-1.806,3.245-2.289,7.056-2.421,10.776C442.708,107.468,443.662,114.794,445.79,121.768z      "></path>
                <path style="fill:#E1A58B;"
                      d="M468.447,193.342c0.649,4.242,2.809,9.402,5.24,12.627c1.378,1.891,3.188,3.403,4.664,5.216      c3.159,3.892,4.763,9.118,8.797,12.092c2.85,2.101,6.87,3.053,8.38,6.261c4.649-3.985,5.235-10.781,6.86-16.688      c2.438-8.855,7.813-16.676,14.225-23.243c6.405-6.573,13.862-12.012,21.273-17.44c2.495-1.827,5.101-3.8,6.325-6.637      c1.852-4.328-0.026-9.313-2.336-13.414c-6.042-10.7-14.864-19.31-24.512-27.053c-5.125-4.11-10.492-7.981-15.797-11.778      c-4.652-3.341-9.309-6.675-13.961-10.016c0.234,0.321,0.447,0.638,0.634,0.958c4.93,8.429,7.761,19.981,8.673,29.613      c1.001,10.58-1.267,34.884-15.587,35.677c-3.567,0.197-7.068-0.873-10.48-1.931c-2.225-0.69-4.45-1.38-6.675-2.07      c-1.473,2.918-0.567,6.418,0.365,9.55c1.691,5.684,3.38,10.951,3.742,16.723C468.308,192.287,468.366,192.807,468.447,193.342z"></path>
                <path
                      d="M451.959,154.886c1.84,10.798,3.458,21.633,8.25,31.407c2.153,4.384,4.907,8.464,6.806,12.962      c1.551,3.656,2.548,7.616,4.884,10.829c1.486,2.039,3.443,3.675,5.033,5.63c3.412,4.204,5.14,9.851,9.498,13.056      c3.081,2.27,7.422,3.301,9.046,6.763c5.021-4.304,5.656-11.644,7.411-18.018c2.629-9.56,8.431-18.005,15.353-25.098      c6.923-7.093,14.972-12.968,22.97-18.824c2.699-1.975,5.509-4.102,6.828-7.17c2.002-4.67-0.024-10.052-2.522-14.479      c-6.518-11.554-16.044-20.854-26.462-29.208c2.48,1.989,7.328,13.02,5.103,15.778c-0.533-0.623-1.669-1.018-2.214-2.183      c-0.153,4.738-0.067,9.502-0.08,14.247c-2.118-0.969-4.169-2.084-6.134-3.335c2.914,8.273,4.284,17.086,4.019,25.853      c-1.62-1.844-3.239-3.688-4.859-5.532c0.994,7.859-4.309,15.046-9.806,20.75c-2.591,2.688-5.52,5.387-9.191,6.061      c-3.672,0.673-8.11-1.645-8.303-5.373c-0.762,2.853-1.524,5.706-2.286,8.559c-7.809-6.647-12.284-17.03-11.753-27.271      c-1.754,1.32-2.773,3.56-2.616,5.749c-1.331-7.191-2.662-14.381-3.994-21.572c-1.228,0.213-1.808,1.64-1.965,2.877      c-0.157,1.236-0.167,2.618-1.025,3.521c-2.702,2.844-4.785-3.9-6.118-4.598c-1.036-0.543-2.287,0.149-3.444,0.025      C453.454,156.186,452.684,155.581,451.959,154.886z"></path>
            </g>
            <g>
                <path
                      d="M717.191,104.566c-1.145,5.916-3.031,11.666-4.222,17.569c-1.257,6.24-1.747,12.626-2.151,19.018      c-0.695,10.932-1.165,21.877-4.903,32.101c-1.681,4.586-3.99,8.933-5.406,13.605c-1.158,3.798-1.734,7.841-3.719,11.283      c-1.264,2.184-3.037,4.017-4.414,6.128c-2.951,4.54-4.076,10.336-8.073,13.982c-2.826,2.581-7.034,4.063-8.285,7.676      c-5.446-3.752-6.849-10.985-9.264-17.139c-3.62-9.231-10.277-17.02-17.906-23.346c-7.63-6.326-16.252-11.322-24.821-16.305      c-2.892-1.681-5.909-3.501-7.544-6.412c-2.482-4.434-1.032-9.999,0.986-14.664c5.267-12.176,13.764-22.426,23.247-31.829      c5.036-4.996,10.356-9.76,15.623-14.446c6.26-5.572,12.52-11.144,18.78-16.715c7.081-6.3,14.201-12.632,22.201-17.728      c1.972-1.251,4.07-2.455,6.392-2.746c3.984-0.496,7.921,1.892,10.23,5.175c2.309,3.282,3.262,7.319,3.825,11.296      C718.878,88.863,718.68,96.837,717.191,104.566z"></path>
                <path style="fill:#E3B699;"
                      d="M713.472,107.57c-1.059,5.479-2.806,10.799-3.911,16.272c-1.165,5.777-1.615,11.693-1.992,17.609      c-0.642,10.131-1.079,20.262-4.539,29.732c-1.237,3.375-2.839,6.611-4.103,9.966c-0.331,0.874-0.635,1.747-0.907,2.64      c-1.072,3.514-1.601,7.259-3.441,10.449c-1.171,2.025-2.812,3.719-4.089,5.678c-2.733,4.202-3.778,9.569-7.477,12.95      c-2.614,2.389-6.511,3.759-7.676,7.107c-5.042-3.474-6.339-10.171-8.576-15.875c-3.355-8.55-9.522-15.762-16.59-21.619      c-7.061-5.863-15.048-10.488-22.988-15.107c-2.674-1.555-5.473-3.243-6.988-5.936c-2.296-4.109-0.953-9.264,0.913-13.585      c4.884-11.276,12.752-20.765,21.533-29.48c4.665-4.625,9.595-9.039,14.472-13.374c4.275-3.812,8.556-7.617,12.831-11.428      c1.522-1.35,3.037-2.706,4.559-4.056c6.564-5.836,13.155-11.699,20.567-16.417c1.826-1.158,3.772-2.276,5.923-2.548      c3.686-0.457,7.332,1.754,9.476,4.798c2.137,3.037,3.018,6.776,3.54,10.462C715.034,93.025,714.855,100.41,713.472,107.57z"></path>
                <path style="fill:#E1A58B;"
                      d="M698.463,181.129c-0.2,4.286-1.806,9.645-3.883,13.108c-1.171,2.025-2.812,3.719-4.089,5.678      c-2.733,4.202-3.778,9.569-7.477,12.95c-2.614,2.389-6.511,3.759-7.676,7.107c-5.042-3.474-6.339-10.171-8.576-15.875      c-3.355-8.55-9.522-15.762-16.59-21.619c-7.061-5.863-15.048-10.488-22.988-15.107c-2.674-1.555-5.473-3.243-6.988-5.936      c-2.296-4.109-0.953-9.264,0.913-13.585c4.884-11.276,12.752-20.765,21.533-29.48c4.665-4.625,9.595-9.039,14.472-13.374      c4.275-3.812,8.556-7.617,12.831-11.428c-0.199,0.344-0.377,0.682-0.529,1.019c-4.017,8.9-5.618,20.686-5.512,30.36      c0.116,10.626,4.926,34.558,19.251,33.841c3.568-0.179,6.937-1.611,10.219-3.022c2.14-0.92,4.281-1.84,6.421-2.76      c1.771,2.747,1.238,6.322,0.641,9.535c-1.084,5.83-2.21,11.245-1.964,17.024C698.491,180.065,698.488,180.589,698.463,181.129z"></path>
                <path
                      d="M710.714,141.453c0.014,10.48-1.18,21.904-4.799,31.8c-1.681,4.586-3.99,8.933-5.406,13.605      c-1.158,3.798-1.734,7.841-3.719,11.283c-1.264,2.184-3.037,4.017-4.414,6.128c-2.951,4.54-4.076,10.336-8.073,13.982      c-2.826,2.581-7.034,4.063-8.285,7.676c-5.446-3.752-6.849-10.985-9.264-17.139c-3.62-9.231-10.277-17.02-17.906-23.346      c-7.63-6.326-16.252-11.322-24.821-16.305c-2.892-1.681-5.909-3.501-7.544-6.412c-2.482-4.434-1.032-9.999,0.986-14.664      c5.267-12.176,13.764-22.426,23.246-31.828c-0.397,4.177-4.758,8.23-4.477,12.298c0.215,3.11,3.828,6.93,6.976,4.209      c1.07,5.364,0.929,10.966-0.407,16.271c2.431-2.06,3.884-5.227,3.86-8.413c1.58,5.309,3.16,10.619,4.74,15.928      c-0.138-1.198,0.518-2.449,1.583-3.017c4.94,9.003,9.88,18.006,14.821,27.009c1.549,2.824,4.118,6.111,7.213,5.22      c2.368-0.682,3.351-3.453,3.836-5.869c1.081-5.382,1.437-10.909,1.055-16.385c2.059,2.842,4.119,5.685,6.178,8.527      c1.388-6.096,2.775-12.191,4.162-18.287c2.92,1.325,6.556,0.905,9.097-1.05c2.743-2.11,2.35-5.573,4.454-7.801      C705.853,142.707,708.425,143.274,710.714,141.453z"></path>
            </g>
        </g>
        <g>
            <defs>
                <path id="SVGID_1_"
                      d="M680.161,229.858c-0.093,11.091-5.744,23.293-8.794,33.854c-1.78,6.174-3.646,12.52-7.59,17.589      c-4.434,5.697-10.985,8.516-16.153,13.393c-3.044,2.872-5.803,6.055-8.212,9.482c-2.243,3.176-4.189,6.578-5.79,10.131      c-3.077,6.822-5.161,14.558-10.912,19.336c-3.487,2.898-7.934,4.341-12.275,5.651c-7.272,2.19-26.84,7.405-36.084,3.553      c-5.228-0.615-10.469-2.038-15.498-3.553c-4.341-1.31-8.788-2.753-12.275-5.651c-5.75-4.778-7.841-12.513-10.912-19.336      c-0.304-0.675-0.622-1.35-0.959-2.012c-3.249-6.578-7.703-12.566-13.043-17.602c-5.168-4.877-11.719-7.696-16.153-13.393      c-3.944-5.069-5.81-11.415-7.59-17.589c-3.051-10.561-8.702-22.763-8.794-33.854c-0.093-11.031,6.372-20.646,10.038-30.532      c4.314-11.627,9.185-23.002,14.644-34.165c7.871-16.103,21.977-26.211,39.367-29.763c19.427-3.967,39.66-3.835,59.06,0.223      c8.467,1.771,20.088,3.748,27.254,8.83c6.676,4.734,12.452,13.477,15.988,20.71c5.459,11.163,10.33,22.538,14.644,34.165      C673.789,209.212,680.254,218.827,680.161,229.858z"></path>
            </defs>
            <clipPath id="SVGID_00000078723958977957590500000000628736294539810958_">
                <use xmlns:xlink="http://www.w3.org/1999/xlink" xlink:href="#SVGID_1_"
                     style="overflow:visible;"></use>
            </clipPath>
            <g style="clip-path:url(#SVGID_00000078723958977957590500000000628736294539810958_);">
                <path style="fill:#85785E;"
                      d="M545.592,169.078c-0.615,4.546-2.435,9.052-5.803,12.163c-2.998,2.766-7.014,4.255-9.952,7.087      c-5.267,5.056-6.114,13.314-10.826,18.892c-5.347,6.326-14.816,8.225-19.607,14.988c-2.323,3.269-3.54,7.643-7.074,9.542      c1.621-6.895,7.008-12.229,12.553-16.643c5.545-4.407,11.62-8.43,15.604-14.287c3.825-5.631,5.532-12.699,10.363-17.49      c3.864-3.825,9.608-6.101,11.673-11.13c1.059-2.581,0.94-5.479,0.682-8.252c-0.741-8.007-2.481-15.921-5.168-23.511      c1.224-0.668,2.475-1.297,3.752-1.879c1.343,5.559,2.429,11.17,3.256,16.828C545.705,159.919,546.201,164.538,545.592,169.078z"></path>
                <path style="fill:#85785E;"
                      d="M562.665,199.524c-3.183-21.758-4.44-43.992-3.759-66.239c0.926-0.099,1.82-0.146,2.673-0.146      c-0.251,12.149-0.225,24.285,0.781,36.302C563.194,179.441,564.696,189.631,562.665,199.524z"></path>
                <path style="fill:#85785E;"
                      d="M589.008,199.524c-3.322-22.73-4.546-45.984-3.646-69.23c0.88-0.04,1.754-0.073,2.634-0.093      c-0.318,13.129-0.371,26.251,0.715,39.241C589.544,179.441,591.046,189.631,589.008,199.524z"></path>
                <path style="fill:#85785E;"
                      d="M595.678,199.524c-3.328-22.77-4.553-46.07-3.646-69.356c0.88,0.007,1.754,0.027,2.634,0.06      c-0.318,13.122-0.377,26.231,0.708,39.214C596.214,179.441,597.716,189.631,595.678,199.524z"></path>
                <path style="fill:#85785E;"
                      d="M569.143,204.421c-1.621-2.005-1.668-4.817-1.641-7.398c0.251-21.427,0.887-42.986-1.833-64.214      c0.377-0.079,0.761-0.152,1.145-0.232c0.271,1.568,0.622,3.137,0.927,4.685c2.038,10.402,2.111,21.076,2.177,31.677      C569.997,180.771,570.069,192.622,569.143,204.421z"></path>
                <path style="fill:#85785E;"
                      d="M575.866,203.733c-0.648-0.205-0.834-1.012-0.913-1.687c-2.72-23.366-0.251-47.108-2.065-70.514      c0.708-0.113,1.423-0.212,2.144-0.304c0.549,12.699,0.688,25.41,0.423,38.122c-0.132,6.141-0.357,12.315,0.443,18.409      C576.601,193.118,578.043,198.79,575.866,203.733z"></path>
                <path style="fill:#85785E;"
                      d="M582.133,206.148c-2.574-22.684-3.216-45.54-3.858-68.357c-0.066-2.309-0.132-4.619-0.199-6.928      c0.615-0.066,1.237-0.132,1.859-0.185c1.231,22.082,2.462,44.17,3.693,66.252C583.807,200.093,583.913,203.521,582.133,206.148z      "></path>
                <path style="fill:#85785E;"
                      d="M552.084,183.815c-4.5,7.802-14.664,7.001-19.812,14.141      c-4.639,6.445-6.505,15.054-13.135,19.978c-4.354,3.223-10.177,4.136-14.214,7.749c-4.189,3.759-5.618,9.648-6.577,15.193      c-0.212,1.211-0.609,2.654-1.793,2.978c-0.437-8.172,3.547-16.444,10.21-21.202c3.772-2.693,8.252-4.281,11.977-7.041      c6.697-4.963,10.157-13.036,14.009-20.427c0.887-1.707,1.846-3.434,3.342-4.639c2.759-2.217,6.703-2.177,9.84-3.818      c3.368-1.76,5.486-5.34,6.359-9.039c0.874-3.699,0.668-7.557,0.43-11.349c-0.509-8.199-1.132-16.431-2.826-24.491      c-0.271-1.304-1.059-3.415-1.879-5.81c1.013-0.357,2.038-0.695,3.07-1.006c2.164,12.136,3.064,24.497,3.143,36.832      C554.254,175.96,554.135,180.268,552.084,183.815z"></path>
                <path style="fill:#85785E;"
                      d="M664.353,231.75c-3.534-1.899-4.751-6.273-7.074-9.542c-4.791-6.763-14.26-8.662-19.607-14.988      c-4.711-5.578-5.559-13.837-10.819-18.892c-2.945-2.832-6.955-4.321-9.959-7.087c-3.368-3.11-5.188-7.617-5.803-12.163      c-0.609-4.539-0.113-9.158,0.556-13.691c1.079-7.398,2.607-14.73,4.566-21.95c1.548,0.437,3.077,0.913,4.586,1.449      c-3.917,9.231-6.392,19.078-7.319,29.063c-0.258,2.773-0.377,5.671,0.682,8.252c2.071,5.029,7.815,7.305,11.673,11.13      c4.831,4.791,6.544,11.858,10.369,17.49c3.983,5.856,10.052,9.88,15.597,14.287C657.345,219.521,662.738,224.855,664.353,231.75      z"></path>
                <path style="fill:#85785E;"
                      d="M660.137,243.853c-1.185-0.324-1.588-1.767-1.793-2.978c-0.966-5.545-2.389-11.435-6.584-15.193      c-4.03-3.613-9.86-4.526-14.207-7.749c-6.637-4.923-8.503-13.532-13.142-19.978c-5.142-7.14-15.306-6.339-19.812-14.141      c-2.045-3.547-2.164-7.855-2.137-11.951c0.086-13.598,1.171-27.23,3.838-40.551c1.224,0.185,2.448,0.397,3.659,0.642      c-1.105,3.917-2.746,7.881-3.163,9.893c-1.694,8.06-2.323,16.292-2.832,24.491c-0.238,3.792-0.443,7.65,0.43,11.349      c0.88,3.699,2.998,7.279,6.359,9.039c3.137,1.641,7.081,1.601,9.84,3.818c1.496,1.204,2.455,2.932,3.342,4.639      c3.851,7.391,7.312,15.465,14.015,20.427c3.726,2.76,8.205,4.348,11.977,7.041C656.584,227.409,660.568,235.681,660.137,243.853      z"></path>
            </g>
        </g>
    </g>
</svg>