<svg width="1122.52" height="297mm" viewBox="0 0 297 297" xml:space="preserve" xmlns="http://www.w3.org/2000/svg"><g transform="matrix(.26458 0 0 .26458 -270.928 9.477)"><g stroke-width="2" fill="none"><path stroke="#7c818a" vector-effect="non-scaling-stroke" d="m1307.601 791.669-2.5.96q-.8.3.05.23l9.7-.86"/><path stroke="#dfe9f0" vector-effect="non-scaling-stroke" d="m1314.851 791.999-.83.43a.32.32 0 0 0-.17.28v.31a.29.28-1.9 0 0 .31.28c11.69-.96 23.41-1.54 35.11-2.43q8.14-.62 16.29.25a.29.29 0 0 1 .06.57c-7.89 2.46-16.01 4.66-23.63 7.24q-23.56 7.98-36.59 11.83-4.09 1.21-5.59 1.85a.55.55 0 0 0-.31.69l.14.41"/><path stroke="#7c818a" vector-effect="non-scaling-stroke" d="m1299.641 813.709-6.86 2.21q-.47.15 0 .31c.49.16 8.04-2 9.32-2.23"/><path stroke="#dfe9f0" vector-effect="non-scaling-stroke" d="m1302.101 813.999-.2.75a.37.37 0 0 0 .43.46q20.41-4.18 40.82-8.4c2.21-.46 3.82-.32 5.99-.11a.7.7 0 0 1 .62.61l.08.61a.86.84-16.8 0 1-.47.86q-2.18 1.11-7.52 2.19-15.05 3.02-32.89 11.26"/><path stroke="#7c818a" vector-effect="non-scaling-stroke" d="M1308.961 822.229q-1.68 1.38-3.81 1.73-.55.09 0 .18 1.12.2 2.2-.39"/><path stroke="#dfe9f0" vector-effect="non-scaling-stroke" d="m1307.351 823.749-.01.47a.77.77 0 0 0 .94.78q12.02-2.7 24.05-4.84c10.71-1.9 24.37-2.63 36.53-5.16q1.46-.31 3.49.12.5.1.05.34-5.5 2.9-11.22 5.3c-19.05 7.99-37.63 17.64-56.12 26.83a.51.51 0 0 0-.19.74q.29.42.73.42"/><path stroke="#7c818a" vector-effect="non-scaling-stroke" d="m1305.601 848.749-8.48 4.18q-.46.22.01.04l8.43-3.26"/><path stroke="#dfe9f0" vector-effect="non-scaling-stroke" d="M1305.562 849.709q-.07.25.05.5a.61.61 0 0 0 .76.31l30.82-11.14a.31.3-8.5 0 1 .41.3v.26a.8.78 14.5 0 0 .45.74c1.76.85 14.31-7.58 15.4-5.19a.55.55 0 0 1-.26.71q-10.89 5.34-22.13 9.9c-4.73 1.91-9.39 4.49-14.17 6.62q-1.57.71-1.29 2.28"/><path stroke="#7c818a" vector-effect="non-scaling-stroke" d="m1315.601 854.999-2.74 1.42q-.45.23.03.08l3.21-1"/><path stroke="#dfe9f0" vector-effect="non-scaling-stroke" d="M1316.101 855.499q.11.34.29.57a.78.78 0 0 0 .83.26q32.62-10.13 45.45-13.27 14.37-3.52 20.58-5.49c.27-.09.29-.11.48.12a.23.22 58.2 0 1-.08.35c-13.11 6.18-23.73 13.84-36.17 23.09q-7.5 5.57-14.53 11.73c-5.48 4.81-10.45 8.67-15.79 12.92q-1.05.84-.56 1.72"/><path stroke="#7c818a" vector-effect="non-scaling-stroke" d="m1316.601 887.499-3.57 3.31q-.27.24.04.05l5.84-3.73"/><path stroke="#dfe9f0" vector-effect="non-scaling-stroke" d="M1318.911 887.129q6.29-3.33 12.2-7.28c12.33-8.24 26.42-15.64 38.95-20.91 3.79-1.59 10.91-5.61 12.62-5.08q.5.15.08.45-9.9 7.05-19.89 13.95c-7.54 5.21-14.43 12.03-21.96 17.74q-1.27.96-.56 2"/><path stroke="#7c818a" vector-effect="non-scaling-stroke" d="m1340.351 887.999-1.84 1.6q-.35.3.1.2l.45-.09"/><path stroke="#dfe9f0" vector-effect="non-scaling-stroke" d="M1339.062 889.709q.56.56 1.04.25c27.18-17.57 56.99-28.87 85.89-37.8 1.35-.41 3.04-.2 4.38.06a.42.42 0 0 1 .01.83c-18.32 4.01-38.37 17.15-53.67 29.19-10.55 8.31-21.11 19.42-31.19 29.45a.9.87 60.6 0 0-.23.87q.1.36.52.4"/><path stroke="#7c818a" vector-effect="non-scaling-stroke" d="m1345.812 912.959-9.04 9.08q-.36.36.03.04l3.76-3.12"/><path stroke="#dfe9f0" vector-effect="non-scaling-stroke" d="M1340.562 918.959q.02.34.17.52a.5.5 0 0 0 .74.05c27.58-26.33 62.04-45.11 98.31-57.38a1.1 1.09-25.5 0 1 1.28.45c.95 1.52 2.52 2.49 3.75 3.5q15.37 12.53 33.82 19.83c1.36.54 1.58 1.02 2.26 2.23 9.84 17.56 24.75 30.45 42.92 38.82q53.87 24.83 109.54 3.28 33.16-12.84 51.27-43.28.45-.76 1.92-1.33 23.03-8.93 41.28-27.06a.93.91-60.9 0 1 .85-.25c39.51 8.53 77.92 30.62 106.68 58.62q.63.61 2.25.46"/><path stroke="#7c818a" vector-effect="non-scaling-stroke" d="m1837.601 917.419.5.04"/><path stroke="#a2b1c1" vector-effect="non-scaling-stroke" d="M1838.101 917.459q1.46 2 3.51 3.3.47.3.06-.07l-3.57-3.23"/><path stroke="#7c818a" vector-effect="non-scaling-stroke" d="m1838.101 917.459-11.84-11.85"/><path stroke="#dfe9f0" vector-effect="non-scaling-stroke" d="M1826.262 905.609q-7.58-9.1-21.61-21.2-16.63-14.34-35.23-25.1a.75.75 0 0 1 .6-1.37c16.25 5.12 32.34 12.74 47.9 19.7q4.17 1.87 15.58 9.02c.73.46 1.23.39 1.6-.41"/><path stroke="#7c818a" vector-effect="non-scaling-stroke" d="m1835.101 886.249 4.27 2.87q.42.28.05-.06l-3.36-3.1"/><path stroke="#dfe9f0" vector-effect="non-scaling-stroke" d="M1836.062 885.959c1.71-2.81-38.64-30.17-42.86-32.85a.74.74 0 0 1 .68-1.3q31.62 13.18 59.72 32.79a.64.63 22.2 0 0 .99-.41q.04-.21.01-.44"/><path stroke="#7c818a" vector-effect="non-scaling-stroke" d="m1854.601 883.749 7.52 5.11q.22.15.02-.02l-4.72-4.23"/><path stroke="#dfe9f0" vector-effect="non-scaling-stroke" d="M1857.421 884.609q-5.68-5.6-16.91-14.54-21.9-17.44-46.64-31.62a.26.26 0 0 1 .18-.48c8.57 1.82 17.24 4.55 25.44 6.45q22.14 5.14 43.46 13.42a.67.67 0 0 0 .9-.5q.05-.23-.01-.45"/><path stroke="#7c818a" vector-effect="non-scaling-stroke" d="M1863.841 856.889q1.43-.54-1.19-1.83"/><path stroke="#dfe9f0" vector-effect="non-scaling-stroke" d="M1862.651 855.059q-8.91-5.22-18.26-9.62c-.87-.41-1.2-1.26-2.14-1.66-4.82-2.03-7.97-4.62-13.88-6.76q-.46-.16.01-.31l.87-.25a1.66 1.57 42.2 0 1 .9-.02q6.24 1.64 12.22 4.06 14.62 5.91 29.35 11.57a.5.5 0 0 0 .66-.34q.07-.24.01-.52"/><path stroke="#a8bbcc" vector-effect="non-scaling-stroke" d="m1872.391 851.209 10.61 4.18a.26.25-77.1 0 0 .34-.22c.05-.62-12.82-6.1-14.24-6.67"/><path stroke="#7c818a" vector-effect="non-scaling-stroke" d="m1869.101 848.499-.5-.25"/><path stroke="#dfe9f0" vector-effect="non-scaling-stroke" d="M1868.601 848.249q.44 0 .67-.33a.45.44 30.5 0 0-.18-.67q-7.86-3.48-15.46-7.42-25.27-13.09-51.96-22.96-.42-.16-.76-.45l-1.32-1.12a.41.4 68.7 0 1 .31-.71c2.75.32 5.58 1.18 7.94 1.43q28.11 3 55.82 8.56c1.5.3 2.01.02 3.67.85q1.63.83 2.02-.93"/><path stroke="#7c818a" vector-effect="non-scaling-stroke" d="m1869.351 824.499.34-.11q.35-.12.01-.25l-3.64-1.43"/><path stroke="#dfe9f0" vector-effect="non-scaling-stroke" d="M1866.062 822.709q-.22-1.36-1.13-1.63c-15.18-4.42-27.89-7.82-39.21-12.26-2.6-1.03-5.92-1.26-8.71-2.72a.49.49 0 0 1 .26-.92c4.2.22 8.25 1.66 12.14 2.13 5.59.69 11.25 2.54 16.29 3.32q15.49 2.41 30.78 5.86a.59.59 0 0 0 .69-.4l.18-.59"/><path stroke="#7c818a" vector-effect="non-scaling-stroke" d="m1877.351 815.499 4.19.86q.97.19.03-.13l-5.22-1.81"/><path stroke="#dfe9f0" vector-effect="non-scaling-stroke" d="M1876.351 814.419q-.07-1.41-1.68-1.81c-8.53-2.14-18.01-5.72-25.56-7.95q-20.7-6.11-41.34-12.8a.77.77 0 0 1 .27-1.5c12.03.47 23.7 1.6 36.24 2.13q10.4.45 17.31 1.46 2.46.36 2.76-1.2"/><path stroke="#7c818a" vector-effect="non-scaling-stroke" d="m1864.351 792.749 10.19 1.21q.5.06.01-.07l-9.24-2.43"/><path stroke="#dfe9f0" vector-effect="non-scaling-stroke" d="m1865.312 791.459.04-.46a.68.67 12.8 0 0-.45-.7q-3.35-1.17-8.79-2.14-5.59-.99-24.52-4.91-11.24-2.33-34.11-3.86a.37.37 0 0 1-.32-.5q.83-2.17 1.97-3.4 20.46-22.09 35.03-39.46c42.39-50.48 58.43-114.66 56-179.63-.2-5.37-.91-10.25 1.04-15.13q14.65-36.72 19.59-76.04 2.41-19.11 2.59-25.77.94-35.04 1.78-46.19c2.4-31.59 9.11-60.3 18.25-90.42 3.99-13.14 7.62-26.29 9.46-37.39 6.33-38.2 3.15-78.22-6.85-115.68-4.66-17.47-12.28-36.64-24.49-50.25-5.74-6.39-15.95-12.56-24.94-11.58q-9.36 1.02-19.97 5.09c-35.36 13.56-57.73 40.94-77.12 72.09-25.91 41.62-51.47 84.26-81.6 123.66q-12.03 15.71-20.36 23.11-9.47 8.4-14.46 10.81c-11.34 5.45-24.42 12.52-29.51 24.3a.64.64 0 0 1-.85.33c-13.36-5.77-28.57-7.13-42.99-6.92-14.84.22-27.9.09-41.88.06q-19.18-.05-36.84 7.1a.53.53 0 0 1-.67-.26c-7.48-15.32-21.08-18.12-33.58-26.72-11.2-7.71-20.78-18.33-28.99-29.08q-19.66-25.77-37.17-53.06c-13.1-20.42-31.2-51.57-49.67-80.33-15.95-24.84-34.83-46.27-61.36-60.14-10.52-5.5-26.49-11.48-37.91-9.31-23.29 4.42-37.11 39.6-42.66 59.31-13.21 46.99-15.34 96.85-1.76 144.05 7.89 27.44 15.83 52.79 19.69 82.49 2.6 20.09 2.57 37.45 3.32 60.74q1.8 55.61 23.91 109.26c.38.91.66 1.64.6 2.69-3.33 67.22 9.99 135.01 55.34 188.25q13.13 15.41 39.88 44.99.34.37-.16.36-8.69-.22-19.48 1.63-26.17 4.5-42.31 8.03c-.7.16-.98.59-.43 1.19"/><path stroke="#999498" vector-effect="non-scaling-stroke" d="M1865.312 791.459c-26.12-3.43-51.82-7.13-78.2-7.94q-.49-.01-.17-.39c10.5-12.23 19.95-23.34 31.65-36.55q11.97-13.53 19.94-24.19c37.17-49.68 50.93-115.6 46.29-176.97q-.17-2.19.67-4.23c13.57-32.97 19.92-66.1 23.02-101.52"/><path stroke="#999498" vector-effect="non-scaling-stroke" d="M1908.512 439.669q.95-15.16 1.4-30.41c.97-32.52 5.71-63.82 14.97-95.02 9.06-30.55 16.91-59.04 16.51-90.77q-.44-34.58-9.56-70c-5.57-21.65-21.49-67.46-52.06-59.4-41.07 10.83-64.98 40.2-86.54 74.5q-20.32 32.33-40.65 64.65c-14.79 23.51-32.36 49.25-51.13 71.2-8.61 10.09-16.35 17.02-27.24 23.09-8.34 4.65-23.4 11.32-26.08 22.51q-.48 1.98-.96 4.06a.4.4 0 0 1-.56.27c-25.6-11.73-49.57-9.44-76.44-9.51-19.62-.05-35 1.6-52.44 9.39a.64.64 0 0 1-.89-.45c-4.26-18.66-25.47-22.86-38.68-33.64q-10.77-8.79-19.03-19.22c-31.87-40.24-58.77-85.18-85.58-129.51q-12.31-20.35-27.7-38.49M1345.851 132.919q-23.82-28.17-59.31-38.35-8.86-2.54-15.19-.88c-22.17 5.8-35.36 45.27-39.81 64.71q-6.07 26.53-7.88 45.32c-3.17 32.89 1.27 64.35 10.86 95.81q5.16 16.92 8.59 29.93c6.78 25.78 10.32 51.98 10.84 78.81.9 45.59 5.82 90.41 24.81 132.98q.87 1.96.76 4.09c-2.27 43.87 2.67 87.06 18.8 128.06 9.63 24.51 23.86 45.69 41.85 66.24q19.49 22.26 39.08 44.5.33.37-.17.4c-4.25.31-8.94.08-12.8.39q-29.45 2.37-58.68 6.74"/><path stroke="#5c5c69" vector-effect="non-scaling-stroke" d="M1905.351 440.749q-1.39 2.73-2.49 5.59c-5.75 15.04-14.72 28.61-25.93 40.11"/><path stroke="#70747f" vector-effect="non-scaling-stroke" d="M1876.932 486.449q-4.95 3.93-10.87 5.76"/><path stroke="#7c818a" vector-effect="non-scaling-stroke" d="M1866.062 492.209c-8.13 1.7-15.83-1.92-22.45-6.75q-14.67-10.7-28.32-22.67c-25.85-22.67-50.52-47.11-71.97-74.02q-15.22-19.09-19.71-41.8"/><path stroke="#70747f" vector-effect="non-scaling-stroke" d="M1723.611 346.969q-3.06-21.42-.97-43.01"/><path stroke="#504b59" vector-effect="non-scaling-stroke" d="m1722.641 303.959.6.27a.74.73 14.1 0 1 .43.71c-.29 4.4.45 9.19.53 13.01q.65 28.89 14.85 54.12.25.44.49 0 1.84-3.36 3.2-6.94c12.55-33.07 30.73-57.78 54.24-89.23q.29-.39.04.03c-2.72 4.57-40.67 64.53-21.15 62.31q8.05-.91 16.86-6.35c18.63-11.51 30.65-25.13 45.96-41.93q2.5-2.75 3.65-6.08"/><path stroke="#595765" vector-effect="non-scaling-stroke" d="m1842.341 283.879 4.22-4.17"/><path stroke="#66626e" vector-effect="non-scaling-stroke" d="M1846.562 279.709c-10 16.63-19.34 33.01-31.5 48.25"/><path stroke="#504b59" vector-effect="non-scaling-stroke" d="M1815.062 327.959q-14.11 16.1-31.15 29.12-.4.31.11.28 2.84-.14 5.41-1.05 13.15-4.68 23.92-13.56"/><path stroke="#66626e" vector-effect="non-scaling-stroke" d="M1813.351 342.749q5.09-3.55 7.8-6.24 22.02-21.83 41.31-46.11.31-.4.02.02-9.07 13-21.08 29.09-12.25 16.43-26.34 29.95"/><path stroke="#504b59" vector-effect="non-scaling-stroke" d="M1815.062 349.459c-10.39 7.85-19.61 11.92-30.26 16.96-5.66 2.68-12.61 7.23-13.9 13.27q-.1.5.31.2c15.29-11.21 30.89-15.39 49.64-20.89"/><path stroke="#66626e" vector-effect="non-scaling-stroke" d="M1820.851 358.999q17.09-4.43 35.24-7.42a.23.23 0 0 1 .09.45q-16.45 3.99-32.83 10.97"/><path stroke="#504b59" vector-effect="non-scaling-stroke" d="M1823.351 362.999q-17.39 7-32.33 18.28-.41.31.1.29c26.32-.74 44.79 1.28 67.48 3.6"/><path stroke="#66626e" vector-effect="non-scaling-stroke" d="m1858.601 385.169 2.5.47q.63.12.2.59-.32.34-.95.27"/><path stroke="#595765" vector-effect="non-scaling-stroke" d="M1860.351 386.499q-2.25-.15-3.44.02c-13.72 1.98-38.25 6.72-47.55 17.95-6.77 8.17 16.45 21.47 22.01 25.1"/><path stroke="#4a424e" vector-effect="non-scaling-stroke" d="M1831.371 429.569q-7.47-2.55-17.02-4.58-3.1-.65-4.58 1.45a1.24 1.23 58.3 0 0-.21.91c2.82 16.3 17.7 33.2 30.88 42.25 19.98 13.72 28.33.73 31.16-17.85"/><path stroke="#595765" vector-effect="non-scaling-stroke" d="M1871.601 451.749c9.18-31.22 18.1-57.26 30.57-90.76q.47-1.25 1.4-4.79"/><path stroke="#66626e" vector-effect="non-scaling-stroke" d="M1903.572 356.199q9.35-22.49 16.74-45.74"/><path stroke="#595765" vector-effect="non-scaling-stroke" d="M1920.312 310.459q6.92-18.53 11.58-37.75"/><path stroke="#504b59" vector-effect="non-scaling-stroke" d="M1931.891 272.709c9.98-39.98 6.62-81.74-5.02-121-4.3-14.53-11.11-34.67-22.12-43.96-24.81-20.93-62.06 5.63-78.9 23.92"/><path stroke="#595765" vector-effect="non-scaling-stroke" d="M1825.851 131.669c-10.68 10.75-21.18 25.36-27.95 36.1q-21.79 34.57-43.52 69.17c-9.5 15.11-19.89 30.18-29.53 45.48"/><path stroke="#70747f" vector-effect="non-scaling-stroke" d="M1724.851 282.419q-13.42 19.78-27.39 39.17c-14.48 20.11-26.86 41.43-30.7 66.14q-.07.48-.24.03l-1.68-4.42"/><path stroke="#5c5c69" vector-effect="non-scaling-stroke" d="M1664.841 383.339c-9.41-28-41.51-34.06-66.81-34.06q-18.75 0-37.49.16c-25.29.22-50.77 8.1-61.15 33.27"/><path stroke="#70747f" vector-effect="non-scaling-stroke" d="m1499.391 382.709-1.86 4.51q-.16.4-.26-.03c-.94-4.31-1.56-8.85-2.92-12.89-11.11-32.86-34.41-60.86-52.93-88.45"/><path stroke="#595765" vector-effect="non-scaling-stroke" d="M1441.421 285.849c-10.63-16.8-21.83-33.29-32.29-50.19q-16.25-26.25-32.46-52.52c-10.05-16.29-20.32-32.36-33.11-46.68"/><path stroke="#362c32" vector-effect="non-scaling-stroke" d="M1345.851 132.919q-.56.42-1.12.35a.52.51 9.4 0 0-.56.4l-.61 2.79"/><path stroke="#595765" vector-effect="non-scaling-stroke" d="m1343.562 136.459-4.46-4.54"/><path stroke="#504b59" vector-effect="non-scaling-stroke" d="M1339.101 131.919c-14.79-16.61-35.72-31.25-58.25-31.44-19.88-.17-29.46 14.63-36.22 31.29-17.41 42.91-24.49 94.56-12.57 139.94"/><path stroke="#595765" vector-effect="non-scaling-stroke" d="M1232.062 271.709q4.47 19.4 11.58 38"/><path stroke="#66626e" vector-effect="non-scaling-stroke" d="M1243.641 309.709q8.06 23.76 17.5 47"/><path stroke="#595765" vector-effect="non-scaling-stroke" d="M1261.141 356.709c11.27 31.57 21.66 58.97 31.5 95"/><path stroke="#4a424e" vector-effect="non-scaling-stroke" d="M1292.641 451.709c1.44 6.33 3.15 14.13 7.03 19.43 6.87 9.37 20.99 1.37 27.7-3.92q18.43-14.52 26.71-36.52.81-2.13.77-3.48a2.31 2.31 0 0 0-2.55-2.23c-7.24.75-12.7 3.28-19.45 5.18"/><path stroke="#595765" vector-effect="non-scaling-stroke" d="M1332.851 430.169c5.59-4.04 26.1-15.8 22.79-24.31-4.37-11.2-37.71-18.16-48.88-19.49"/><path stroke="#66626e" vector-effect="non-scaling-stroke" d="m1306.762 386.369-4.65-.35q-.59-.05-.01-.14l4.25-.71"/><path stroke="#504b59" vector-effect="non-scaling-stroke" d="M1306.351 385.169c21.56-2.52 43.42-4.27 64.97-3.31q1.73.08.36-.98-14.35-11.1-31.04-17.67"/><path stroke="#66626e" vector-effect="non-scaling-stroke" d="M1340.641 363.209q-16.58-6.9-33.99-11.36-.49-.12.02-.1 3.51.2 7.01.83 14.67 2.67 29.17 6.17"/><path stroke="#504b59" vector-effect="non-scaling-stroke" d="M1342.851 358.749c16.31 4.38 36.69 10.55 49.83 21.53a.5.49 7.8 0 0 .77-.58c-2.72-5.98-5.79-8.81-11.96-11.96-11.55-5.9-21.51-9.48-32.6-18.78"/><path stroke="#66626e" vector-effect="non-scaling-stroke" d="M1348.891 348.959c-18.07-18-31.25-36.81-47.97-59.77q-.29-.4.05-.04 7.96 8.58 14.09 16.34 16.61 21.02 36.54 37.76"/><path stroke="#504b59" vector-effect="non-scaling-stroke" d="M1351.601 343.249c7.92 7.04 18.16 13.07 28.82 14.6a.39.38-21.2 0 0 .3-.68q-20.12-16.31-36.58-36.21"/><path stroke="#66626e" vector-effect="non-scaling-stroke" d="M1344.141 320.959q-14.12-20.27-26.33-41.75"/><path stroke="#595765" vector-effect="non-scaling-stroke" d="m1317.812 279.209 4.79 5.29"/><path stroke="#504b59" vector-effect="non-scaling-stroke" d="M1322.601 284.499q10.75 14.61 28.26 31.7c6 5.85 32.76 28.04 41.3 21.16 9.29-7.47-18.51-51.25-23.61-59.85q-.27-.45.07-.06 2.84 3.25 9.03 11.96 8.58 12.08 16.86 24.38 18.49 27.44 29.62 58.72a.42.41 50.7 0 0 .75.08c13.58-22.84 15.21-46.19 15.51-72.13"/><path stroke="#595765" vector-effect="non-scaling-stroke" d="m1440.391 300.459.42-.25"/><path stroke="#70747f" vector-effect="non-scaling-stroke" d="M1440.812 300.209c3.37 28 1.78 57.56-13.96 80.5q-7.9 11.5-12.54 16.71-34.63 38.84-76.04 73.96c-8.22 6.98-19.66 16.19-27.82 19.45q-12.59 5.03-24.6-5.16"/><path stroke="#5c5c69" vector-effect="non-scaling-stroke" d="M1285.851 485.669q-18.84-19.54-26.87-43.32-1.01-3-.76.16 3.59 46.43 22.26 89.04.25.58.35-.05l5.02-33.12"/><path stroke="#70747f" vector-effect="non-scaling-stroke" d="M1285.851 498.379q1.69 9.02 2.12 17.99.27 5.69-.78 15.62-1.61 15.19-1.88 30.47"/><path stroke="#504b59" vector-effect="non-scaling-stroke" d="M1285.312 562.459c-.25 1.67-.96 3.09-1.03 4.71-1.32 27.71 2.75 55.38 10.36 82.54"/><path stroke="#4a424e" vector-effect="non-scaling-stroke" d="M1294.641 649.709q10.29 38.65 34.57 70.38c15.07 19.69 28.32 33.84 43.38 50.13q6.52 7.04 12.51 14.5a1.06 1.06 0 0 0 .8.39l14.95.31"/><path stroke="#504b59" vector-effect="non-scaling-stroke" d="m1400.851 785.419 28.25 2.75"/><path stroke="#626674" vector-effect="non-scaling-stroke" d="M1429.101 788.169c22.23 4.07 43.02 9.78 61.52 20.25a.86.85-19 0 1-.75 1.53q-28.5-11.63-57.52-16.78"/><path stroke="#504b59" vector-effect="non-scaling-stroke" d="M1432.351 793.169q-14.58-3.38-29.5-4.67"/><path stroke="#4a424e" vector-effect="non-scaling-stroke" d="M1402.851 788.499q-7.3-1.05-14.73-.99-.54.01-.19.41 8.91 10.28 17.03 21.19a1.21 1.2-39 0 0 1.77.18c2.24-1.98 5.99.22 8.91-.33"/><path stroke="#504b59" vector-effect="non-scaling-stroke" d="m1415.641 808.959 26.46.71"/><path stroke="#626674" vector-effect="non-scaling-stroke" d="M1442.101 809.669c11.15 1.48 26.73 3.2 36.77 8.16q.45.22-.03.11-16.27-3.99-32.99-4.69"/><path stroke="#504b59" vector-effect="non-scaling-stroke" d="M1445.851 813.249q-14.11-.86-28.25-.5"/><path stroke="#4a424e" vector-effect="non-scaling-stroke" d="m1417.601 812.749-9.11-.17q-.65-.02-.24.49l6.8 8.53a.99.97 65.8 0 0 .92.36l6.25-.99"/><path stroke="#504b59" vector-effect="non-scaling-stroke" d="m1422.222 820.969 26.38-1.8"/><path stroke="#626674" vector-effect="non-scaling-stroke" d="M1448.601 819.169q9.91.41 19.76 1.53c4.67.53 12.3.86 18.5 2.4a.3.3 0 0 1-.07.59l-4.3.03a.51.49 6.5 0 0-.49.38l-.64 2.52a1.14 1.14 0 0 1-.87.84q-3.6.78-6.36-1.63a.96.94 27.6 0 1-.3-.93l.23-.92a.46.45 7.7 0 0-.43-.56l-22.03-.67"/><path stroke="#504b59" vector-effect="non-scaling-stroke" d="M1451.601 822.749q-12.92.11-25.75 1.75"/><path stroke="#4a424e" vector-effect="non-scaling-stroke" d="m1425.851 824.499-7 .2q-.5.01-.18.39 6.33 7.66 13.64 14.37"/><path stroke="#504b59" vector-effect="non-scaling-stroke" d="M1432.312 839.459c1.42 1.75 2.82.53 4.32.43l23.97-1.72"/><path stroke="#626674" vector-effect="non-scaling-stroke" d="m1460.601 838.169 26.56 2.54q.55.06 0 .07l-23.81.47"/><path stroke="#504b59" vector-effect="non-scaling-stroke" d="M1463.351 841.249q-12.47.41-24.87 1.96-.46.06-.13.38l7.4 7.06a.94.93 59.2 0 0 .88.23l21-5.24"/><path stroke="#626674" vector-effect="non-scaling-stroke" d="M1467.631 845.639c9.58-1.28 20.12-3.35 25.92 1.21a.55.55 0 0 1 .12.73c-2.84 4.38-7.29 4.02-9.89-.17a.9.89-15.7 0 0-.76-.42q-7.02-.03-13.92 1.26"/><path stroke="#504b59" vector-effect="non-scaling-stroke" d="m1469.101 848.249-19.66 4.47q-.52.12-.1.44c14.15 10.66 29.41 20.57 46.89 24.45 18.33 4.06 38.6.2 55.59-7.47 17.71-8 30.02-20.01 25.19-41.14-1.66-7.26-8.22-13.66-13.37-19.29"/><path stroke="#626674" vector-effect="non-scaling-stroke" d="M1563.641 809.709q-6.41-7.55-10.84-16.38c-.4-.82-1.47-1.95-2.2-2.16-5.2-1.5-10.89-2.75-15.16-5.98q-12.85-9.71-16.59-25.94"/><path stroke="#504b59" vector-effect="non-scaling-stroke" d="m1518.851 759.249 1.46-.04"/><path stroke="#5c5c69" vector-effect="non-scaling-stroke" d="M1520.312 759.209c1.16 5.29 7.64 18.3 14.87 15.78a.99.98-.7 0 0 .63-.64q2.33-7.33 7.9-12.65"/><path stroke="#70747f" vector-effect="non-scaling-stroke" d="M1543.711 761.699c13.91-7.23 30.16 4.22 45.14 1.28 10.47-2.05 22-5.4 32.04-1.17"/><path stroke="#5c5c69" vector-effect="non-scaling-stroke" d="M1620.891 761.809c3.89 3.85 6.08 8.97 8.55 13.93a1.17 1.17 0 0 0 1.56.53q8.17-4.04 11.89-12.56"/><path stroke="#504b59" vector-effect="non-scaling-stroke" d="m1642.891 763.709.77-.13a.53.52-17.7 0 1 .55.28l.18.35"/><path stroke="#626674" vector-effect="non-scaling-stroke" d="M1644.391 764.209q-8.19 22.79-31.98 26.98a.95.94 6.4 0 0-.7.55q-4.19 9.74-10.9 17.97"/><path stroke="#504b59" vector-effect="non-scaling-stroke" d="M1600.812 809.709c-6.33 6.32-13.49 13.83-14.13 23.25-.74 10.81 1.37 20.25 10.1 27.34 21.18 17.22 53.24 23.52 78.97 15.06 15.59-5.12 29.95-14.23 42.47-24.3q.39-.32-.1-.43-10.53-2.44-21.23-3.67"/><path stroke="#626674" vector-effect="non-scaling-stroke" d="m1696.891 846.959-14.86-1.27a1.12 1.11 13.5 0 0-1.11.67q-2.77 6.6-9.03 3.08a1.82 1.81 40.1 0 1-.26-2.99c5.34-4.35 17.93-2.73 24.44-2.1"/><path stroke="#504b59" vector-effect="non-scaling-stroke" d="m1696.072 844.349 24.44 4.18a1.06 1.04 28.9 0 0 .86-.24l6.45-5.53q.43-.37-.13-.4l-25.84-1.61"/><path stroke="#626674" vector-effect="non-scaling-stroke" d="M1701.851 840.749c-6.98.08-16.37 1.39-23.03-.19q-.53-.13.01-.17l24.27-1.97"/><path stroke="#504b59" vector-effect="non-scaling-stroke" d="M1703.101 838.419q14.57-.55 29.12.27a1.13 1.12-66 0 0 .87-.34l3.35-3.42"/><path stroke="#4a424e" vector-effect="non-scaling-stroke" d="m1736.441 834.929 10.25-10.82q.38-.4-.17-.42l-6.4-.23"/><path stroke="#504b59" vector-effect="non-scaling-stroke" d="M1740.121 823.459q-14.09-1.56-27.52-.96"/><path stroke="#626674" vector-effect="non-scaling-stroke" d="M1712.601 822.499q-10.25-.12-20.46 1.21a.87.87 0 0 0-.69.51c-2.69 5.92-10.14 1.91-8.85-.47"/><path stroke="#504b59" vector-effect="non-scaling-stroke" d="m1682.601 823.749 1.75-1.75"/><path stroke="#626674" vector-effect="non-scaling-stroke" d="M1684.351 821.999q.78-.45 2.19-.6 17.08-1.9 28.56-2.73"/><path stroke="#504b59" vector-effect="non-scaling-stroke" d="m1715.101 818.669 26.5 1"/><path stroke="#4a424e" vector-effect="non-scaling-stroke" d="m1741.601 819.669 7.31.96a1.01 1.01 0 0 0 .86-.32l7.11-7.73q.38-.4-.18-.38l-9.99.38"/><path stroke="#504b59" vector-effect="non-scaling-stroke" d="M1746.711 812.579q-14.49-.47-28.65.63"/><path stroke="#626674" vector-effect="non-scaling-stroke" d="M1718.062 813.209q-16.17.64-31.98 4.11-.51.11-.04-.1c10.29-4.61 23.44-5.64 34.56-7.05"/><path stroke="#504b59" vector-effect="non-scaling-stroke" d="m1720.601 810.169 27.43-.63"/><path stroke="#4a424e" vector-effect="non-scaling-stroke" d="m1748.032 809.539 11.06.13a1.01 1.01 0 0 0 .8-.37c5.96-7.37 11.65-14.96 17.79-22.19q.32-.38-.17-.27c-5.65 1.29-11.42 1.27-17.16 2.16"/><path stroke="#504b59" vector-effect="non-scaling-stroke" d="M1760.351 788.999q-15.58 1.19-30.75 4.92"/><path stroke="#626674" vector-effect="non-scaling-stroke" d="M1729.601 793.919q-24.35 4.61-47.75 12.89-.61.22.04.26 3.13.22 4.74 2.84a.99.98-45.7 0 1 .01 1.03q-2.47 4.19-7.37 3.36a1.22 1.21 78.9 0 1-.84-.57q-1.22-2.02-.3-4.21.35-.83-.49-.52l-2.75 1.01a.45.45 0 0 1-.46-.1l-.26-.25a.41.41 0 0 1 .07-.65c19.3-11.44 37.94-16.01 59.61-20.59"/><path stroke="#504b59" vector-effect="non-scaling-stroke" d="m1733.851 788.419 27.5-3.25"/><path stroke="#4a424e" vector-effect="non-scaling-stroke" d="m1761.351 785.169 18.05-.87a1.22 1.2 18.9 0 0 .83-.4c20.62-23.3 42.71-46.01 60.28-71.03q17.57-25.01 26.8-55.16"/><path stroke="#504b59" vector-effect="non-scaling-stroke" d="M1867.312 657.709q13.35-40.42 13.06-82.99c-.01-2.81-.71-5.97-.81-9.01"/><path stroke="#70747f" vector-effect="non-scaling-stroke" d="M1879.562 565.709q-.41-16.84-1.5-26.24c-1.25-10.77-2.59-19.14-1.27-29.34q.81-6.19 1.56-12.38"/><path stroke="#5c5c69" vector-effect="non-scaling-stroke" d="M1878.351 497.749q.13.02.26.1a.68.67-77.7 0 1 .31.49l4.12 32.9q.13 1.07.55.08 18.62-43.41 21.76-90.57"/><path stroke="#362c32" vector-effect="non-scaling-stroke" d="M1905.351 440.749q.89-2.75 3.16-1.08"/><path stroke="#999498" vector-effect="non-scaling-stroke" d="M1864.351 792.749c-26.44-3.77-53.63-6.06-80.36-5.46a.97.96 17.7 0 0-.75.38l-4.73 6.16q-.24.31.15.31 21.37-.04 40.45 4.81 12.11 3.08 57.24 15.47"/><path stroke="#999498" vector-effect="non-scaling-stroke" d="M1877.351 815.499q-30.89-7.81-50.07-11.94-12.32-2.66-26.93-3.91c-7.36-.63-15.41-.42-23.15-.48a.67.67 0 0 1-.65-.52l-.18-.77q-.2-.88-.77-.18l-5.46 6.72q-.35.43.21.41c34.1-1.18 63.57 8.59 95.71 17.88"/><path stroke="#999498" vector-effect="non-scaling-stroke" d="M1869.351 824.499c-25.58-7.08-50.09-12.67-76.42-15.19q-15.04-1.43-25.83-.62-1.17.09-2 1.58a.36.36 0 0 0 .26.53c15.47 2.23 29.43 6.85 44.87 12.86q29.52 11.5 58.37 24.59"/><path stroke="#626674" vector-effect="non-scaling-stroke" d="m1869.101 848.499-.25 1"/><path stroke="#999498" vector-effect="non-scaling-stroke" d="M1868.851 849.499c-32.67-14.61-70.79-28.96-107.21-33.69a.96.94 22.4 0 0-.87.35l-3.18 3.95q-.42.52.24.61c31.69 4.38 60.44 14.89 89.62 28.11q7.47 3.39 15.2 6.23"/><path stroke="#999498" vector-effect="non-scaling-stroke" d="M1863.841 856.889c-34.55-15.37-73.01-27.84-110.61-30.7a1.11 1.09-66.9 0 0-.93.38l-3.94 4.57q-.47.54.24.53 19.71-.36 35.7 7.07c25.17 11.71 49.42 29.02 73.12 45.87"/><path stroke="#999498" vector-effect="non-scaling-stroke" d="M1854.601 883.749c-32.41-23.41-67.63-43.29-107.42-49.69-1.33-.22-2.11.24-2.78 1.3a.4.39-65.1 0 0 .21.59c33.99 10.87 62.66 28.43 91.45 50.01"/><path stroke="#999498" vector-effect="non-scaling-stroke" d="M1835.101 886.249c-28.58-20.02-62.65-36.3-96.98-43.44a.89.88-61.5 0 0-.81.24l-6.22 6.19a.2.2 0 0 0 .1.34c35.81 8.69 68.48 31.15 95.07 56.03"/><path stroke="#999498" vector-effect="non-scaling-stroke" d="M1837.601 917.419c-30.53-30.06-67.23-55.65-110.25-64.34a1.02 1.02 0 0 0-.88.24c-13.74 12.4-27.24 22.28-44.61 28.76a1.43 1.4 4.2 0 0-.72.61q-16.61 29.23-47.24 41.85-55.88 23.01-110.54-3.34-25.66-12.36-39.81-38.03a1.43 1.41-3 0 0-.7-.62q-22.62-8.84-41.02-25.58-1.05-.95-1.93-.06-.35.36-.82.51c-37.5 11.97-70.51 34.34-98.52 61.54"/><path stroke="#999498" vector-effect="non-scaling-stroke" d="M1345.812 912.959c28.01-26.8 56.2-46.42 91.23-59.27a.34.34 0 0 0 .12-.57l-7.04-6.68a.89.88-30.8 0 0-.84-.21q-49.22 13.28-90.22 43.48"/><path stroke="#999498" vector-effect="non-scaling-stroke" d="M1340.351 887.999c23.78-18.69 55.01-38.74 84.79-46.37q.57-.15.15-.57l-4.62-4.69a.84.84 0 0 0-.81-.23c-36.17 9.26-71.43 28.36-100.95 50.99"/><path stroke="#999498" vector-effect="non-scaling-stroke" d="M1316.601 887.499q28.07-21.9 60.93-40.84 18.62-10.73 38.6-15.08a.4.4 0 0 0 .21-.66l-3.33-3.7a.87.84-24.7 0 0-.79-.28c-33.35 5.51-64.93 15.76-96.12 28.56"/><path stroke="#999498" vector-effect="non-scaling-stroke" d="M1315.601 854.999c29.72-13.94 60.79-26.33 93.52-32.13a.25.24 65.1 0 0 .14-.4l-4.38-5.34a.79.77 63.6 0 0-.78-.27q-50.8 11.82-98.54 32.85"/><path stroke="#999498" vector-effect="non-scaling-stroke" d="M1305.601 848.749q30.62-14.28 62.21-26.3 16.1-6.12 33.08-9.29a.34.34 0 0 0 .2-.55l-2.29-2.78a1.17 1.16 70.2 0 0-.9-.43c-31.22-.27-61 6.66-90.55 14.35"/><path stroke="#999498" vector-effect="non-scaling-stroke" d="M1308.961 822.229q25.18-7.79 47.89-12.98 18.41-4.2 38.25-4.27.66 0 .26-.52l-3.54-4.54a1.02 1.02 0 0 0-.86-.39c-8.24.44-17.01.48-24.67 1.34-21.57 2.43-45.07 8.38-64.19 13.13"/><path stroke="#999498" vector-effect="non-scaling-stroke" d="M1299.641 813.709q.86-.06 1.69-.31 27.05-8.13 54.52-14.72 15.51-3.72 31.56-3.64.65 0 .24-.51l-4.9-6.08a1.23 1.23 0 0 0-.92-.44q-33.65-.32-66.98 3.99"/><path stroke="#b6c9d7" vector-effect="non-scaling-stroke" d="M1723.611 346.969q-1.94 2.01-.04 4.34a.95.95 0 0 1 .19.86q-.25.92-.14 1.28 5.22 18.55 16.86 33.91c17.57 23.19 36.85 42.08 58.58 62.71 3.03 2.88 7.43 6.47 11.48 10.2q11.83 10.88 29.11 23.87c7.63 5.74 16.06 11.79 25.85 9.46a.83.83 0 0 0 .62-.63q.08-.37-.06-.76"/><path stroke="#95a3b6" vector-effect="non-scaling-stroke" d="M1876.932 486.449q-.16 4.7.33 9.46c.08.76.56 1.35 1.09 1.84"/><path stroke="#8a93a6" vector-effect="non-scaling-stroke" d="M1879.562 565.709q-.57 4.06-.84 8.15c-2.67 39.85-12.08 76.39-34.08 109.6"/><path stroke="#83899b" vector-effect="non-scaling-stroke" d="m1844.641 683.459-6.47 8.22"/><path stroke="#8a93a6" vector-effect="non-scaling-stroke" d="M1838.171 691.679c10-18.56 17.12-37.93 18.14-58.99"/><path stroke="#9badc1" vector-effect="non-scaling-stroke" d="M1856.312 632.689q2.2-38.53-21.83-66.61c-22.5-26.28-62.31-43.06-96.92-30.37q-.48.17.03.16 13.3-.25 24.75 4.61c22.37 9.48 40.46 26.12 50.87 48.22q3.82 8.09 8.92 15.48a.64.64 0 0 1-.07.82q-.27.27-.71.25"/><path stroke="#70747f" vector-effect="non-scaling-stroke" d="M1821.351 605.249c-14.99-27.86-49.89-41.14-79.95-39.44q-10.17.57-23.74 5.45"/><path stroke="#95a3b6" vector-effect="non-scaling-stroke" d="M1717.661 571.259q-10.39-.93-19.98-4.4-9.99-3.62-15.71-9.56c-17.29-17.97-6.29-40.7.56-60.49q6.8-19.65-3.94-37.1c-4.63-7.53-10.63-15.99-13.75-23.04-6.14-13.87-5.71-26.99-3.07-41.66q1.06-5.92 3.07-11.67"/><path stroke="#6d6c81" vector-effect="non-scaling-stroke" d="M1871.601 451.749c-8.93-1.95-15.55-4.74-23.45-10.34q-8.41-5.96-16.78-11.84"/><path stroke="#95a3b6" vector-effect="non-scaling-stroke" d="M1499.391 382.709h.25a.21.22-6.8 0 1 .21.17c4.46 19.15 7.6 36.29-.67 54.96-6.54 14.8-17.87 24.86-19.21 41.37-1.27 15.7 8.3 30.15 11.2 45.18 5.59 28.96-15.71 44.96-42.66 46.28a1.68 1.63-63 0 0-.88.3l-.78.53"/><path stroke="#70747f" vector-effect="non-scaling-stroke" d="M1446.851 571.499c-29.61-11.28-61.78-5.56-86.85 13.59q-9.04 6.9-14.94 16.62"/><path stroke="#9badc1" vector-effect="non-scaling-stroke" d="M1345.062 601.709q-.3.03-.53.27a.47.47 0 0 1-.64.04q-.49-.41-.03-1.04c3.05-4.17 8.53-10.96 8.51-12.59q0-.47.2-.9c8.38-17.73 23.05-31.53 39.86-41.42 11.54-6.78 23.35-10.35 36.81-9.48a.2.2 0 0 0 .08-.38q-25.9-9.56-52.09-.71c-44.31 14.96-74.1 53.42-69.85 101.44"/><path stroke="#8a93a6" vector-effect="non-scaling-stroke" d="M1307.381 636.939q3.68 30.05 19.81 55.55a.25.25 0 0 1-.08.34l-.26.17"/><path stroke="#83899b" vector-effect="non-scaling-stroke" d="m1326.851 692.999-8.54-11.79"/><path stroke="#8a93a6" vector-effect="non-scaling-stroke" d="M1318.312 681.209c-12.75-21.27-21.41-41.64-26.33-64.17q-5.8-26.5-6.67-54.58"/><path stroke="#95a3b6" vector-effect="non-scaling-stroke" d="M1285.851 498.379q1.83-4.97.49-10.17-.25-.98-.94-1.66a.5.5 0 0 1 0-.71q.19-.18.45-.17"/><path stroke="#8a93a6" vector-effect="non-scaling-stroke" d="M1722.641 303.959v-1.5"/><path stroke="#73768c" vector-effect="non-scaling-stroke" d="M1931.891 272.709q-.07-1.4-1.28-1.9a.68.67-77.5 0 1-.42-.67c1.73-32.32-1.25-67.81-13.05-98.46-5.06-13.14-13.22-25.56-25.3-33.09-15.18-9.48-36.48-11.95-54-9.9q-5.09.6-9.49 3.23a1.18 1.17 35.7 0 1-.88.14l-1.62-.39"/><path stroke="#939eb2" vector-effect="non-scaling-stroke" d="M1441.421 285.849q-.88 7.25-.61 14.36"/><path stroke="#73768c" vector-effect="non-scaling-stroke" d="M1440.391 300.459q.01-.13-.05-.27-.07-.17-.13 0l-.14.42a.37.37 0 0 1-.55.2c-1.56-.96-1.44-2.58-2.24-3.8-14.68-22.28-29.1-43.38-44.14-69.65-9.56-16.68-22.25-35.89-44.49-34.77-16.07.81-25.2 13.35-29.34 27.86q-8.61 30.22 2.15 59.51c.45 1.21 1.48 2.3 2.02 3.57a.62.61-27.3 0 1-.25.76q-.29.18-.63.21"/><path stroke="#898da1" vector-effect="non-scaling-stroke" d="M1317.812 279.209c-12.59-18.94-17.64-42.64-28.43-62.79-4.4-8.21-14.44-23.15-25.74-18.67-20.62 8.16-18.48 91.49-18.63 110.46a.62.62 0 0 1-.46.6q-.82.23-.91.9M1920.312 310.459q-.59-.67-1.35-.17a.8.79 43.2 0 1-.84.02c-.45-.26.46-11.05.47-11.35q.74-33.62-3.05-67.05c-1.13-9.95-4.86-38.41-21.21-34.63-4.56 1.05-9.06 4.46-11.93 8.24-13.68 18.02-19.14 41.45-29.57 62.2q-3.04 6.04-6.27 11.99"/><path stroke="#73768c" vector-effect="non-scaling-stroke" d="M1842.341 283.879q13.93-35.65.24-71.15c-3.99-10.34-12.42-18.07-23.36-20.07-23.71-4.32-38.9 18.19-49.63 36.05-13.7 22.82-26.45 44.86-43.29 66.97q-1.34 1.76-3.66 6.78"/><path stroke="#939eb2" vector-effect="non-scaling-stroke" d="M1722.641 302.459c-.33-4.78-1.05-15.01 2.78-19.04a.58.57 45.4 0 0 0-.79q-.2-.22-.57-.21"/><path stroke="#898da1" vector-effect="non-scaling-stroke" d="M1903.572 356.199q-4.03 4.22-7.38 8.96c-10.39 14.72-19.86 28.82-27.51 45.2a.22.22 0 0 1-.42-.06q-1.99-12.21-8.3-22.87a.6.58-40.8 0 1 .06-.69q.12-.15.33-.24"/><path stroke="#808195" vector-effect="non-scaling-stroke" d="M1858.601 385.169q-3.35-4.88-7.22-6.78c-9.68-4.72-18.83-8.39-28.03-15.39M1820.851 358.999q-3.42-4.45-5.79-9.54M1813.351 342.749q.44-6.57 2.58-12.79a.78.78 0 0 0-.2-.8q-.52-.51-.67-1.2"/><path stroke="#5c5c69" vector-effect="non-scaling-stroke" d="M1717.661 571.259q-3.56 2.37-7.27 3.45"/><path stroke="#767b90" vector-effect="non-scaling-stroke" d="m1710.391 574.709-.86-.35q-.44-.18-.92-.15-18.57 1.2-33.42 7.61c-40.23 17.37-49.49 66.7-47.6 105.11.5 10.35 2.43 19.2 6.13 28.48q5.44 13.65 6.92 18.78c3.11 10.73 2.59 17.31 3.19 26.71q.03.5-.16.95l-.78 1.86"/><path stroke="#95a3b6" vector-effect="non-scaling-stroke" d="M1620.891 761.809q6.72-21.17.79-42.91c-3.39-12.42-10.65-28.27-20.97-35.4-10.44-7.22-25.82-6.88-36.07.51q-5.93 4.27-11.61 14.13-16.8 29.16-9.32 63.56"/><path stroke="#767b90" vector-effect="non-scaling-stroke" d="M1520.312 759.209c1.11-9.9 1.12-17.81 4.92-28.16 5.63-15.34 11.4-28.54 12.08-45.25 2.06-50.69-15.59-104.47-74.51-110.91-2.72-.3-5.09-.91-7.63-1.55a.57.57 0 0 0-.65.3l-.67 1.36"/><path stroke="#5c5c69" vector-effect="non-scaling-stroke" d="m1453.851 574.999-7-3.5"/><path stroke="#646175" vector-effect="non-scaling-stroke" d="M1417.601 812.749q2.93 3.66 4.62 8.22M1740.121 823.459q-3.2 6.21-8.35 11.36a1.06 1.05 39.8 0 0 .15 1.61l.26.18a.5.5 0 0 0 .73-.17q1.19-2.15 3.53-1.51"/><path stroke="#6d6c81" vector-effect="non-scaling-stroke" d="M1332.851 430.169c-12.13 9.78-24.34 19.03-40.21 21.54"/><path stroke="#8a93a6" vector-effect="non-scaling-stroke" d="m1707.101 671.249-6.83 3.08"/><path stroke="#73768c" vector-effect="non-scaling-stroke" d="m1339.101 131.919-.75.15a1.54 1.54 0 0 1-.95-.09q-7.64-3.29-16.8-3.7c-21.57-.98-47.06 4.08-61.19 21.26-14.04 17.07-20.89 41.29-23.8 63.42q-3.76 28.5-1.81 57.18a.83.83 0 0 1-.4.76l-1.34.81"/><path stroke="#808195" vector-effect="non-scaling-stroke" d="m1344.141 320.959-.44.72a.78.76 45.6 0 0 0 .81q5.92 9.61 7.9 20.76M1348.891 348.959c-2.39 3.82-1.87 6.8-6.04 9.79M1340.641 363.209q-8.6 7.23-15.77 10.29c-7.8 3.33-13.36 5.66-18.52 11.67"/><path stroke="#898da1" vector-effect="non-scaling-stroke" d="M1306.762 386.369q-7.79 10.7-10.45 23.68a.3.3 0 0 1-.57.06c-8.93-19.23-21.33-36.92-34.6-53.4"/><path stroke="#7c859b" vector-effect="non-scaling-stroke" d="M1856.312 632.689q-4 18.8-12.04 33.7-14.03 25.99-38.07 45.9-11.55 9.57-23.24 18.98c-14.52 11.68-26.51 23.87-37.64 38.29a.37.37 0 0 0 .45.56q5.29-2.49 11.31-3.11"/><path stroke="#757b8f" vector-effect="non-scaling-stroke" d="m1757.082 767.009-5.04 4.86"/><path stroke="#7c859b" vector-effect="non-scaling-stroke" d="M1752.042 771.869c-8.13 5.95-15.24 10-18.19 16.55M1729.601 793.919l.37.14a.31.31 0 0 1 .14.47q-5.48 7.37-9.51 15.64M1718.062 813.209l-2.96 5.46M1684.351 821.999q-3.27-.56-6.03 1.13-.49.31.09.35l4.19.27M1712.601 822.499q-3.97 8.42-9.5 15.92M1701.851 840.749q-2.37 2.39-5.78 3.6M1696.891 846.959q-10.21 8.21-14.35 10.74-23.53 14.39-48.23 3.04c-20.66-9.5-30.32-27.34-32.86-49.8a1.65 1.63-67.3 0 0-.34-.84l-.3-.39M1644.391 764.209c3.88-8.5 4.44-16.8 5.55-27.43q.86-8.23 4.36-22.83.94-3.93 2.97-6.57 16.97-22.09 43-33.05"/><path stroke="#9badc1" vector-effect="non-scaling-stroke" d="M1700.271 674.329q18.42 3.68 37.07 1.64c28.38-3.11 56.36-17.87 61.16-48.67.85-5.51-.09-10.04 1.86-15.62q1.13-3.27 1.28-6.72"/><path stroke="#626674" vector-effect="non-scaling-stroke" d="M1801.641 604.959c3.67-13.21 14.58-3.38 19.44 1.36.13.13.31.17.48.15a.18.18 0 0 0 .14-.23l-.35-.99"/><path stroke="#8a93a6" vector-effect="non-scaling-stroke" d="m1465.861 674.509-7.01-3.51"/><path stroke="#646175" vector-effect="non-scaling-stroke" d="M1412.101 771.169c-6.32 1.58-9.55 8.7-11.25 14.25M1432.312 839.459l2.17-.79a.33.32 62.7 0 0 .15-.5c-2.73-3.88-8.64-11.42-8.78-13.67M1402.851 788.499c4.34 6.86 8.5 13.64 12.79 20.46M1761.351 785.169c.09-7.25-3.95-9.65-9.31-13.3"/><path stroke="#c5ced9" vector-effect="non-scaling-stroke" d="m1868.851 849.499 3.54 1.71"/><path stroke="#646175" vector-effect="non-scaling-stroke" d="M1318.312 681.209c-3.32.81-3.53-1.18-5.15-3.1q-10.64-12.59-16.44-28.05a.64.62 78.7 0 0-.6-.41l-1.48.06M1867.312 657.709q-1.51.17-2.61-.89a.3.3 0 0 0-.49.13c-3.07 9.22-9.95 18.47-17.13 28.05a.31.3 49.1 0 1-.51-.04q-.64-1.12-1.93-1.5M1741.601 819.669l5.11-7.09M1748.032 809.539l12.13-19.48a1.18 1.16 62 0 0 .19-.64v-.42"/><path stroke="#626674" vector-effect="non-scaling-stroke" d="m1345.062 601.709-2.73 4.7a.29.29 0 0 0 .45.36c3.88-3.73 8.8-9.06 14.75-7.85a1.38 1.37-13.3 0 1 .8.49q3.92 4.99 5.73 11.05"/><path stroke="#9badc1" vector-effect="non-scaling-stroke" d="m1364.062 610.459-.44-.01a.39.39 0 0 0-.38.49c.44 1.71 1.34 3.4 1.55 5.09.95 7.61 1.52 15.91 3.94 22.79 7.66 21.8 31.44 33.29 53.37 36.37q22.51 3.16 43.76-.68"/><path stroke="#7c859b" vector-effect="non-scaling-stroke" d="M1465.861 674.509q22.56 10.25 38.26 29.15c3.83 4.61 5.56 8.41 6.76 14.05q3.78 17.85 5.44 33.5.32 3.09 2.53 8.04M1563.641 809.709q-.99 34.4-30.3 49.73c-23.04 12.05-45.6 5.89-64.24-11.19M1467.631 845.639l-4.28-4.39M1460.601 838.169c-.18-3.29-6.89-12.36-9-15.42M1448.601 819.169l-2.75-5.92M1442.101 809.669c-.04-.5.06-.69-.21-1.16q-4.49-7.84-9.54-15.34M1429.101 788.169c-1.43-5.22-12.48-13.94-17-17"/><path stroke="#757b8f" vector-effect="non-scaling-stroke" d="m1412.101 771.169-4.5-4.17"/><path stroke="#7c859b" vector-effect="non-scaling-stroke" d="m1407.601 766.999 12.79 3.44q.47.13.17-.26-16.13-21.17-36.1-36.58c-9.19-7.09-19.61-14.98-25.53-19.82-21.37-17.42-39.57-41.4-48.14-67.93q-1.46-4.53-3.41-8.91"/><path stroke="#646175" vector-effect="non-scaling-stroke" d="M1838.171 691.679q-5.84 9.06-13.8 16.56c-20.81 19.62-44.03 36.89-64.26 56.47q-1.64 1.58-3.03 2.3"/><path stroke="#70747f" vector-effect="non-scaling-stroke" d="M1801.641 604.959c-5.72 14.31-10.07 27.61-20.83 39.23q-24.18 26.1-61.47 26.63-6.11.09-12.24.43"/><path stroke="#504b59" vector-effect="non-scaling-stroke" d="M1707.101 671.249q-13.62-1.48-27.31-1.2c-26.93.55-25.22 20.85-28.87 40.19q-.09.49-.13-.01-2.23-24.77 3.67-48.62c8.57-34.63 24.36-67.9 55.93-86.9M1453.851 574.999q13.48 8.16 21.7 17.01c27.26 29.4 42.03 78.88 38.21 118.91q-.05.5-.13 0-1.39-8.35-2.92-16.69c-2.24-12.14-6.32-22.14-19.81-23.53q-16.03-1.66-32.05.3"/><path stroke="#70747f" vector-effect="non-scaling-stroke" d="M1458.851 670.999q-15.8.2-21.83-.38-41.17-3.93-63.19-38.41-3.01-4.72-9.77-21.75"/><path stroke="#646175" vector-effect="non-scaling-stroke" d="m1407.601 766.999-.3-.05a.82.8 70.2 0 1-.39-.19q-19.42-17.95-28.01-24.84c-20.61-16.52-36.26-28.8-50.6-46.63q-.86-1.06-1.45-2.29"/><path stroke="#4a424e" vector-effect="non-scaling-stroke" d="M1563.062 790.249q2.24 1.93 2.34 4.76a1.29 1.27 64.8 0 1-.31.89l-4 4.8a1.63 1.62 42.4 0 0 .1 2.19q8.45 8.45 18.03 15.65.52.39.55-.26 1.14-22.68.19-45.37c-.14-3.35-.85-6.47-4.09-7.5q-8.09-2.58-19.27-3.16c-9.2-.49-18.77 5.11-18.97 15.01-.09 4.13-1.01 7.13 4.75 6.52q5.33-.56 9.9-.23c5.61.41 6.98 3.43 10.78 6.7M1617.021 783.349c3.37.49 7.66.91 10.3-1.65a1 .99 64.6 0 0 .3-.86c-1.2-9.26-5.57-17.75-16-18.12-5.31-.18-24.95.18-26.81 6.2q-.91 2.93-1.02 12.79-.2 18.12.57 36.37a.43.43 0 0 0 .68.33q9.91-7.27 18.06-16.42a1.41 1.4 36.6 0 0-.32-2.14q-2.98-1.8-4.68-4.75a1.94 1.94 0 0 1 .42-2.45c6.68-5.69 8.32-10.75 18.5-9.3"/><path stroke="#595765" vector-effect="non-scaling-stroke" d="M1534.351 921.919q47.92 21.38 95.75-.25"/><path stroke="#504b59" vector-effect="non-scaling-stroke" d="M1630.101 921.669q27.65-11.15 43.19-36.3a.31.31 0 0 0-.34-.46c-28.65 6.69-63.84-10.44-85.83-27.76-1.75-1.39-2.92-2.87-4.24-4.61a.37.36 44.6 0 0-.59 0q-2.17 3.01-5.12 5.24c-24.1 18.22-55.39 31.29-85.72 27.54q-.49-.06-.22.36 15.91 24.75 43.12 36.24"/><path stroke="#73768c" vector-effect="non-scaling-stroke" d="m1630.101 921.669-.4-1.61a1.12 1.07 56 0 1 .15-.86c15.22-22.71-26.47-48.22-43.4-51.66-5.31-1.07-11.16.34-17.41 3.08-13.81 6.08-34.05 19.57-37.49 35.34-1.07 4.92.85 9.64 3.04 13.97a1.18 1.15-50.8 0 1 .08.88l-.32 1.11"/><path stroke="#504b59" vector-effect="non-scaling-stroke" d="M1654.621 348.439c-2.93 9.4 1.71 15.97 9.81 20.98a.52.52 0 0 0 .71-.16q2.12-3.27 3.18-6.99c3.61-12.63 11.7-25.35 17.7-37.1q.23-.45-.24-.27c-6.56 2.5-13.52 7.7-19.5 11.48-5.05 3.2-9.86 6.28-11.66 12.06M1498.981 369.799c9.5-5.07 15.69-17.58 6.84-26.55-7.11-7.2-18.19-12.11-27.2-17.78a.3.3 0 0 0-.43.38c4.46 9.4 10.68 19.62 14.21 27.68q3.46 7.87 6 16.03a.4.4 0 0 0 .58.24"/><path stroke="#6f7185" vector-effect="non-scaling-stroke" d="M1582.972 418.769a.64.64 0 0 0-.64-.64h-.04a.64.64 0 0 0-.64.64v121.44a.64.64 0 0 0 .64.64h.04a.64.64 0 0 0 .64-.64v-121.44"/><path stroke="#626674" vector-effect="non-scaling-stroke" d="M1478.802 809.629c-2.59 4.07 3.64 5.64 6.35 5.62a1.03 1.03 0 0 0 .88-.52l2.31-4.06a.58.58 0 0 0-.25-.81c-3.15-1.53-7.33-3.32-9.29-.23"/><path stroke="#916e5c" vector-effect="non-scaling-stroke" d="M1380.062 628.709q1.84 4.09 3.85 6.68c24.82 32.04 78.43 43.11 100.86.33"/><path stroke="#8c5a3c" vector-effect="non-scaling-stroke" d="M1484.772 635.719c3.46-4.91 5.18-9.68 2.45-15.42-8.32-17.49-21.94-33.81-40.11-41.6a.83.83 0 0 0-1.15.84l.39 4.13"/><path stroke="#999498" vector-effect="non-scaling-stroke" d="M1446.351 583.669c-9.1 2.55-10.17 12.8-2 17.33"/><path stroke="#8c5a3c" vector-effect="non-scaling-stroke" d="M1444.351 600.999q-4.48 14.62-12.5 27.67"/><path stroke="#916e5c" vector-effect="non-scaling-stroke" d="M1431.851 628.669q-.83.99-1.02 2.3a.52.52 0 0 1-.45.45l-.28.05a.22.21-17.7 0 1-.22-.11l-1.78-3.19"/><path stroke="#8c5a3c" vector-effect="non-scaling-stroke" d="M1428.101 628.169c-9.62-17.06-14.36-36.58-8.24-55.68a.37.36 8.7 0 0-.35-.47c-16.34-.01-31.41 1.75-39.53 17.57q-10.09 19.65.08 39.12"/><path stroke="#e79b66" vector-effect="non-scaling-stroke" d="M1428.101 628.169q-.92.13-.6 2.15a.37.37 0 0 1-.61.33c-14.52-13.55-20.23-29.08-24.83-47.96a1.14 1.13 72.3 0 0-1.52-.79c-17.84 6.94-26.93 24.18-20.43 43.19q.16.46.12.94l-.17 2.68M1484.772 635.719q.09-4.5-.43-8.9c-1.44-12.31-13.82-22.99-23.71-28.79-1.82-1.07-3.26-1.02-4.32.9-6.84 12.43-11.69 21.5-22.35 30.47a.71.69-48.6 0 1-.81.06l-1.3-.79"/><path stroke="#efc2a1" vector-effect="non-scaling-stroke" d="M1444.351 600.999c15.9 1.84 16.09-16.64 2-17.33"/><path stroke="#916e5c" vector-effect="non-scaling-stroke" d="M1679.391 637.459c24.36 39.14 73.26 30.78 99.23-.46q3.27-3.94 5.13-8.56"/><path stroke="#8c5a3c" vector-effect="non-scaling-stroke" d="M1783.751 628.439c11.31-17.69 3.1-48.73-18.7-54.06q-9.82-2.4-20.98-2.05a.42.42 0 0 0-.38.58c.37.86.88 1.85 1.08 2.77 4.45 20.41-.47 37.18-10.78 54.62a.32.32 0 0 1-.54.02c-9.58-13.92-15.88-29.48-16.16-46.57-.03-1.54.62-3.37.71-5.05a.33.33 0 0 0-.45-.32c-17.89 7.02-30.59 22.75-39.79 39.09-4.61 8.2-2.79 12.7 1.63 19.99"/><path stroke="#e79b66" vector-effect="non-scaling-stroke" d="M1783.751 628.439q2.21-7.82 2.22-15.79c.01-14.52-7.83-24.74-21.36-29.93q-1.95-.75-3.22.08a1.12 1.12 0 0 0-.51.77q-3.31 19.81-14.5 36.43c-1.78 2.64-10.38 14.24-14.16 11.36q-12.53-9.54-19.85-24.07-2.32-4.59-4.71-9.24a1.67 1.67 0 0 0-1.73-.88c-6.7 1.02-17.04 12.18-20.94 17.5-5.09 6.93-7.03 12.88-4.71 21.02q.32 1.11-.89 1.77"/></g><path fill="#fcfcfd" d="M1865.312 791.459c-26.12-3.43-51.82-7.13-78.2-7.94q-.49-.01-.17-.39c10.5-12.23 19.95-23.34 31.65-36.55q11.97-13.53 19.94-24.19c37.17-49.68 50.93-115.6 46.29-176.97q-.17-2.19.67-4.23c13.57-32.97 19.92-66.1 23.02-101.52q.95-15.16 1.4-30.41c.97-32.52 5.71-63.82 14.97-95.02 9.06-30.55 16.91-59.04 16.51-90.77q-.44-34.58-9.56-70c-5.57-21.65-21.49-67.46-52.06-59.4-41.07 10.83-64.98 40.2-86.54 74.5q-20.32 32.33-40.65 64.65c-14.79 23.51-32.36 49.25-51.13 71.2-8.61 10.09-16.35 17.02-27.24 23.09-8.34 4.65-23.4 11.32-26.08 22.51q-.48 1.98-.96 4.06a.4.4 0 0 1-.56.27c-25.6-11.73-49.57-9.44-76.44-9.51-19.62-.05-35 1.6-52.44 9.39a.64.64 0 0 1-.89-.45c-4.26-18.66-25.47-22.86-38.68-33.64q-10.77-8.79-19.03-19.22c-31.87-40.24-58.77-85.18-85.58-129.51q-12.31-20.35-27.7-38.49-23.82-28.17-59.31-38.35-8.86-2.54-15.19-.88c-22.17 5.8-35.36 45.27-39.81 64.71q-6.07 26.53-7.88 45.32c-3.17 32.89 1.27 64.35 10.86 95.81q5.16 16.92 8.59 29.93c6.78 25.78 10.32 51.98 10.84 78.81.9 45.59 5.82 90.41 24.81 132.98q.87 1.96.76 4.09c-2.27 43.87 2.67 87.06 18.8 128.06 9.63 24.51 23.86 45.69 41.85 66.24q19.49 22.26 39.08 44.5.33.37-.17.4c-4.25.31-8.94.08-12.8.39q-29.45 2.37-58.68 6.74c-.55-.6-.27-1.03.43-1.19q16.14-3.53 42.31-8.03 10.79-1.85 19.48-1.63.5.01.16-.36-26.75-29.58-39.88-44.99c-45.35-53.24-58.67-121.03-55.34-188.25.06-1.05-.22-1.78-.6-2.69q-22.11-53.65-23.91-109.26c-.75-23.29-.72-40.65-3.32-60.74-3.86-29.7-11.8-55.05-19.69-82.49-13.58-47.2-11.45-97.06 1.76-144.05 5.55-19.71 19.37-54.89 42.66-59.31 11.42-2.17 27.39 3.81 37.91 9.31 26.53 13.87 45.41 35.3 61.36 60.14 18.47 28.76 36.57 59.91 49.67 80.33q17.51 27.29 37.17 53.06c8.21 10.75 17.79 21.37 28.99 29.08 12.5 8.6 26.1 11.4 33.58 26.72a.53.53 0 0 0 .67.26q17.66-7.15 36.84-7.1c13.98.03 27.04.16 41.88-.06 14.42-.21 29.63 1.15 42.99 6.92a.64.64 0 0 0 .85-.33c5.09-11.78 18.17-18.85 29.51-24.3q4.99-2.41 14.46-10.81 8.33-7.4 20.36-23.11c30.13-39.4 55.69-82.04 81.6-123.66 19.39-31.15 41.76-58.53 77.12-72.09q10.61-4.07 19.97-5.09c8.99-.98 19.2 5.19 24.94 11.58 12.21 13.61 19.83 32.78 24.49 50.25 10 37.46 13.18 77.48 6.85 115.68-1.84 11.1-5.47 24.25-9.46 37.39-9.14 30.12-15.85 58.83-18.25 90.42q-.84 11.15-1.78 46.19-.18 6.66-2.59 25.77-4.94 39.32-19.59 76.04c-1.95 4.88-1.24 9.76-1.04 15.13 2.43 64.97-13.61 129.15-56 179.63q-14.57 17.37-35.03 39.46-1.14 1.23-1.97 3.4a.37.37 0 0 0 .32.5q22.87 1.53 34.11 3.86 18.93 3.92 24.52 4.91 5.44.97 8.79 2.14a.68.67 12.8 0 1 .45.7z"/><path fill="#362c32" d="M1345.851 132.919q-.56.42-1.12.35a.52.51 9.4 0 0-.56.4l-.61 2.79-4.46-4.54c-14.79-16.61-35.72-31.25-58.25-31.44-19.88-.17-29.46 14.63-36.22 31.29-17.41 42.91-24.49 94.56-12.57 139.94q4.47 19.4 11.58 38 8.06 23.76 17.5 47c11.27 31.57 21.66 58.97 31.5 95 1.44 6.33 3.15 14.13 7.03 19.43 6.87 9.37 20.99 1.37 27.7-3.92q18.43-14.52 26.71-36.52.81-2.13.77-3.48a2.31 2.31 0 0 0-2.55-2.23c-7.24.75-12.7 3.28-19.45 5.18 5.59-4.04 26.1-15.8 22.79-24.31-4.37-11.2-37.71-18.16-48.88-19.49l-4.65-.35q-.59-.05-.01-.14l4.25-.71c21.56-2.52 43.42-4.27 64.97-3.31q1.73.08.36-.98-14.35-11.1-31.04-17.67-16.58-6.9-33.99-11.36-.49-.12.02-.1 3.51.2 7.01.83 14.67 2.67 29.17 6.17c16.31 4.38 36.69 10.55 49.83 21.53a.5.49 7.8 0 0 .77-.58c-2.72-5.98-5.79-8.81-11.96-11.96-11.55-5.9-21.51-9.48-32.6-18.78-18.07-18-31.25-36.81-47.97-59.77q-.29-.4.05-.04 7.96 8.58 14.09 16.34 16.61 21.02 36.54 37.76c7.92 7.04 18.16 13.07 28.82 14.6a.38.39 68.8 0 0 .3-.68q-20.12-16.31-36.58-36.21-14.12-20.27-26.33-41.75l4.79 5.29q10.75 14.61 28.26 31.7c6 5.85 32.76 28.04 41.3 21.16 9.29-7.47-18.51-51.25-23.61-59.85q-.27-.45.07-.06 2.84 3.25 9.03 11.96 8.58 12.08 16.86 24.38 18.49 27.44 29.62 58.72a.42.41 50.7 0 0 .75.08c13.58-22.84 15.21-46.19 15.51-72.13l.42-.25c3.37 28 1.78 57.56-13.96 80.5q-7.9 11.5-12.54 16.71-34.63 38.84-76.04 73.96c-8.22 6.98-19.66 16.19-27.82 19.45q-12.59 5.03-24.6-5.16-18.84-19.54-26.87-43.32-1.01-3-.76.16 3.59 46.43 22.26 89.04.25.58.35-.05l5.02-33.12q1.69 9.02 2.12 17.99.27 5.69-.78 15.62-1.61 15.19-1.88 30.47c-.25 1.67-.96 3.09-1.03 4.71-1.32 27.71 2.75 55.38 10.36 82.54q10.29 38.65 34.57 70.38c15.07 19.69 28.32 33.84 43.38 50.13q6.52 7.04 12.51 14.5a1.06 1.06 0 0 0 .8.39l14.95.31 28.25 2.75c22.23 4.07 43.02 9.78 61.52 20.25a.85.86 71 0 1-.75 1.53q-28.5-11.63-57.52-16.78-14.58-3.38-29.5-4.67-7.3-1.05-14.73-.99-.54.01-.19.41 8.91 10.28 17.03 21.19a1.2 1.21 51 0 0 1.77.18c2.24-1.98 5.99.22 8.91-.33l26.46.71c11.15 1.48 26.73 3.2 36.77 8.16q.45.22-.03.11-16.27-3.99-32.99-4.69-14.11-.86-28.25-.5l-9.11-.17q-.65-.02-.24.49l6.8 8.53a.99.97 65.8 0 0 .92.36l6.25-.99 26.38-1.8q9.91.41 19.76 1.53c4.67.53 12.3.86 18.5 2.4a.3.3 0 0 1-.07.59l-4.3.03a.51.49 6.5 0 0-.49.38l-.64 2.52a1.14 1.14 0 0 1-.87.84q-3.6.78-6.36-1.63a.96.94 27.6 0 1-.3-.93l.23-.92a.46.45 7.7 0 0-.43-.56l-22.03-.67q-12.92.11-25.75 1.75l-7 .2q-.5.01-.18.39 6.33 7.66 13.64 14.37c1.42 1.75 2.82.53 4.32.43l23.97-1.72 26.56 2.54q.55.06 0 .07l-23.81.47q-12.47.41-24.87 1.96-.46.06-.13.38l7.4 7.06a.94.93 59.2 0 0 .88.23l21-5.24c9.58-1.28 20.12-3.35 25.92 1.21a.55.55 0 0 1 .12.73c-2.84 4.38-7.29 4.02-9.89-.17a.89.9 74.3 0 0-.76-.42q-7.02-.03-13.92 1.26l-19.66 4.47q-.52.12-.1.44c14.15 10.66 29.41 20.57 46.89 24.45 18.33 4.06 38.6.2 55.59-7.47 17.71-8 30.02-20.01 25.19-41.14-1.66-7.26-8.22-13.66-13.37-19.29q-6.41-7.55-10.84-16.38c-.4-.82-1.47-1.95-2.2-2.16-5.2-1.5-10.89-2.75-15.16-5.98q-12.85-9.71-16.59-25.94l1.46-.04c1.16 5.29 7.64 18.3 14.87 15.78a.98.99 89.3 0 0 .63-.64q2.33-7.33 7.9-12.65c13.91-7.23 30.16 4.22 45.14 1.28 10.47-2.05 22-5.4 32.04-1.17 3.89 3.85 6.08 8.97 8.55 13.93a1.17 1.17 0 0 0 1.56.53q8.17-4.04 11.89-12.56l.77-.13a.52.53 72.3 0 1 .55.28l.18.35q-8.19 22.79-31.98 26.98a.95.94 6.4 0 0-.7.55q-4.19 9.74-10.9 17.97c-6.33 6.32-13.49 13.83-14.13 23.25-.74 10.81 1.37 20.25 10.1 27.34 21.18 17.22 53.24 23.52 78.97 15.06 15.59-5.12 29.95-14.23 42.47-24.3q.39-.32-.1-.43-10.53-2.44-21.23-3.67l-14.86-1.27a1.12 1.11 13.5 0 0-1.11.67q-2.77 6.6-9.03 3.08a1.82 1.81 40.1 0 1-.26-2.99c5.34-4.35 17.93-2.73 24.44-2.1l24.44 4.18a1.06 1.04 28.9 0 0 .86-.24l6.45-5.53q.43-.37-.13-.4l-25.84-1.61c-6.98.08-16.37 1.39-23.03-.19q-.53-.13.01-.17l24.27-1.97q14.57-.55 29.12.27a1.12 1.13 24 0 0 .87-.34l3.35-3.42 10.25-10.82q.38-.4-.17-.42l-6.4-.23q-14.09-1.56-27.52-.96-10.25-.12-20.46 1.21a.87.87 0 0 0-.69.51c-2.69 5.92-10.14 1.91-8.85-.47l1.75-1.75q.78-.45 2.19-.6 17.08-1.9 28.56-2.73l26.5 1 7.31.96a1.01 1.01 0 0 0 .86-.32l7.11-7.73q.38-.4-.18-.38l-9.99.38q-14.49-.47-28.65.63-16.17.64-31.98 4.11-.51.11-.04-.1c10.29-4.61 23.44-5.64 34.56-7.05l27.43-.63 11.06.13a1.01 1.01 0 0 0 .8-.37c5.96-7.37 11.65-14.96 17.79-22.19q.32-.38-.17-.27c-5.65 1.29-11.42 1.27-17.16 2.16q-15.58 1.19-30.75 4.92-24.35 4.61-47.75 12.89-.61.22.04.26 3.13.22 4.74 2.84a.98.99 44.3 0 1 .01 1.03q-2.47 4.19-7.37 3.36a1.22 1.21 78.9 0 1-.84-.57q-1.22-2.02-.3-4.21.35-.83-.49-.52l-2.75 1.01a.45.45 0 0 1-.46-.1l-.26-.25a.41.41 0 0 1 .07-.65c19.3-11.44 37.94-16.01 59.61-20.59l27.5-3.25 18.05-.87a1.22 1.2 18.9 0 0 .83-.4c20.62-23.3 42.71-46.01 60.28-71.03q17.57-25.01 26.8-55.16 13.35-40.42 13.06-82.99c-.01-2.81-.71-5.97-.81-9.01q-.41-16.84-1.5-26.24c-1.25-10.77-2.59-19.14-1.27-29.34q.81-6.19 1.56-12.38.13.02.26.1a.67.68 12.3 0 1 .31.49l4.12 32.9q.13 1.07.55.08 18.62-43.41 21.76-90.57.89-2.75 3.16-1.08c-3.1 35.42-9.45 68.55-23.02 101.52q-.84 2.04-.67 4.23c4.64 61.37-9.12 127.29-46.29 176.97q-7.97 10.66-19.94 24.19c-11.7 13.21-21.15 24.32-31.65 36.55q-.32.38.17.39c26.38.81 52.08 4.51 78.2 7.94l9.24 2.43q.49.13-.01.07l-10.19-1.21c-26.44-3.77-53.63-6.06-80.36-5.46a.97.96 17.7 0 0-.75.38l-4.73 6.16q-.24.31.15.31 21.37-.04 40.45 4.81 12.11 3.08 57.24 15.47l5.22 1.81q.94.32-.03.13l-4.19-.86q-30.89-7.81-50.07-11.94-12.32-2.66-26.93-3.91c-7.36-.63-15.41-.42-23.15-.48a.67.67 0 0 1-.65-.52l-.18-.77q-.2-.88-.77-.18l-5.46 6.72q-.35.43.21.41c34.1-1.18 63.57 8.59 95.71 17.88l3.64 1.43q.34.13-.01.25l-.34.11c-25.58-7.08-50.09-12.67-76.42-15.19q-15.04-1.43-25.83-.62-1.17.09-2 1.58a.36.36 0 0 0 .26.53c15.47 2.23 29.43 6.85 44.87 12.86q29.52 11.5 58.37 24.59l.5.25-.25 1c-32.67-14.61-70.79-28.96-107.21-33.69a.96.94 22.4 0 0-.87.35l-3.18 3.95q-.42.52.24.61c31.69 4.38 60.44 14.89 89.62 28.11q7.47 3.39 15.2 6.23 2.62 1.29 1.19 1.83c-34.55-15.37-73.01-27.84-110.61-30.7a1.09 1.11 23.1 0 0-.93.38l-3.94 4.57q-.47.54.24.53 19.71-.36 35.7 7.07c25.17 11.71 49.42 29.02 73.12 45.87l4.72 4.23q.2.17-.02.02l-7.52-5.11c-32.41-23.41-67.63-43.29-107.42-49.69-1.33-.22-2.11.24-2.78 1.3a.39.4 24.9 0 0 .21.59c33.99 10.87 62.66 28.43 91.45 50.01l3.36 3.1q.37.34-.05.06l-4.27-2.87c-28.58-20.02-62.65-36.3-96.98-43.44a.88.89 28.5 0 0-.81.24l-6.22 6.19a.2.2 0 0 0 .1.34c35.81 8.69 68.48 31.15 95.07 56.03l11.84 11.85-.5-.04c-30.53-30.06-67.23-55.65-110.25-64.34a1.02 1.02 0 0 0-.88.24c-13.74 12.4-27.24 22.28-44.61 28.76a1.43 1.4 4.2 0 0-.72.61q-16.61 29.23-47.24 41.85-55.88 23.01-110.54-3.34-25.66-12.36-39.81-38.03a1.41 1.43 87 0 0-.7-.62q-22.62-8.84-41.02-25.58-1.05-.95-1.93-.06-.35.36-.82.51c-37.5 11.97-70.51 34.34-98.52 61.54l-3.76 3.12q-.39.32-.03-.04l9.04-9.08c28.01-26.8 56.2-46.42 91.23-59.27a.34.34 0 0 0 .12-.57l-7.04-6.68a.88.89 59.2 0 0-.84-.21q-49.22 13.28-90.22 43.48l-.45.09q-.45.1-.1-.2l1.84-1.6c23.78-18.69 55.01-38.74 84.79-46.37q.57-.15.15-.57l-4.62-4.69a.84.84 0 0 0-.81-.23c-36.17 9.26-71.43 28.36-100.95 50.99l-5.84 3.73q-.31.19-.04-.05l3.57-3.31q28.07-21.9 60.93-40.84 18.62-10.73 38.6-15.08a.4.4 0 0 0 .21-.66l-3.33-3.7a.84.87 65.3 0 0-.79-.28c-33.35 5.51-64.93 15.76-96.12 28.56l-3.21 1q-.48.15-.03-.08l2.74-1.42c29.72-13.94 60.79-26.33 93.52-32.13a.25.24 65.1 0 0 .14-.4l-4.38-5.34a.79.77 63.6 0 0-.78-.27q-50.8 11.82-98.54 32.85l-8.43 3.26q-.47.18-.01-.04l8.48-4.18q30.62-14.28 62.21-26.3 16.1-6.12 33.08-9.29a.34.34 0 0 0 .2-.55l-2.29-2.78a1.17 1.16 70.2 0 0-.9-.43c-31.22-.27-61 6.66-90.55 14.35q-1.08.59-2.2.39-.55-.09 0-.18 2.13-.35 3.81-1.73 25.18-7.79 47.89-12.98 18.41-4.2 38.25-4.27.66 0 .26-.52l-3.54-4.54a1.02 1.02 0 0 0-.86-.39c-8.24.44-17.01.48-24.67 1.34-21.57 2.43-45.07 8.38-64.19 13.13-1.28.23-8.83 2.39-9.32 2.23q-.47-.16 0-.31l6.86-2.21q.86-.06 1.69-.31 27.05-8.13 54.52-14.72 15.51-3.72 31.56-3.64.65 0 .24-.51l-4.9-6.08a1.23 1.23 0 0 0-.92-.44q-33.65-.32-66.98 3.99l-9.7.86q-.85.07-.05-.23l2.5-.96q29.23-4.37 58.68-6.74c3.86-.31 8.55-.08 12.8-.39q.5-.03.17-.4-19.59-22.24-39.08-44.5c-17.99-20.55-32.22-41.73-41.85-66.24-16.13-41-21.07-84.19-18.8-128.06q.11-2.13-.76-4.09c-18.99-42.57-23.91-87.39-24.81-132.98-.52-26.83-4.06-53.03-10.84-78.81q-3.43-13.01-8.59-29.93c-9.59-31.46-14.03-62.92-10.86-95.81q1.81-18.79 7.88-45.32c4.45-19.44 17.64-58.91 39.81-64.71q6.33-1.66 15.19.88 35.49 10.18 59.31 38.35zm217.21 657.33q2.24 1.93 2.34 4.76a1.29 1.27 64.8 0 1-.31.89l-4 4.8a1.63 1.62 42.4 0 0 .1 2.19q8.45 8.45 18.03 15.65.52.39.55-.26 1.14-22.68.19-45.37c-.14-3.35-.85-6.47-4.09-7.5q-8.09-2.58-19.27-3.16c-9.2-.49-18.77 5.11-18.97 15.01-.09 4.13-1.01 7.13 4.75 6.52q5.33-.56 9.9-.23c5.61.41 6.98 3.43 10.78 6.7zm53.96-6.9c3.37.49 7.66.91 10.3-1.65a1 .99 64.6 0 0 .3-.86c-1.2-9.26-5.57-17.75-16-18.12-5.31-.18-24.95.18-26.81 6.2q-.91 2.93-1.02 12.79-.2 18.12.57 36.37a.43.43 0 0 0 .68.33q9.91-7.27 18.06-16.42a1.41 1.4 36.6 0 0-.32-2.14q-2.98-1.8-4.68-4.75a1.94 1.94 0 0 1 .42-2.45c6.68-5.69 8.32-10.75 18.5-9.3zm-82.67 138.57q47.92 21.38 95.75-.25 27.65-11.15 43.19-36.3a.31.31 0 0 0-.34-.46c-28.65 6.69-63.84-10.44-85.83-27.76-1.75-1.39-2.92-2.87-4.24-4.61a.37.36 44.6 0 0-.59 0q-2.17 3.01-5.12 5.24c-24.1 18.22-55.39 31.29-85.72 27.54q-.49-.06-.22.36 15.91 24.75 43.12 36.24z"/><path fill="#362c32" d="M1908.512 439.669q-2.27-1.67-3.16 1.08-1.39 2.73-2.49 5.59c-5.75 15.04-14.72 28.61-25.93 40.11q-4.95 3.93-10.87 5.76c-8.13 1.7-15.83-1.92-22.45-6.75q-14.67-10.7-28.32-22.67c-25.85-22.67-50.52-47.11-71.97-74.02q-15.22-19.09-19.71-41.8-3.06-21.42-.97-43.01l.6.27a.74.73 14.1 0 1 .43.71c-.29 4.4.45 9.19.53 13.01q.65 28.89 14.85 54.12.25.44.49 0 1.84-3.36 3.2-6.94c12.55-33.07 30.73-57.78 54.24-89.23q.29-.39.04.03c-2.72 4.57-40.67 64.53-21.15 62.31q8.05-.91 16.86-6.35c18.63-11.51 30.65-25.13 45.96-41.93q2.5-2.75 3.65-6.08l4.22-4.17c-10 16.63-19.34 33.01-31.5 48.25q-14.11 16.1-31.15 29.12-.4.31.11.28 2.84-.14 5.41-1.05 13.15-4.68 23.92-13.56 5.09-3.55 7.8-6.24 22.02-21.83 41.31-46.11.31-.4.02.02-9.07 13-21.08 29.09-12.25 16.43-26.34 29.95c-10.39 7.85-19.61 11.92-30.26 16.96-5.66 2.68-12.61 7.23-13.9 13.27q-.1.5.31.2c15.29-11.21 30.89-15.39 49.64-20.89q17.09-4.43 35.24-7.42a.23.23 0 0 1 .09.45q-16.45 3.99-32.83 10.97-17.39 7-32.33 18.28-.41.31.1.29c26.32-.74 44.79 1.28 67.48 3.6l2.5.47q.63.12.2.59-.32.34-.95.27-2.25-.15-3.44.02c-13.72 1.98-38.25 6.72-47.55 17.95-6.77 8.17 16.45 21.47 22.01 25.1q-7.47-2.55-17.02-4.58-3.1-.65-4.58 1.45a1.24 1.23 58.3 0 0-.21.91c2.82 16.3 17.7 33.2 30.88 42.25 19.98 13.72 28.33.73 31.16-17.85 9.18-31.22 18.1-57.26 30.57-90.76q.47-1.25 1.4-4.79 9.35-22.49 16.74-45.74 6.92-18.53 11.58-37.75c9.98-39.98 6.62-81.74-5.02-121-4.3-14.53-11.11-34.67-22.12-43.96-24.81-20.93-62.06 5.63-78.9 23.92-10.68 10.75-21.18 25.36-27.95 36.1q-21.79 34.57-43.52 69.17c-9.5 15.11-19.89 30.18-29.53 45.48q-13.42 19.78-27.39 39.17c-14.48 20.11-26.86 41.43-30.7 66.14q-.07.48-.24.03l-1.68-4.42c-9.41-28-41.51-34.06-66.81-34.06q-18.75 0-37.49.16c-25.29.22-50.77 8.1-61.15 33.27l-1.86 4.51q-.16.4-.26-.03c-.94-4.31-1.56-8.85-2.92-12.89-11.11-32.86-34.41-60.86-52.93-88.45-10.63-16.8-21.83-33.29-32.29-50.19q-16.25-26.25-32.46-52.52c-10.05-16.29-20.32-32.36-33.11-46.68l.61-2.79a.52.51 9.4 0 1 .56-.4q.56.07 1.12-.35 15.39 18.14 27.7 38.49c26.81 44.33 53.71 89.27 85.58 129.51q8.26 10.43 19.03 19.22c13.21 10.78 34.42 14.98 38.68 33.64a.64.64 0 0 0 .89.45c17.44-7.79 32.82-9.44 52.44-9.39 26.87.07 50.84-2.22 76.44 9.51a.4.4 0 0 0 .56-.27q.48-2.08.96-4.06c2.68-11.19 17.74-17.86 26.08-22.51 10.89-6.07 18.63-13 27.24-23.09 18.77-21.95 36.34-47.69 51.13-71.2q20.33-32.32 40.65-64.65c21.56-34.3 45.47-63.67 86.54-74.5 30.57-8.06 46.49 37.75 52.06 59.4q9.12 35.42 9.56 70c.4 31.73-7.45 60.22-16.51 90.77-9.26 31.2-14 62.5-14.97 95.02q-.45 15.25-1.4 30.41zm-253.89-91.23c-2.93 9.4 1.71 15.97 9.81 20.98a.52.52 0 0 0 .71-.16q2.12-3.27 3.18-6.99c3.61-12.63 11.7-25.35 17.7-37.1q.23-.45-.24-.27c-6.56 2.5-13.52 7.7-19.5 11.48-5.05 3.2-9.86 6.28-11.66 12.06zm-155.64 21.36c9.5-5.07 15.69-17.58 6.84-26.55-7.11-7.2-18.19-12.11-27.2-17.78a.3.3 0 0 0-.43.38c4.46 9.4 10.68 19.62 14.21 27.68q3.46 7.87 6 16.03a.4.4 0 0 0 .58.24z"/><path  d="M1931.891 272.709q-.07-1.4-1.28-1.9a.67.68 12.5 0 1-.42-.67c1.73-32.32-1.25-67.81-13.05-98.46-5.06-13.14-13.22-25.56-25.3-33.09-15.18-9.48-36.48-11.95-54-9.9q-5.09.6-9.49 3.23a1.18 1.17 35.7 0 1-.88.14l-1.62-.39c16.84-18.29 54.09-44.85 78.9-23.92 11.01 9.29 17.82 29.43 22.12 43.96 11.64 39.26 15 81.02 5.02 121zM1339.101 131.919l-.75.15a1.54 1.54 0 0 1-.95-.09q-7.64-3.29-16.8-3.7c-21.57-.98-47.06 4.08-61.19 21.26-14.04 17.07-20.89 41.29-23.8 63.42q-3.76 28.5-1.81 57.18a.83.83 0 0 1-.4.76l-1.34.81c-11.92-45.38-4.84-97.03 12.57-139.94 6.76-16.66 16.34-31.46 36.22-31.29 22.53.19 43.46 14.83 58.25 31.44z"/><path  d="M1931.891 272.709q-4.66 19.22-11.58 37.75-.59-.67-1.35-.17a.8.79 43.2 0 1-.84.02c-.45-.26.46-11.05.47-11.35q.74-33.62-3.05-67.05c-1.13-9.95-4.86-38.41-21.21-34.63-4.56 1.05-9.06 4.46-11.93 8.24-13.68 18.02-19.14 41.45-29.57 62.2q-3.04 6.04-6.27 11.99l-4.22 4.17q13.93-35.65.24-71.15c-3.99-10.34-12.42-18.07-23.36-20.07-23.71-4.32-38.9 18.19-49.63 36.05-13.7 22.82-26.45 44.86-43.29 66.97q-1.34 1.76-3.66 6.78c-.33-4.78-1.05-15.01 2.78-19.04a.58.57 45.4 0 0 0-.79q-.2-.22-.57-.21c9.64-15.3 20.03-30.37 29.53-45.48q21.73-34.6 43.52-69.17c6.77-10.74 17.27-25.35 27.95-36.1l1.62.39a1.18 1.17 35.7 0 0 .88-.14q4.4-2.63 9.49-3.23c17.52-2.05 38.82.42 54 9.9 12.08 7.53 20.24 19.95 25.3 33.09 11.8 30.65 14.78 66.14 13.05 98.46a.67.68 12.5 0 0 .42.67q1.21.5 1.28 1.9zM1339.101 131.919l4.46 4.54c12.79 14.32 23.06 30.39 33.11 46.68q16.21 26.27 32.46 52.52c10.46 16.9 21.66 33.39 32.29 50.19q-.88 7.25-.61 14.36l-.42.25q.01-.13-.05-.27-.07-.17-.13 0l-.14.42a.37.37 0 0 1-.55.2c-1.56-.96-1.44-2.58-2.24-3.8-14.68-22.28-29.1-43.38-44.14-69.65-9.56-16.68-22.25-35.89-44.49-34.77-16.07.81-25.2 13.35-29.34 27.86q-8.61 30.22 2.15 59.51c.45 1.21 1.48 2.3 2.02 3.57a.61.62 62.7 0 1-.25.76q-.29.18-.63.21l-4.79-5.29c-12.59-18.94-17.64-42.64-28.43-62.79-4.4-8.21-14.44-23.15-25.74-18.67-20.62 8.16-18.48 91.49-18.63 110.46a.62.62 0 0 1-.46.6q-.82.23-.91.9-7.11-18.6-11.58-38l1.34-.81a.83.83 0 0 0 .4-.76q-1.95-28.68 1.81-57.18c2.91-22.13 9.76-46.35 23.8-63.42 14.13-17.18 39.62-22.24 61.19-21.26q9.16.41 16.8 3.7a1.54 1.54 0 0 0 .95.09z"/><path  d="M1842.341 283.879q-1.15 3.33-3.65 6.08c-15.31 16.8-27.33 30.42-45.96 41.93q-8.81 5.44-16.86 6.35c-19.52 2.22 18.43-57.74 21.15-62.31q.25-.42-.04-.03c-23.51 31.45-41.69 56.16-54.24 89.23q-1.36 3.58-3.2 6.94-.24.44-.49 0-14.2-25.23-14.85-54.12c-.08-3.82-.82-8.61-.53-13.01a.74.73 14.1 0 0-.43-.71l-.6-.27v-1.5q2.32-5.02 3.66-6.78c16.84-22.11 29.59-44.15 43.29-66.97 10.73-17.86 25.92-40.37 49.63-36.05 10.94 2 19.37 9.73 23.36 20.07q13.69 35.5-.24 71.15zM1440.391 300.459c-.3 25.94-1.93 49.29-15.51 72.13a.42.41 50.7 0 1-.75-.08q-11.13-31.28-29.62-58.72-8.28-12.3-16.86-24.38-6.19-8.71-9.03-11.96-.34-.39-.07.06c5.1 8.6 32.9 52.38 23.61 59.85-8.54 6.88-35.3-15.31-41.3-21.16q-17.51-17.09-28.26-31.7.34-.03.63-.21a.61.62 62.7 0 0 .25-.76c-.54-1.27-1.57-2.36-2.02-3.57q-10.76-29.29-2.15-59.51c4.14-14.51 13.27-27.05 29.34-27.86 22.24-1.12 34.93 18.09 44.49 34.77 15.04 26.27 29.46 47.37 44.14 69.65.8 1.22.68 2.84 2.24 3.8a.37.37 0 0 0 .55-.2l.14-.42q.06-.17.13 0 .06.14.05.27z"/><path  d="M1317.812 279.209q12.21 21.48 26.33 41.75l-.44.72a.78.76 45.6 0 0 0 .81q5.92 9.61 7.9 20.76-19.93-16.74-36.54-37.76-6.13-7.76-14.09-16.34-.34-.36-.05.04c16.72 22.96 29.9 41.77 47.97 59.77-2.39 3.82-1.87 6.8-6.04 9.79q-14.5-3.5-29.17-6.17-3.5-.63-7.01-.83-.51-.02-.02.1 17.41 4.46 33.99 11.36-8.6 7.23-15.77 10.29c-7.8 3.33-13.36 5.66-18.52 11.67l-4.25.71q-.58.09.01.14l4.65.35q-7.79 10.7-10.45 23.68a.3.3 0 0 1-.57.06c-8.93-19.23-21.33-36.92-34.6-53.4q-9.44-23.24-17.5-47 .09-.67.91-.9a.62.62 0 0 0 .46-.6c.15-18.97-1.99-102.3 18.63-110.46 11.3-4.48 21.34 10.46 25.74 18.67 10.79 20.15 15.84 43.85 28.43 62.79zM1920.312 310.459q-7.39 23.25-16.74 45.74-4.03 4.22-7.38 8.96c-10.39 14.72-19.86 28.82-27.51 45.2a.22.22 0 0 1-.42-.06q-1.99-12.21-8.3-22.87a.58.6 49.2 0 1 .06-.69q.12-.15.33-.24.63.07.95-.27.43-.47-.2-.59l-2.5-.47q-3.35-4.88-7.22-6.78c-9.68-4.72-18.83-8.39-28.03-15.39q16.38-6.98 32.83-10.97a.23.23 0 0 0-.09-.45q-18.15 2.99-35.24 7.42-3.42-4.45-5.79-9.54 14.09-13.52 26.34-29.95 12.01-16.09 21.08-29.09.29-.42-.02-.02-19.29 24.28-41.31 46.11-2.71 2.69-7.8 6.24.44-6.57 2.58-12.79a.78.78 0 0 0-.2-.8q-.52-.51-.67-1.2c12.16-15.24 21.5-31.62 31.5-48.25q3.23-5.95 6.27-11.99c10.43-20.75 15.89-44.18 29.57-62.2 2.87-3.78 7.37-7.19 11.93-8.24 16.35-3.78 20.08 24.68 21.21 34.63q3.79 33.43 3.05 67.05c-.01.3-.92 11.09-.47 11.35a.8.79 43.2 0 0 .84-.02q.76-.5 1.35.17z"/><path  d="M1724.851 282.419q.37-.01.57.21a.58.57 45.4 0 1 0 .79c-3.83 4.03-3.11 14.26-2.78 19.04v1.5q-2.09 21.59.97 43.01-1.94 2.01-.04 4.34a.95.95 0 0 1 .19.86q-.25.92-.14 1.28 5.22 18.55 16.86 33.91c17.57 23.19 36.85 42.08 58.58 62.71 3.03 2.88 7.43 6.47 11.48 10.2q11.83 10.88 29.11 23.87c7.63 5.74 16.06 11.79 25.85 9.46a.83.83 0 0 0 .62-.63q.08-.37-.06-.76 5.92-1.83 10.87-5.76-.16 4.7.33 9.46c.08.76.56 1.35 1.09 1.84q-.75 6.19-1.56 12.38c-1.32 10.2.02 18.57 1.27 29.34q1.09 9.4 1.5 26.24-.57 4.06-.84 8.15c-2.67 39.85-12.08 76.39-34.08 109.6l-6.47 8.22c10-18.56 17.12-37.93 18.14-58.99q2.2-38.53-21.83-66.61c-22.5-26.28-62.31-43.06-96.92-30.37q-.48.17.03.16 13.3-.25 24.75 4.61c22.37 9.48 40.46 26.12 50.87 48.22q3.82 8.09 8.92 15.48a.64.64 0 0 1-.07.82q-.27.27-.71.25c-14.99-27.86-49.89-41.14-79.95-39.44q-10.17.57-23.74 5.45-10.39-.93-19.98-4.4-9.99-3.62-15.71-9.56c-17.29-17.97-6.29-40.7.56-60.49q6.8-19.65-3.94-37.1c-4.63-7.53-10.63-15.99-13.75-23.04-6.14-13.87-5.71-26.99-3.07-41.66q1.06-5.92 3.07-11.67l1.68 4.42q.17.45.24-.03c3.84-24.71 16.22-46.03 30.7-66.14q13.97-19.39 27.39-39.17zM1441.421 285.849c18.52 27.59 41.82 55.59 52.93 88.45 1.36 4.04 1.98 8.58 2.92 12.89q.1.43.26.03l1.86-4.51h.25a.22.21 83.2 0 1 .21.17c4.46 19.15 7.6 36.29-.67 54.96-6.54 14.8-17.87 24.86-19.21 41.37-1.27 15.7 8.3 30.15 11.2 45.18 5.59 28.96-15.71 44.96-42.66 46.28a1.63 1.68 27 0 0-.88.3l-.78.53c-29.61-11.28-61.78-5.56-86.85 13.59q-9.04 6.9-14.94 16.62-.3.03-.53.27a.47.47 0 0 1-.64.04q-.49-.41-.03-1.04c3.05-4.17 8.53-10.96 8.51-12.59q0-.47.2-.9c8.38-17.73 23.05-31.53 39.86-41.42 11.54-6.78 23.35-10.35 36.81-9.48a.2.2 0 0 0 .08-.38q-25.9-9.56-52.09-.71c-44.31 14.96-74.1 53.42-69.85 101.44q3.68 30.05 19.81 55.55a.25.25 0 0 1-.08.34l-.26.17-8.54-11.79c-12.75-21.27-21.41-41.64-26.33-64.17q-5.8-26.5-6.67-54.58.27-15.28 1.88-30.47 1.05-9.93.78-15.62-.43-8.97-2.12-17.99 1.83-4.97.49-10.17-.25-.98-.94-1.66a.5.5 0 0 1 0-.71q.19-.18.45-.17 12.01 10.19 24.6 5.16c8.16-3.26 19.6-12.47 27.82-19.45q41.41-35.12 76.04-73.96 4.64-5.21 12.54-16.71c15.74-22.94 17.33-52.5 13.96-80.5q-.27-7.11.61-14.36z"/><path  d="M1344.141 320.959q16.46 19.9 36.58 36.21a.38.39 68.8 0 1-.3.68c-10.66-1.53-20.9-7.56-28.82-14.6q-1.98-11.15-7.9-20.76a.78.76 45.6 0 1 0-.81zM1664.431 369.419c-8.1-5.01-12.74-11.58-9.81-20.98 1.8-5.78 6.61-8.86 11.66-12.06 5.98-3.78 12.94-8.98 19.5-11.48q.47-.18.24.27c-6 11.75-14.09 24.47-17.7 37.1q-1.06 3.72-3.18 6.99a.52.52 0 0 1-.71.16zM1498.982 369.799a.4.4 0 0 1-.58-.24q-2.54-8.16-6-16.03c-3.53-8.06-9.75-18.28-14.21-27.68a.3.3 0 0 1 .43-.38c9.01 5.67 20.09 10.58 27.2 17.78 8.85 8.97 2.66 21.48-6.84 26.55zM1815.062 327.959q.15.69.67 1.2a.78.78 0 0 1 .2.8q-2.14 6.22-2.58 12.79-10.77 8.88-23.92 13.56-2.57.91-5.41 1.05-.51.03-.11-.28 17.04-13.02 31.15-29.12z"/><path fill="#c2d6e2" d="M1723.611 346.969q4.49 22.71 19.71 41.8c21.45 26.91 46.12 51.35 71.97 74.02q13.65 11.97 28.32 22.67c6.62 4.83 14.32 8.45 22.45 6.75q.14.39.06.76a.83.83 0 0 1-.62.63c-9.79 2.33-18.22-3.72-25.85-9.46q-17.28-12.99-29.11-23.87c-4.05-3.73-8.45-7.32-11.48-10.2-21.73-20.63-41.01-39.52-58.58-62.71q-11.64-15.36-16.86-33.91-.11-.36.14-1.28a.95.95 0 0 0-.19-.86q-1.9-2.33.04-4.34z"/><path  d="M1348.891 348.959c11.09 9.3 21.05 12.88 32.6 18.78 6.17 3.15 9.24 5.98 11.96 11.96a.5.49 7.8 0 1-.77.58c-13.14-10.98-33.52-17.15-49.83-21.53 4.17-2.99 3.65-5.97 6.04-9.79z"/><path  d="M1664.841 383.339q-2.01 5.75-3.07 11.67c-2.64 14.67-3.07 27.79 3.07 41.66 3.12 7.05 9.12 15.51 13.75 23.04q10.74 17.45 3.94 37.1c-6.85 19.79-17.85 42.52-.56 60.49q5.72 5.94 15.71 9.56 9.59 3.47 19.98 4.4-3.56 2.37-7.27 3.45l-.86-.35q-.44-.18-.92-.15-18.57 1.2-33.42 7.61c-40.23 17.37-49.49 66.7-47.6 105.11.5 10.35 2.43 19.2 6.13 28.48q5.44 13.65 6.92 18.78c3.11 10.73 2.59 17.31 3.19 26.71q.03.5-.16.95l-.78 1.86q-3.72 8.52-11.89 12.56a1.17 1.17 0 0 1-1.56-.53c-2.47-4.96-4.66-10.08-8.55-13.93q6.72-21.17.79-42.91c-3.39-12.42-10.65-28.27-20.97-35.4-10.44-7.22-25.82-6.88-36.07.51q-5.93 4.27-11.61 14.13-16.8 29.16-9.32 63.56-5.57 5.32-7.9 12.65a.98.99 89.3 0 1-.63.64c-7.23 2.52-13.71-10.49-14.87-15.78 1.11-9.9 1.12-17.81 4.92-28.16 5.63-15.34 11.4-28.54 12.08-45.25 2.06-50.69-15.59-104.47-74.51-110.91-2.72-.3-5.09-.91-7.63-1.55a.57.57 0 0 0-.65.3l-.67 1.36-7-3.5.78-.53a1.63 1.68 27 0 1 .88-.3c26.95-1.32 48.25-17.32 42.66-46.28-2.9-15.03-12.47-29.48-11.2-45.18 1.34-16.51 12.67-26.57 19.21-41.37 8.27-18.67 5.13-35.81.67-54.96a.22.21 83.2 0 0-.21-.17h-.25c10.38-25.17 35.86-33.05 61.15-33.27q18.74-.16 37.49-.16c25.3 0 57.4 6.06 66.81 34.06zm-81.87 35.43a.64.64 0 0 0-.64-.64h-.04a.64.64 0 0 0-.64.64v121.44a.64.64 0 0 0 .64.64h.04a.64.64 0 0 0 .64-.64z"/><path  d="M1815.062 349.459q2.37 5.09 5.79 9.54c-18.75 5.5-34.35 9.68-49.64 20.89q-.41.3-.31-.2c1.29-6.04 8.24-10.59 13.9-13.27 10.65-5.04 19.87-9.11 30.26-16.96z"/><path  d="M1903.572 356.199q-.93 3.54-1.4 4.79c-12.47 33.5-21.39 59.54-30.57 90.76-8.93-1.95-15.55-4.74-23.45-10.34q-8.41-5.96-16.78-11.84c-5.56-3.63-28.78-16.93-22.01-25.1 9.3-11.23 33.83-15.97 47.55-17.95q1.19-.17 3.44-.02-.21.09-.33.24a.58.6 49.2 0 0-.06.69q6.31 10.66 8.3 22.87a.22.22 0 0 0 .42.06c7.65-16.38 17.12-30.48 27.51-45.2q3.35-4.74 7.38-8.96zM1261.141 356.709c13.27 16.48 25.67 34.17 34.6 53.4a.3.3 0 0 0 .57-.06q2.66-12.98 10.45-23.68c11.17 1.33 44.51 8.29 48.88 19.49 3.31 8.51-17.2 20.27-22.79 24.31-12.13 9.78-24.34 19.03-40.21 21.54-9.84-36.03-20.23-63.43-31.5-95z"/><path  d="M1823.351 362.999c9.2 7 18.35 10.67 28.03 15.39q3.87 1.9 7.22 6.78c-22.69-2.32-41.16-4.34-67.48-3.6q-.51.02-.1-.29 14.94-11.28 32.33-18.28zM1340.641 363.209q16.69 6.57 31.04 17.67 1.37 1.06-.36.98c-21.55-.96-43.41.79-64.97 3.31 5.16-6.01 10.72-8.34 18.52-11.67q7.17-3.06 15.77-10.29z"/><rect  x="1581.651" y="418.129" width="1.32" height="122.72" rx=".64"/><path  d="M1292.641 451.709c15.87-2.51 28.08-11.76 40.21-21.54 6.75-1.9 12.21-4.43 19.45-5.18a2.31 2.31 0 0 1 2.55 2.23q.04 1.35-.77 3.48-8.28 22-26.71 36.52c-6.71 5.29-20.83 13.29-27.7 3.92-3.88-5.3-5.59-13.1-7.03-19.43zM1831.371 429.569q8.37 5.88 16.78 11.84c7.9 5.6 14.52 8.39 23.45 10.34-2.83 18.58-11.18 31.57-31.16 17.85-13.18-9.05-28.06-25.95-30.88-42.25a1.24 1.23 58.3 0 1 .21-.91q1.48-2.1 4.58-1.45 9.55 2.03 17.02 4.58z"/><path  d="M1285.851 485.669q-.26-.01-.45.17a.5.5 0 0 0 0 .71q.69.68.94 1.66 1.34 5.2-.49 10.17l-5.02 33.12q-.1.63-.35.05-18.67-42.61-22.26-89.04-.25-3.16.76-.16 8.03 23.78 26.87 43.32zM1905.351 440.749q-3.14 47.16-21.76 90.57-.42.99-.55-.08l-4.12-32.9a.67.68 12.3 0 0-.31-.49q-.13-.08-.26-.1c-.53-.49-1.01-1.08-1.09-1.84q-.49-4.76-.33-9.46c11.21-11.5 20.18-25.07 25.93-40.11q1.1-2.86 2.49-5.59z"/><path  d="m1345.062 601.709-2.73 4.7a.29.29 0 0 0 .45.36c3.88-3.73 8.8-9.06 14.75-7.85a1.37 1.38 76.7 0 1 .8.49q3.92 4.99 5.73 11.05l-.44-.01a.39.39 0 0 0-.38.49c.44 1.71 1.34 3.4 1.55 5.09.95 7.61 1.52 15.91 3.94 22.79 7.66 21.8 31.44 33.29 53.37 36.37q22.51 3.16 43.76-.68 22.56 10.25 38.26 29.15c3.83 4.61 5.56 8.41 6.76 14.05q3.78 17.85 5.44 33.5.32 3.09 2.53 8.04 3.74 16.23 16.59 25.94c4.27 3.23 9.96 4.48 15.16 5.98.73.21 1.8 1.34 2.2 2.16q4.43 8.83 10.84 16.38-.99 34.4-30.3 49.73c-23.04 12.05-45.6 5.89-64.24-11.19q6.9-1.29 13.92-1.26a.89.9 74.3 0 1 .76.42c2.6 4.19 7.05 4.55 9.89.17a.55.55 0 0 0-.12-.73c-5.8-4.56-16.34-2.49-25.92-1.21l-4.28-4.39 23.81-.47q.55-.01 0-.07l-26.56-2.54c-.18-3.29-6.89-12.36-9-15.42l22.03.67a.46.45 7.7 0 1 .43.56l-.23.92a.96.94 27.6 0 0 .3.93q2.76 2.41 6.36 1.63a1.14 1.14 0 0 0 .87-.84l.64-2.52a.51.49 6.5 0 1 .49-.38l4.3-.03a.3.3 0 0 0 .07-.59c-6.2-1.54-13.83-1.87-18.5-2.4q-9.85-1.12-19.76-1.53l-2.75-5.92q16.72.7 32.99 4.69.48.11.03-.11c-10.04-4.96-25.62-6.68-36.77-8.16-.04-.5.06-.69-.21-1.16q-4.49-7.84-9.54-15.34 29.02 5.15 57.52 16.78a.85.86 71 0 0 .75-1.53c-18.5-10.47-39.29-16.18-61.52-20.25-1.43-5.22-12.48-13.94-17-17l-4.5-4.17 12.79 3.44q.47.13.17-.26-16.13-21.17-36.1-36.58c-9.19-7.09-19.61-14.98-25.53-19.82-21.37-17.42-39.57-41.4-48.14-67.93q-1.46-4.53-3.41-8.91c-4.25-48.02 25.54-86.48 69.85-101.44q26.19-8.85 52.09.71a.2.2 0 0 1-.08.38c-13.46-.87-25.27 2.7-36.81 9.48-16.81 9.89-31.48 23.69-39.86 41.42q-.2.43-.2.9c.02 1.63-5.46 8.42-8.51 12.59q-.46.63.03 1.04a.47.47 0 0 0 .64-.04q.23-.24.53-.27zm133.74 207.92c-2.59 4.07 3.64 5.64 6.35 5.62a1.03 1.03 0 0 0 .88-.52l2.31-4.06a.58.58 0 0 0-.25-.81c-3.15-1.53-7.33-3.32-9.29-.23zM1856.312 632.689q-4 18.8-12.04 33.7-14.03 25.99-38.07 45.9-11.55 9.57-23.24 18.98c-14.52 11.68-26.51 23.87-37.64 38.29a.37.37 0 0 0 .45.56q5.29-2.49 11.31-3.11l-5.04 4.86c-8.13 5.95-15.24 10-18.19 16.55-21.67 4.58-40.31 9.15-59.61 20.59a.41.41 0 0 0-.07.65l.26.25a.45.45 0 0 0 .46.1l2.75-1.01q.84-.31.49.52-.92 2.19.3 4.21a1.22 1.21 78.9 0 0 .84.57q4.9.83 7.37-3.36a.98.99 44.3 0 0-.01-1.03q-1.61-2.62-4.74-2.84-.65-.04-.04-.26 23.4-8.28 47.75-12.89l.37.14a.31.31 0 0 1 .14.47q-5.48 7.37-9.51 15.64c-11.12 1.41-24.27 2.44-34.56 7.05q-.47.21.04.1 15.81-3.47 31.98-4.11l-2.96 5.46q-11.48.83-28.56 2.73-1.41.15-2.19.6-3.27-.56-6.03 1.13-.49.31.09.35l4.19.27c-1.29 2.38 6.16 6.39 8.85.47a.87.87 0 0 1 .69-.51q10.21-1.33 20.46-1.21-3.97 8.42-9.5 15.92l-24.27 1.97q-.54.04-.01.17c6.66 1.58 16.05.27 23.03.19q-2.37 2.39-5.78 3.6c-6.51-.63-19.1-2.25-24.44 2.1a1.82 1.81 40.1 0 0 .26 2.99q6.26 3.52 9.03-3.08a1.12 1.11 13.5 0 1 1.11-.67l14.86 1.27q-10.21 8.21-14.35 10.74-23.53 14.39-48.23 3.04c-20.66-9.5-30.32-27.34-32.86-49.8a1.63 1.65 22.7 0 0-.34-.84l-.3-.39q6.71-8.23 10.9-17.97a.95.94 6.4 0 1 .7-.55q23.79-4.19 31.98-26.98c3.88-8.5 4.44-16.8 5.55-27.43q.86-8.23 4.36-22.83.94-3.93 2.97-6.57 16.97-22.09 43-33.05 18.42 3.68 37.07 1.64c28.38-3.11 56.36-17.87 61.16-48.67.85-5.51-.09-10.04 1.86-15.62q1.13-3.27 1.28-6.72c3.67-13.21 14.58-3.38 19.44 1.36.13.13.31.17.48.15a.18.18 0 0 0 .14-.23l-.35-.99q.44.02.71-.25a.64.64 0 0 0 .07-.82q-5.1-7.39-8.92-15.48c-10.41-22.1-28.5-38.74-50.87-48.22q-11.45-4.86-24.75-4.61-.51.01-.03-.16c34.61-12.69 74.42 4.09 96.92 30.37q24.03 28.08 21.83 66.61z"/><path  d="M1285.312 562.459q.87 28.08 6.67 54.58c4.92 22.53 13.58 42.9 26.33 64.17-3.32.81-3.53-1.18-5.15-3.1q-10.64-12.59-16.44-28.05a.64.62 78.7 0 0-.6-.41l-1.48.06c-7.61-27.16-11.68-54.83-10.36-82.54.07-1.62.78-3.04 1.03-4.71z"/><path fill="#362c32" d="m1446.851 571.499 7 3.5q13.48 8.16 21.7 17.01c27.26 29.4 42.03 78.88 38.21 118.91q-.05.5-.13 0-1.39-8.35-2.92-16.69c-2.24-12.14-6.32-22.14-19.81-23.53q-16.03-1.66-32.05.3-15.8.2-21.83-.38-41.17-3.93-63.19-38.41-3.01-4.72-9.77-21.75-1.81-6.06-5.73-11.05a1.37 1.38 76.7 0 0-.8-.49c-5.95-1.21-10.87 4.12-14.75 7.85a.29.29 0 0 1-.45-.36l2.73-4.7q5.9-9.72 14.94-16.62c25.07-19.15 57.24-24.87 86.85-13.59zm-66.79 57.21q1.84 4.09 3.85 6.68c24.82 32.04 78.43 43.11 100.86.33 3.46-4.91 5.18-9.68 2.45-15.42-8.32-17.49-21.94-33.81-40.11-41.6a.83.83 0 0 0-1.15.84l.39 4.13c-9.1 2.55-10.17 12.8-2 17.33q-4.48 14.62-12.5 27.67-.83.99-1.02 2.3a.52.52 0 0 1-.45.45l-.28.05a.21.22 72.3 0 1-.22-.11l-1.78-3.19c-9.62-17.06-14.36-36.58-8.24-55.68a.37.36 8.7 0 0-.35-.47c-16.34-.01-31.41 1.75-39.53 17.57q-10.09 19.65.08 39.12zM1821.351 605.249l.35.99a.18.18 0 0 1-.14.23.573.573 0 0 1-.48-.15c-4.86-4.74-15.77-14.57-19.44-1.36-5.72 14.31-10.07 27.61-20.83 39.23q-24.18 26.1-61.47 26.63-6.11.09-12.24.43-13.62-1.48-27.31-1.2c-26.93.55-25.22 20.85-28.87 40.19q-.09.49-.13-.01-2.23-24.77 3.67-48.62c8.57-34.63 24.36-67.9 55.93-86.9q3.71-1.08 7.27-3.45 13.57-4.88 23.74-5.45c30.06-1.7 64.96 11.58 79.95 39.44zm-141.96 32.21c24.36 39.14 73.26 30.78 99.23-.46q3.27-3.94 5.13-8.56c11.31-17.69 3.1-48.73-18.7-54.06q-9.82-2.4-20.98-2.05a.42.42 0 0 0-.38.58c.37.86.88 1.85 1.08 2.77 4.45 20.41-.47 37.18-10.78 54.62a.32.32 0 0 1-.54.02c-9.58-13.92-15.88-29.48-16.16-46.57-.03-1.54.62-3.37.71-5.05a.33.33 0 0 0-.45-.32c-17.89 7.02-30.59 22.75-39.79 39.09-4.61 8.2-2.79 12.7 1.63 19.99z"/><path  d="M1879.562 565.709c.1 3.04.8 6.2.81 9.01q.29 42.57-13.06 82.99-1.51.17-2.61-.89a.3.3 0 0 0-.49.13c-3.07 9.22-9.95 18.47-17.13 28.05a.31.3 49.1 0 1-.51-.04q-.64-1.12-1.93-1.5c22-33.21 31.41-69.75 34.08-109.6q.27-4.09.84-8.15z"/><path fill="#e28745" d="M1428.101 628.169q-.92.13-.6 2.15a.37.37 0 0 1-.61.33c-14.52-13.55-20.23-29.08-24.83-47.96a1.14 1.13 72.3 0 0-1.52-.79c-17.84 6.94-26.93 24.18-20.43 43.19q.16.46.12.94l-.17 2.68q-10.17-19.47-.08-39.12c8.12-15.82 23.19-17.58 39.53-17.57a.37.36 8.7 0 1 .35.47c-6.12 19.1-1.38 38.62 8.24 55.68zM1783.752 628.439q2.21-7.82 2.22-15.79c.01-14.52-7.83-24.74-21.36-29.93q-1.95-.75-3.22.08a1.12 1.12 0 0 0-.51.77q-3.31 19.81-14.5 36.43c-1.78 2.64-10.38 14.24-14.16 11.36q-12.53-9.54-19.85-24.07-2.32-4.59-4.71-9.24a1.67 1.67 0 0 0-1.73-.88c-6.7 1.02-17.04 12.18-20.94 17.5-5.09 6.93-7.03 12.88-4.71 21.02q.32 1.11-.89 1.77c-4.42-7.29-6.24-11.79-1.63-19.99 9.2-16.34 21.9-32.07 39.79-39.09a.33.33 0 0 1 .45.32c-.09 1.68-.74 3.51-.71 5.05.28 17.09 6.58 32.65 16.16 46.57a.32.32 0 0 0 .54-.02c10.31-17.44 15.23-34.21 10.78-54.62-.2-.92-.71-1.91-1.08-2.77a.42.42 0 0 1 .38-.58q11.16-.35 20.98 2.05c21.8 5.33 30.01 36.37 18.7 54.06z"/><path  d="m1520.312 759.209-1.46.04q-2.21-4.95-2.53-8.04-1.66-15.65-5.44-33.5c-1.2-5.64-2.93-9.44-6.76-14.05q-15.7-18.9-38.26-29.15l-7.01-3.51q16.02-1.96 32.05-.3c13.49 1.39 17.57 11.39 19.81 23.53q1.53 8.34 2.92 16.69.08.5.13 0c3.82-40.03-10.95-89.51-38.21-118.91q-8.22-8.85-21.7-17.01l.67-1.36a.57.57 0 0 1 .65-.3c2.54.64 4.91 1.25 7.63 1.55 58.92 6.44 76.57 60.22 74.51 110.91-.68 16.71-6.45 29.91-12.08 45.25-3.8 10.35-3.81 18.26-4.92 28.16zM1710.391 574.709c-31.57 19-47.36 52.27-55.93 86.9q-5.9 23.85-3.67 48.62.04.5.13.01c3.65-19.34 1.94-39.64 28.87-40.19q13.69-.28 27.31 1.2l-6.83 3.08q-26.03 10.96-43 33.05-2.03 2.64-2.97 6.57-3.5 14.6-4.36 22.83c-1.11 10.63-1.67 18.93-5.55 27.43l-.18-.35a.52.53 72.3 0 0-.55-.28l-.77.13.78-1.86q.19-.45.16-.95c-.6-9.4-.08-15.98-3.19-26.71q-1.48-5.13-6.92-18.78c-3.7-9.28-5.63-18.13-6.13-28.48-1.89-38.41 7.37-87.74 47.6-105.11q14.85-6.41 33.42-7.61.48-.03.92.15z"/><path fill="#e28745" d="M1484.772 635.719q.09-4.5-.43-8.9c-1.44-12.31-13.82-22.99-23.71-28.79-1.82-1.07-3.26-1.02-4.32.9-6.84 12.43-11.69 21.5-22.35 30.47a.69.71 41.4 0 1-.81.06l-1.3-.79q8.02-13.05 12.5-27.67c15.9 1.84 16.09-16.64 2-17.33l-.39-4.13a.83.83 0 0 1 1.15-.84c18.17 7.79 31.79 24.11 40.11 41.6 2.73 5.74 1.01 10.51-2.45 15.42z"/><path fill="#ecaf86" d="m1428.101 628.169 1.78 3.19a.21.22 72.3 0 0 .22.11l.28-.05a.52.52 0 0 0 .45-.45q.19-1.31 1.02-2.3l1.3.79a.69.71 41.4 0 0 .81-.06c10.66-8.97 15.51-18.04 22.35-30.47 1.06-1.92 2.5-1.97 4.32-.9 9.89 5.8 22.27 16.48 23.71 28.79q.52 4.4.43 8.9c-22.43 42.78-76.04 31.71-100.86-.33q-2.01-2.59-3.85-6.68l.17-2.68q.04-.48-.12-.94c-6.5-19.01 2.59-36.25 20.43-43.19a1.14 1.13 72.3 0 1 1.52.79c4.6 18.88 10.31 34.41 24.83 47.96a.37.37 0 0 0 .61-.33q-.32-2.02.6-2.15zM1783.752 628.439q-1.86 4.62-5.13 8.56c-25.97 31.24-74.87 39.6-99.23.46q1.21-.66.89-1.77c-2.32-8.14-.38-14.09 4.71-21.02 3.9-5.32 14.24-16.48 20.94-17.5a1.67 1.67 0 0 1 1.73.88q2.39 4.65 4.71 9.24 7.32 14.53 19.85 24.07c3.78 2.88 12.38-8.72 14.16-11.36q11.19-16.62 14.5-36.43a1.12 1.12 0 0 1 .51-.77q1.27-.83 3.22-.08c13.53 5.19 21.37 15.41 21.36 29.93q-.01 7.97-2.22 15.79z"/><path fill="#fcfcfd" d="M1446.351 583.669c14.09.69 13.9 19.17-2 17.33-8.17-4.53-7.1-14.78 2-17.33z"/><path  d="M1801.641 604.959q-.15 3.45-1.28 6.72c-1.95 5.58-1.01 10.11-1.86 15.62-4.8 30.8-32.78 45.56-61.16 48.67q-18.65 2.04-37.07-1.64l6.83-3.08q6.13-.34 12.24-.43 37.29-.53 61.47-26.63c10.76-11.62 15.11-24.92 20.83-39.23zM1364.062 610.459q6.76 17.03 9.77 21.75 22.02 34.48 63.19 38.41 6.03.58 21.83.38l7.01 3.51q-21.25 3.84-43.76.68c-21.93-3.08-45.71-14.57-53.37-36.37-2.42-6.88-2.99-15.18-3.94-22.79-.21-1.69-1.11-3.38-1.55-5.09a.39.39 0 0 1 .38-.49z"/><path  d="M1856.312 632.689c-1.02 21.06-8.14 40.43-18.14 58.99q-5.84 9.06-13.8 16.56c-20.81 19.62-44.03 36.89-64.26 56.47q-1.64 1.58-3.03 2.3-6.02.62-11.31 3.11a.37.37 0 0 1-.45-.56c11.13-14.42 23.12-26.61 37.64-38.29q11.69-9.41 23.24-18.98 24.04-19.91 38.07-45.9 8.04-14.9 12.04-33.7zM1407.601 766.999l-.3-.05a.82.8 70.2 0 1-.39-.19q-19.42-17.95-28.01-24.84c-20.61-16.52-36.26-28.8-50.6-46.63q-.86-1.06-1.45-2.29l.26-.17a.25.25 0 0 0 .08-.34q-16.13-25.5-19.81-55.55 1.95 4.38 3.41 8.91c8.57 26.53 26.77 50.51 48.14 67.93 5.92 4.84 16.34 12.73 25.53 19.82q19.97 15.41 36.1 36.58.3.39-.17.26z"/><path  d="m1318.312 681.209 8.54 11.79q.59 1.23 1.45 2.29c14.34 17.83 29.99 30.11 50.6 46.63q8.59 6.89 28.01 24.84a.82.8 70.2 0 0 .39.19l.3.05 4.5 4.17c-6.32 1.58-9.55 8.7-11.25 14.25l-14.95-.31a1.06 1.06 0 0 1-.8-.39q-5.99-7.46-12.51-14.5c-15.06-16.29-28.31-30.44-43.38-50.13q-24.28-31.73-34.57-70.38l1.48-.06a.64.62 78.7 0 1 .6.41q5.8 15.46 16.44 28.05c1.62 1.92 1.83 3.91 5.15 3.1zM1867.312 657.709q-9.23 30.15-26.8 55.16c-17.57 25.02-39.66 47.73-60.28 71.03a1.22 1.2 18.9 0 1-.83.4l-18.05.87c.09-7.25-3.95-9.65-9.31-13.3l5.04-4.86q1.39-.72 3.03-2.3c20.23-19.58 43.45-36.85 64.26-56.47q7.96-7.5 13.8-16.56l6.47-8.22q1.29.38 1.93 1.5a.31.3 49.1 0 0 .51.04c7.18-9.58 14.06-18.83 17.13-28.05a.3.3 0 0 1 .49-.13q1.1 1.06 2.61.89z"/><path  d="M1620.891 761.809c-10.04-4.23-21.57-.88-32.04 1.17-14.98 2.94-31.23-8.51-45.14-1.28q-7.48-34.4 9.32-63.56 5.68-9.86 11.61-14.13c10.25-7.39 25.63-7.73 36.07-.51 10.32 7.13 17.58 22.98 20.97 35.4q5.93 21.74-.79 42.91z"/><path  d="M1563.062 790.249c-3.8-3.27-5.17-6.29-10.78-6.7q-4.57-.33-9.9.23c-5.76.61-4.84-2.39-4.75-6.52.2-9.9 9.77-15.5 18.97-15.01q11.18.58 19.27 3.16c3.24 1.03 3.95 4.15 4.09 7.5q.95 22.69-.19 45.37-.03.65-.55.26-9.58-7.2-18.03-15.65a1.63 1.62 42.4 0 1-.1-2.19l4-4.8a1.29 1.27 64.8 0 0 .31-.89q-.1-2.83-2.34-4.76zM1617.022 783.349c-10.18-1.45-11.82 3.61-18.5 9.3a1.94 1.94 0 0 0-.42 2.45q1.7 2.95 4.68 4.75a1.41 1.4 36.6 0 1 .32 2.14q-8.15 9.15-18.06 16.42a.43.43 0 0 1-.68-.33q-.77-18.25-.57-36.37.11-9.86 1.02-12.79c1.86-6.02 21.5-6.38 26.81-6.2 10.43.37 14.8 8.86 16 18.12a1 .99 64.6 0 1-.3.86c-2.64 2.56-6.93 2.14-10.3 1.65z"/><path  d="M1412.101 771.169c4.52 3.06 15.57 11.78 17 17l-28.25-2.75c1.7-5.55 4.93-12.67 11.25-14.25zM1752.042 771.869c5.36 3.65 9.4 6.05 9.31 13.3l-27.5 3.25c2.95-6.55 10.06-10.6 18.19-16.55z"/><path  d="m1748.032 809.539 12.13-19.48a1.18 1.16 62 0 0 .19-.64v-.42c5.74-.89 11.51-.87 17.16-2.16q.49-.11.17.27c-6.14 7.23-11.83 14.82-17.79 22.19a1.01 1.01 0 0 1-.8.37z"/><path fill="#fcfcfd" d="M1864.351 792.749q-.3 1.56-2.76 1.2-6.91-1.01-17.31-1.46c-12.54-.53-24.21-1.66-36.24-2.13a.77.77 0 0 0-.27 1.5q20.64 6.69 41.34 12.8c7.55 2.23 17.03 5.81 25.56 7.95q1.61.4 1.68 1.81-45.13-12.39-57.24-15.47-19.08-4.85-40.45-4.81-.39 0-.15-.31l4.73-6.16a.97.96 17.7 0 1 .75-.38c26.73-.6 53.92 1.69 80.36 5.46z"/><path  d="M1402.851 788.499c4.34 6.86 8.5 13.64 12.79 20.46-2.92.55-6.67-1.65-8.91.33a1.2 1.21 51 0 1-1.77-.18q-8.12-10.91-17.03-21.19-.35-.4.19-.41 7.43-.06 14.73.99z"/><path fill="#fcfcfd" d="m1299.641 813.709-.14-.41a.55.55 0 0 1 .31-.69q1.5-.64 5.59-1.85 13.03-3.85 36.59-11.83c7.62-2.58 15.74-4.78 23.63-7.24a.29.29 0 0 0-.06-.57q-8.15-.87-16.29-.25c-11.7.89-23.42 1.47-35.11 2.43a.28.29 88.1 0 1-.31-.28v-.31a.32.32 0 0 1 .17-.28l.83-.43q33.33-4.31 66.98-3.99a1.23 1.23 0 0 1 .92.44l4.9 6.08q.41.51-.24.51-16.05-.08-31.56 3.64-27.47 6.59-54.52 14.72-.83.25-1.69.31z"/><path  d="M1402.851 788.499q14.92 1.29 29.5 4.67 5.05 7.5 9.54 15.34c.27.47.17.66.21 1.16l-26.46-.71c-4.29-6.82-8.45-13.6-12.79-20.46zM1760.351 788.999v.42a1.18 1.16 62 0 1-.19.64l-12.13 19.48-27.43.63q4.03-8.27 9.51-15.64a.31.31 0 0 0-.14-.47l-.37-.14q15.17-3.73 30.75-4.92z"/><path fill="#fcfcfd" d="m1877.351 815.499-.18.59a.59.59 0 0 1-.69.4q-15.29-3.45-30.78-5.86c-5.04-.78-10.7-2.63-16.29-3.32-3.89-.47-7.94-1.91-12.14-2.13a.49.49 0 0 0-.26.92c2.79 1.46 6.11 1.69 8.71 2.72 11.32 4.44 24.03 7.84 39.21 12.26q.91.27 1.13 1.63c-32.14-9.29-61.61-19.06-95.71-17.88q-.56.02-.21-.41l5.46-6.72q.57-.7.77.18l.18.77a.67.67 0 0 0 .65.52c7.74.06 15.79-.15 23.15.48q14.61 1.25 26.93 3.91 19.18 4.13 50.07 11.94zM1308.961 822.229q17.84-8.24 32.89-11.26 5.34-1.08 7.52-2.19a.84.86 73.2 0 0 .47-.86l-.08-.61a.7.7 0 0 0-.62-.61c-2.17-.21-3.78-.35-5.99.11q-20.41 4.22-40.82 8.4a.37.37 0 0 1-.43-.46l.2-.75c19.12-4.75 42.62-10.7 64.19-13.13 7.66-.86 16.43-.9 24.67-1.34a1.02 1.02 0 0 1 .86.39l3.54 4.54q.4.52-.26.52-19.84.07-38.25 4.27-22.71 5.19-47.89 12.98z"/><path fill="#362c32" d="M1485.151 815.249c-2.71.02-8.94-1.55-6.35-5.62 1.96-3.09 6.14-1.3 9.29.23a.58.58 0 0 1 .25.81l-2.31 4.06a1.03 1.03 0 0 1-.88.52z"/><path fill="#fcfcfd" d="M1869.351 824.499q-.39 1.76-2.02.93c-1.66-.83-2.17-.55-3.67-.85q-27.71-5.56-55.82-8.56c-2.36-.25-5.19-1.11-7.94-1.43a.41.4 68.7 0 0-.31.71l1.32 1.12q.34.29.76.45 26.69 9.87 51.96 22.96 7.6 3.94 15.46 7.42a.45.44 30.5 0 1 .18.67q-.23.33-.67.33-28.85-13.09-58.37-24.59c-15.44-6.01-29.4-10.63-44.87-12.86a.36.36 0 0 1-.26-.53q.83-1.49 2-1.58 10.79-.81 25.83.62c26.33 2.52 50.84 8.11 76.42 15.19zM1305.601 848.749q-.44 0-.73-.42a.51.51 0 0 1 .19-.74c18.49-9.19 37.07-18.84 56.12-26.83q5.72-2.4 11.22-5.3.45-.24-.05-.34-2.03-.43-3.49-.12c-12.16 2.53-25.82 3.26-36.53 5.16q-12.03 2.14-24.05 4.84a.77.77 0 0 1-.94-.78l.01-.47c29.55-7.69 59.33-14.62 90.55-14.35a1.17 1.16 70.2 0 1 .9.43l2.29 2.78a.34.34 0 0 1-.2.55q-16.98 3.17-33.08 9.29-31.59 12.02-62.21 26.3z"/><path  d="M1563.641 809.709c5.15 5.63 11.71 12.03 13.37 19.29 4.83 21.13-7.48 33.14-25.19 41.14-16.99 7.67-37.26 11.53-55.59 7.47-17.48-3.88-32.74-13.79-46.89-24.45q-.42-.32.1-.44l19.66-4.47c18.64 17.08 41.2 23.24 64.24 11.19q29.31-15.33 30.3-49.73zM1600.812 809.709l.3.39a1.63 1.65 22.7 0 1 .34.84c2.54 22.46 12.2 40.3 32.86 49.8q24.7 11.35 48.23-3.04 4.14-2.53 14.35-10.74 10.7 1.23 21.23 3.67.49.11.1.43c-12.52 10.07-26.88 19.18-42.47 24.3-25.73 8.46-57.79 2.16-78.97-15.06-8.73-7.09-10.84-16.53-10.1-27.34.64-9.42 7.8-16.93 14.13-23.25z"/><path  d="m1741.601 819.669 5.11-7.09 9.99-.38q.56-.02.18.38l-7.11 7.73a1.01 1.01 0 0 1-.86.32zM1417.601 812.749q2.93 3.66 4.62 8.22l-6.25.99a.99.97 65.8 0 1-.92-.36l-6.8-8.53q-.41-.51.24-.49z"/><path  d="m1746.711 812.579-5.11 7.09-26.5-1 2.96-5.46q14.16-1.1 28.65-.63zM1417.601 812.749q14.14-.36 28.25.5l2.75 5.92-26.38 1.8q-1.69-4.56-4.62-8.22z"/><path fill="#fcfcfd" d="m1868.851 849.499 3.54 1.71q.06.28-.01.52a.5.5 0 0 1-.66.34q-14.73-5.66-29.35-11.57-5.98-2.42-12.22-4.06a1.66 1.57 42.2 0 0-.9.02l-.87.25q-.47.15-.01.31c5.91 2.14 9.06 4.73 13.88 6.76.94.4 1.27 1.25 2.14 1.66q9.35 4.4 18.26 9.62-7.73-2.84-15.2-6.23c-29.18-13.22-57.93-23.73-89.62-28.11q-.66-.09-.24-.61l3.18-3.95a.96.94 22.4 0 1 .87-.35c36.42 4.73 74.54 19.08 107.21 33.69zM1315.601 854.999q-.28-1.57 1.29-2.28c4.78-2.13 9.44-4.71 14.17-6.62q11.24-4.56 22.13-9.9a.55.55 0 0 0 .26-.71c-1.09-2.39-13.64 6.04-15.4 5.19a.8.78 14.5 0 1-.45-.74v-.26a.3.31 81.5 0 0-.41-.3l-30.82 11.14a.61.61 0 0 1-.76-.31q-.12-.25-.05-.5 47.74-21.03 98.54-32.85a.79.77 63.6 0 1 .78.27l4.38 5.34a.25.24 65.1 0 1-.14.4c-32.73 5.8-63.8 18.19-93.52 32.13z"/><path  d="m1684.351 821.999-1.75 1.75-4.19-.27q-.58-.04-.09-.35 2.76-1.69 6.03-1.13zM1740.121 823.459q-3.2 6.21-8.35 11.36a1.06 1.05 39.8 0 0 .15 1.61l.26.18a.5.5 0 0 0 .73-.17q1.19-2.15 3.53-1.51l-3.35 3.42a1.12 1.13 24 0 1-.87.34q-14.55-.82-29.12-.27 5.53-7.5 9.5-15.92 13.43-.6 27.52.96zM1451.601 822.749c2.11 3.06 8.82 12.13 9 15.42l-23.97 1.72c-1.5.1-2.9 1.32-4.32-.43l2.17-.79a.33.32 62.7 0 0 .15-.5c-2.73-3.88-8.64-11.42-8.78-13.67q12.83-1.64 25.75-1.75z"/><path  d="m1740.121 823.459 6.4.23q.55.02.17.42l-10.25 10.82q-2.34-.64-3.53 1.51a.5.5 0 0 1-.73.17l-.26-.18a1.06 1.05 39.8 0 1-.15-1.61q5.15-5.15 8.35-11.36zM1425.851 824.499c.14 2.25 6.05 9.79 8.78 13.67a.33.32 62.7 0 1-.15.5l-2.17.79q-7.31-6.71-13.64-14.37-.32-.38.18-.39z"/><path fill="#fcfcfd" d="M1863.841 856.889q.06.22.01.45a.67.67 0 0 1-.9.5q-21.32-8.28-43.46-13.42c-8.2-1.9-16.87-4.63-25.44-6.45a.26.26 0 0 0-.18.48q24.74 14.18 46.64 31.62 11.23 8.94 16.91 14.54c-23.7-16.85-47.95-34.16-73.12-45.87q-15.99-7.43-35.7-7.07-.71.01-.24-.53l3.94-4.57a1.09 1.11 23.1 0 1 .93-.38c37.6 2.86 76.06 15.33 110.61 30.7zM1316.601 887.499q-.49-.88.56-1.72c5.34-4.25 10.31-8.11 15.79-12.92q7.03-6.16 14.53-11.73c12.44-9.25 23.06-16.91 36.17-23.09a.23.22 58.2 0 0 .08-.35c-.19-.23-.21-.21-.48-.12q-6.21 1.97-20.58 5.49-12.83 3.14-45.45 13.27a.78.78 0 0 1-.83-.26q-.18-.23-.29-.57c31.19-12.8 62.77-23.05 96.12-28.56a.84.87 65.3 0 1 .79.28l3.33 3.7a.4.4 0 0 1-.21.66q-19.98 4.35-38.6 15.08-32.86 18.94-60.93 40.84z"/><path fill="#fcfcfd" d="M1854.601 883.749q.03.23-.01.44a.64.63 22.2 0 1-.99.41q-28.1-19.61-59.72-32.79a.74.74 0 0 0-.68 1.3c4.22 2.68 44.57 30.04 42.86 32.85-28.79-21.58-57.46-39.14-91.45-50.01a.39.4 24.9 0 1-.21-.59c.67-1.06 1.45-1.52 2.78-1.3 39.79 6.4 75.01 26.28 107.42 49.69zM1340.351 887.999q-.71-1.04.56-2c7.53-5.71 14.42-12.53 21.96-17.74q9.99-6.9 19.89-13.95.42-.3-.08-.45c-1.71-.53-8.83 3.49-12.62 5.08-12.53 5.27-26.62 12.67-38.95 20.91q-5.91 3.95-12.2 7.28c29.52-22.63 64.78-41.73 100.95-50.99a.84.84 0 0 1 .81.23l4.62 4.69q.42.42-.15.57c-29.78 7.63-61.01 27.68-84.79 46.37z"/><path  d="m1701.851 840.749 25.84 1.61q.56.03.13.4l-6.45 5.53a1.06 1.04 28.9 0 1-.86.24l-24.44-4.18q3.41-1.21 5.78-3.6zM1463.351 841.249l4.28 4.39-21 5.24a.94.93 59.2 0 1-.88-.23l-7.4-7.06q-.33-.32.13-.38 12.4-1.55 24.87-1.96z"/><path fill="#fcfcfd" d="M1835.101 886.249c-.37.8-.87.87-1.6.41q-11.41-7.15-15.58-9.02c-15.56-6.96-31.65-14.58-47.9-19.7a.75.75 0 0 0-.6 1.37q18.6 10.76 35.23 25.1 14.03 12.1 21.61 21.2c-26.59-24.88-59.26-47.34-95.07-56.03a.2.2 0 0 1-.1-.34l6.22-6.19a.88.89 28.5 0 1 .81-.24c34.33 7.14 68.4 23.42 96.98 43.44zM1345.812 912.959q-.42-.04-.52-.4a.9.87 60.6 0 1 .23-.87c10.08-10.03 20.64-21.14 31.19-29.45 15.3-12.04 35.35-25.18 53.67-29.19a.42.42 0 0 0-.01-.83c-1.34-.26-3.03-.47-4.38-.06-28.9 8.93-58.71 20.23-85.89 37.8q-.48.31-1.04-.25 41-30.2 90.22-43.48a.88.89 59.2 0 1 .84.21l7.04 6.68a.34.34 0 0 1-.12.57c-35.03 12.85-63.22 32.47-91.23 59.27z"/><path  d="M1869.101 848.499c1.42.57 14.29 6.05 14.24 6.67a.25.26 12.9 0 1-.34.22l-10.61-4.18-3.54-1.71z"/><path  d="m1630.101 921.669-.4-1.61a1.12 1.07 56 0 1 .15-.86c15.22-22.71-26.47-48.22-43.4-51.66-5.31-1.07-11.16.34-17.41 3.08-13.81 6.08-34.05 19.57-37.49 35.34-1.07 4.92.85 9.64 3.04 13.97a1.15 1.18 39.2 0 1 .08.88l-.32 1.11q-27.21-11.49-43.12-36.24-.27-.42.22-.36c30.33 3.75 61.62-9.32 85.72-27.54q2.95-2.23 5.12-5.24a.37.36 44.6 0 1 .59 0c1.32 1.74 2.49 3.22 4.24 4.61 21.99 17.32 57.18 34.45 85.83 27.76a.31.31 0 0 1 .34.46q-15.54 25.15-43.19 36.3z"/><path fill="#fcfcfd" d="M1837.601 917.419q-1.62.15-2.25-.46c-28.76-28-67.17-50.09-106.68-58.62a.91.93 29.1 0 0-.85.25q-18.25 18.13-41.28 27.06-1.47.57-1.92 1.33-18.11 30.44-51.27 43.28-55.67 21.55-109.54-3.28c-18.17-8.37-33.08-21.26-42.92-38.82-.68-1.21-.9-1.69-2.26-2.23q-18.45-7.3-33.82-19.83c-1.23-1.01-2.8-1.98-3.75-3.5a1.09 1.1 64.5 0 0-1.28-.45c-36.27 12.27-70.73 31.05-98.31 57.38a.5.5 0 0 1-.74-.05q-.15-.18-.17-.52c28.01-27.2 61.02-49.57 98.52-61.54q.47-.15.82-.51.88-.89 1.93.06 18.4 16.74 41.02 25.58a1.41 1.43 87 0 1 .7.62q14.15 25.67 39.81 38.03 54.66 26.35 110.54 3.34 30.63-12.62 47.24-41.85a1.43 1.4 4.2 0 1 .72-.61c17.37-6.48 30.87-16.36 44.61-28.76a1.02 1.02 0 0 1 .88-.24c43.02 8.69 79.72 34.28 110.25 64.34z"/><path  d="M1630.101 921.669q-47.83 21.63-95.75.25l.32-1.11a1.15 1.18 39.2 0 0-.08-.88c-2.19-4.33-4.11-9.05-3.04-13.97 3.44-15.77 23.68-29.26 37.49-35.34 6.25-2.74 12.1-4.15 17.41-3.08 16.93 3.44 58.62 28.95 43.4 51.66a1.12 1.07 56 0 0-.15.86z"/><path  d="m1838.101 917.459 3.57 3.23q.41.37-.06.07-2.05-1.3-3.51-3.3z"/></g></svg>