<svg width="1122.52" height="297mm" viewBox="0 0 297 297" xml:space="preserve" xmlns="http://www.w3.org/2000/svg"><g transform="matrix(.26458 0 0 .26458 -360.333 -26.42)"><g stroke-width="2" fill="none"><path stroke="#f1e8db" vector-effect="non-scaling-stroke" d="m1777.67 328.305-.08 2"/><path stroke="#7e786f" vector-effect="non-scaling-stroke" d="m1777.59 330.305-.59-.32q-.44-.24-.94-.24c-20.63-.1-39.77 8.3-57.49 18.46q-27.24 15.61-54.27 31.57c-13.73 8.11-26.69 17.24-39.74 26.28-15.89 11-27.74 19.44-39.93 31.99q-4.62 4.74-7.83 10.56a.68.67 23.3 0 0 .39.97c.77.25 6.1-5.93 6.94-6.81"/><path stroke="#dfd5c7" vector-effect="non-scaling-stroke" d="M1584.13 442.765q1.55.35 2.29 1.79"/><path stroke="#7e786f" vector-effect="non-scaling-stroke" d="M1586.42 444.555c-8.34 5.15-16.23 11.92-19.63 21.46a.59.59 0 0 0 .67.77c1.15-.23 5.22-6.46 6.42-7.77"/><path stroke="#dfd5c7" vector-effect="non-scaling-stroke" d="M1573.88 459.015q1.09.6 1.29 1.79"/><path stroke="#7e786f" vector-effect="non-scaling-stroke" d="M1575.17 460.805c-9.19 8.19-17.32 24.54-15.3 36.97 1.31 8.1 6.99 6.13 11.48 2.01q5.86-5.41 11.96-10.65a1.06 1.05-58.7 0 1 .88-.22q13.79 2.83 18.68 16.66 4.46 12.62 5.81 23.57a1.37 1.36-31.7 0 1-.22.92c-10.35 15.91-21.58 32.24-29.15 49.17q-4.11 9.18-11.88 28.75c-.98 2.47-4.67 11.87-1.55 12.36"/><path stroke="#f1e8db" vector-effect="non-scaling-stroke" d="m1565.88 620.345.17.64a1.2 1.22 6 0 0 .57.72q1.35.73 2.05 2.1"/><path stroke="#7e786f" vector-effect="non-scaling-stroke" d="M1568.67 623.805q-3.45 4.45-5.15 9.79a.42.41 10.9 0 0 .37.54q1.55.1 2.2-1.58"/><path stroke="#f1e8db" vector-effect="non-scaling-stroke" d="M1566.09 632.555c2.85 1.07 3.09-1.82 5.59-1.54a.75.74-75.5 0 1 .6 1.03l-4.12 9.94"/><path stroke="#7e786f" vector-effect="non-scaling-stroke" d="M1568.16 641.985q-3.64 3.17-4.67 7.41c-2.66 10.9-5.51 20.6-5.86 31.16-.93 27.87 3.16 57.94 16.04 82.95q.56 1.09 1.91 1.45a.32.32 0 0 0 .39-.4l-.88-3.25"/><path stroke="#bfb5a9" vector-effect="non-scaling-stroke" d="M1575.09 761.305q.17-1.39 1.33-2.25"/><path stroke="#f1e8db" vector-effect="non-scaling-stroke" d="M1576.42 759.055q.63 1.82 2.42 2"/><path stroke="#7e786f" vector-effect="non-scaling-stroke" d="m1578.84 761.055-1.39 4.31a1.31 1.31 0 0 1-.61.74q-22.81 12.58-44.15 27.52-1.36.95-2.39 2.33-.31.42.13.14c15.25-9.66 30.29-19.66 46.3-28.08q.44-.23.35.26c-.56 3.17-1.16 12.04 1.32 14.45a.46.45 38.9 0 0 .69-.07l.25-.35"/><path stroke="#f1e8db" vector-effect="non-scaling-stroke" d="m1579.34 782.305 5 1.25"/><path stroke="#7e786f" vector-effect="non-scaling-stroke" d="M1584.34 783.555c2.92 20.04 16.98 41.25 30.54 55.66a.57.56 43.4 0 1 .03.75c-29.35 34.97-58.67 70.68-72.15 115.17q-4.25 14.02-2.94 28.15.03.36.35.45a.41.41 0 0 0 .53-.4c-.44-31.44 17.1-65.2 35.14-90.08q19.36-26.71 40.5-52.04a.54.54 0 0 1 .73-.1q7.96 5.6 16.22 10.72c1.83 1.13 3.97 2.4 3.43 4.71q-2 8.65-2.77 17.65a.83.82-.9 0 0 .92.89q.86-.1 1.26-.57"/><path stroke="#f1e8db" vector-effect="non-scaling-stroke" d="m1636.13 874.515 3.21 1.54"/><path stroke="#7e786f" vector-effect="non-scaling-stroke" d="M1639.34 876.055c-.38 1.29-1.37 7.7.03 8.34a.46.46 0 0 0 .64-.29l1.08-3.8"/><path stroke="#f1e8db" vector-effect="non-scaling-stroke" d="M1641.09 880.305q1.15 1.59 3.04 1.04"/><path stroke="#7e786f" vector-effect="non-scaling-stroke" d="M1644.13 881.345q-3.46 11.86.64 23.42a.95.97-2.6 0 0 .65.61l.67.18"/><path stroke="#f1e8db" vector-effect="non-scaling-stroke" d="M1646.09 905.555q-.55.97.28 1.51a.98.97-76.1 0 1 .44.74c.33 4.01 1.03 11.23 3.1 14.67a.68.68 0 0 0 1.08.12l5.25-5.42a.68.67-30 0 1 1.14.3q.53 2.14 2.46 2.83"/><path stroke="#7e786f" vector-effect="non-scaling-stroke" d="M1659.84 920.305q-2.77 12.07 4.39 22.03.72 1 .85-.23l.09-.8"/><path stroke="#f1e8db" vector-effect="non-scaling-stroke" d="M1665.17 941.305q.61.71 1.34.48a1.11 1.15 5.3 0 0 .69-.59q1.07-2.2 3.64-1.64"/><path stroke="#7e786f" vector-effect="non-scaling-stroke" d="M1670.84 939.555c.4 2.32 4.08 14.76 8 13.5"/><path stroke="#f1e8db" vector-effect="non-scaling-stroke" d="M1678.84 953.055q2.15 1.12 3.58-.75"/><path stroke="#7e786f" vector-effect="non-scaling-stroke" d="M1682.42 952.305q1.89 4.71 5.76 8.44a1.24 1.23-53.6 0 0 1.94-.3q.41-.76-.49-1.85"/><path stroke="#f1e8db" vector-effect="non-scaling-stroke" d="m1689.63 958.595 3.79-3.54"/><path stroke="#7e786f" vector-effect="non-scaling-stroke" d="M1693.42 955.055q1.23 4 4.65 8.81 3.15 4.44 7.6 5.44"/><path stroke="#f1e8db" vector-effect="non-scaling-stroke" d="m1705.67 969.305 6.26-.98a1.11 1.08 11 0 0 .75-.49c2.41-3.63 2.27-10.03 3-14.19a.61.61 0 0 1 1.12-.2c11.42 19.16 34.25 31.18 54.56 38.41 21.95 7.81 44.75 12.69 68 14.08q15.98.97 21.27.91 50.51-.51 88.57-4.93 31.83-3.7 41.37-5.89 24.22-5.57 48.37-11.39 19.95-4.81 63.44-11.37 4.85-.73 8.64-2.5"/><path stroke="#7e786f" vector-effect="non-scaling-stroke" d="m2111.02 970.765 1.61-.42"/><path stroke="#f1e8db" vector-effect="non-scaling-stroke" d="m2112.63 970.345.5.96a.73.73 0 0 0 .76.39c12.67-1.76 20-3.63 31.45-7.83 10.34-3.79 18.23-8.79 26.47-15.4q6.82-5.48 12.8-12.03"/><path stroke="#7e786f" vector-effect="non-scaling-stroke" d="M2184.61 936.435c13.41 12.71 27.19 25.54 42.14 36.31q.41.3.03-.05c-13.71-12.5-27.71-24.53-41.15-37.35"/><path stroke="#f1e8db" vector-effect="non-scaling-stroke" d="m2185.63 935.345.95-.34a.13.12 70.9 0 0 .07-.16l-.12-.28a.64.63 50.5 0 1 .05-.57c1.27-2.09 3.6-6.25 5.76-7.35q.93-.47 1.75-1.09"/><path stroke="#7e786f" vector-effect="non-scaling-stroke" d="m2194.09 925.555-.23 2.43a.5.5 0 0 0 .52.54c2.3-.15 4.25-8.01 4.71-9.97"/><path stroke="#f1e8db" vector-effect="non-scaling-stroke" d="M2199.09 918.555q1.52.53 2.49-.6a.83.83 0 0 1 .8-.27q1.65.34 2.55-.86"/><path stroke="#7e786f" vector-effect="non-scaling-stroke" d="M2204.93 916.825q2.39-2.58 3.2-5.77c3.91-15.29 3.45-30.7-6.3-43.77a.66.66 0 0 1 .25-.99c18.73-8.75 33-22.45 45.51-39.4a.49.48-52.3 0 1 .69-.09c16.8 13.32 29.49 27.16 37.72 47.06q7.2 17.43 11.99 34.91a.27.27 0 0 0 .53-.11c-4.57-26.05-14.9-51.21-33.24-69.52q-6.56-6.55-15.87-13.75a.54.53-54.4 0 1-.11-.72q5.11-7.4 9.41-15.29 5.2-9.54 6.39-20.3"/><path stroke="#f1e8db" vector-effect="non-scaling-stroke" d="m2265.1 789.085 4.46-9.3"/><path stroke="#7e786f" vector-effect="non-scaling-stroke" d="M2269.56 779.785q3.84-.83 2.61-5.73"/><path stroke="#f1e8db" vector-effect="non-scaling-stroke" d="m2272.17 774.055 2.75.25"/><path stroke="#7e786f" vector-effect="non-scaling-stroke" d="M2274.92 774.305h.68a1.28 1.27 22.7 0 0 .89-.36q5.68-5.57 8.92-12.9a.54.54 0 0 1 .75-.26c27.21 14.36 51.32 33.81 68.46 59.61q.32.49.49-.07c.07-.22-.04-1.23-.19-1.47-15.44-25.49-41.96-45.75-68.03-59.36a.56.56 0 0 1-.27-.69q12.81-33.57 14.74-69.51c1.07-19.84-2.4-47.14-13.98-64.2"/><path stroke="#f1e8db" vector-effect="non-scaling-stroke" d="M2287.38 625.095q1.6-1.22.74-3.09a.57.56 60.3 0 1 .19-.71q1.29-.89.38-1.82"/><path stroke="#7e786f" vector-effect="non-scaling-stroke" d="M2288.69 619.475c2.15-2.51-3.31-7.85-5.06-9.63"/><path stroke="#f1e8db" vector-effect="non-scaling-stroke" d="M2283.63 609.845q2.03-.89 1.35-3.37"/><path stroke="#7e786f" vector-effect="non-scaling-stroke" d="M2284.98 606.475q-2.15-10.98-7.85-20.63"/><path stroke="#f1e8db" vector-effect="non-scaling-stroke" d="m2277.13 585.845.5-.65a.63.63 0 0 0 0-.78q-3.41-4.29-6.2-10.41-4.81-10.6-12.43-22.6"/><path stroke="#7e786f" vector-effect="non-scaling-stroke" d="m2259 551.405.34-.21a.48.48 0 0 0 .11-.72c-11.79-13.61-19.59-24.8-24.97-42.11-.51-1.67-.35-3.56-.57-5.35-2.48-20.84 14.36-40.59 30.81-50.72a1.7 1.66 29.1 0 1 .92-.25q8.24.11 16.34 1.54c4.07.73 11.83 1.1 14.73-2.61a1.18 1.16 60.6 0 0 .24-.89c-2.13-14.49-12.67-24.74-24.3-32.77q-1.66-1.14-3.31-3.25c-4.46-5.65-12.9-9.85-19.33-12.83-28.43-13.19-51.62-27.35-82.68-44.2q-18.72-10.16-37.17-20.83c-11.31-6.54-20.59-10.47-32.32-13.38q-.5-.13-.1-.46 28.2-22.87 60.96-38.55.49-.24.03-.54c-1.11-.71-17.88 7.69-19.98 8.85q-23.18 12.83-43.35 30a1.19 1.17 27.5 0 1-.88.27c-8.56-.94-16.92-1.22-25.52-1.57-16.76-.68-36.73-8.97-52.44-13.45q-56.57-16.12-115.9-8.79a.85.84 13.6 0 0-.57.34q-1.02 1.4.84 1.09"/><path stroke="#dfd5c7" vector-effect="non-scaling-stroke" d="M1900.93 300.015q2.03 1.68-.8 2.33"/><path stroke="#7e786f" vector-effect="non-scaling-stroke" d="M1900.13 302.345q-12.24-4.4-24.52-.79-17.35 5.1-37.27 12.5-2.71 1.01-6.26.55a1.18 1.15 28.7 0 0-.9.25q-.8.63-.76 1.7"/><path stroke="#dfd5c7" vector-effect="non-scaling-stroke" d="m1830.42 316.555-2.29 1.79"/><path stroke="#7e786f" vector-effect="non-scaling-stroke" d="m1828.13 318.345-5.3-1.65q-2.32-.73-1.87 1.66l.17.91"/><path stroke="#f1e8db" vector-effect="non-scaling-stroke" d="m1821.13 319.265-.42.03a1.13 1.12 17.3 0 0-.77.4q-1.41 1.65-3.81 1.65"/><path stroke="#7e786f" vector-effect="non-scaling-stroke" d="M1816.13 321.345q-5.18-1.49-10.25.25"/><path stroke="#f1e8db" vector-effect="non-scaling-stroke" d="M1805.88 321.595q-1.43.64-3 .17"/><path stroke="#7e786f" vector-effect="non-scaling-stroke" d="M1802.88 321.765q-3.1-2.17-8.46-3.5a.43.43 0 0 0-.43.71l1.14 1.29"/><path stroke="#f1e8db" vector-effect="non-scaling-stroke" d="m1795.13 320.265-3.5 3.5"/><path stroke="#7e786f" vector-effect="non-scaling-stroke" d="m1791.63 323.765-7.73.26a1.37 1.33-25.3 0 1-.88-.3q-27.13-21.61-57.73-36.56-10.48-5.13-22.45-7.96-.49-.12-.01.06c28.87 10.61 55.45 26.82 79.35 46.12a.7.69 57.6 0 1-.27 1.22l-3.99.95a.38.37-10.8 0 0-.29.42l.04.33"/><path stroke="#8c8279" vector-effect="non-scaling-stroke" d="M1791.63 323.765q.86.05 1.06.61a.56.56 0 0 1-.43.74l-5.86 1.02q-.67.12-.12.53c14.69 11.01 28.25 27.22 39.79 41.5"/><path stroke="#7a6f65" vector-effect="non-scaling-stroke" d="M1826.07 368.165q21.62 29.15 36.83 62.16 1.4 3.05 4.34 12.46a.38.37-12.4 0 1-.31.48l-.27.04a.28.28 0 0 1-.3-.18q-16-39.33-41.44-73.32"/><path stroke="#8c8279" vector-effect="non-scaling-stroke" d="M1824.92 369.805q-15.57-20.07-34.21-37.33-2.11-1.95-5.63-4.38a1.45 1.43 60 0 0-.9-.25l-6.51.46M1805.88 321.595c-.62 2.96 7.43 1.4 9.32 1.05.73-.13 1-.62.93-1.3M1877.38 515.595l-2.49 6.61a.58.58 0 0 0 .95.63q4.61-4.45 4.49-11.07M1889.59 508.055l-.59 5.59a.53.54 9 0 0 .42.58c2.28.47 2.82-8.29 2.75-9.92M1902.55 491.415q-.1 1.04.34 1.53a.36.36 0 0 0 .6-.1l.68-1.54M1943.34 449.205l.83 3.55a.42.42 0 0 0 .66.25q.34-.25.04-1.03M1950.17 448.055l-1.11 12.64a.45.44-27.5 0 0 .83.26c2.24-3.88 2.16-14.11 2.03-18.65"/><path stroke="#ccbfb2" vector-effect="non-scaling-stroke" d="m1960.34 455.055.58 2.5"/><path stroke="#8c8279" vector-effect="non-scaling-stroke" d="M1976.59 496.305q.82 5.04 3.85 9.03a.64.64 0 0 0 .79.19q.45-.21.25-.65-2.16-4.92-2.6-10.28M1985.05 501.105c-.48 5.64.77 14.43 5.29 18.47a.38.38 0 0 0 .62-.39q-2.78-8.89-4.04-17.13"/><path stroke="#938a7f" vector-effect="non-scaling-stroke" d="M2137.38 361.015q-3.77-.67-7.5-.15a.62.62 0 0 0-.54.59c-.05 1.35 9.84 1.51 11.25 1.6"/><path stroke="#ccbfb2" vector-effect="non-scaling-stroke" d="M2198.17 432.555c.01.86.11 2.11.61 2.87q6.26 9.45 12.32 19.05"/><path stroke="#8c8279" vector-effect="non-scaling-stroke" d="M2211.1 454.475q-3.49-3.11-7.43-4.51a.3.3 0 0 0-.31.49l14.06 13.85"/><path stroke="#ccbfb2" vector-effect="non-scaling-stroke" d="M2217.42 464.305q3.67 6.69 7.3 18.43 2.38 7.72 2.51 12.32"/><path stroke="#8c8279" vector-effect="non-scaling-stroke" d="M2277.13 585.845c-3.59-5.33-9.71-14.48-17.01-17.5a.62.62 0 0 0-.76.24q-.61.95.31 1.68c11.69 9.26 16.81 22.35 22.95 35.32.46.99 1.21 1.99 2.36.89M2283.63 609.845l-2.23-1.19a.99.97 44.4 0 0-.93 0c-1.72.95 5.33 7.86 8.22 10.82M2287.38 625.095q-1.29-1.77-2.83-1.06a.5.49-26.1 0 0-.24.68c14.92 28.17 15.17 56.73 10.87 86.94q-3.34 23.46-11.78 45.43a.49.49 0 0 1-.69.25c-23.36-13.25-46.96-27.28-72.15-36.71q-30.72-11.52-62.29-20.39c-21.47-6.03-43.57-10.1-65.36-14.82q-30.53-6.62-61.78-8.02c-1.05-.05-6.6-.52-6.93.6a.38.38 0 0 0 .41.49q1.68-.18 2.27-.15 34.83 1.55 60.5 7.23 20.92 4.63 41.89 9.04c30.63 6.44 60.96 16.12 90.21 27.19 25.47 9.64 48.79 23.49 72.43 36.84a.68.67 21.6 0 1 .32.73c-1.08 4.55-5.07 9.84-7.5 13.91a.73.73 0 0 0 .01.75l.18.28"/><path stroke="#8c8279" vector-effect="non-scaling-stroke" d="M2272.17 774.055q.18-3.65-1.28-6.95a.93.92 77.4 0 0-.86-.55l-.69.01a.5.5 0 0 0-.49.53l.71 12.69M2265.1 789.085q-1.49-.12-1.71.52-5.74 17.18-16.88 32.32a.79.79 0 0 1-1.11.16c-28.33-21.45-55.79-43.91-86.71-61.33-22.48-12.67-41.55-24.33-61.94-35.38q-23.32-12.64-45.9-26.56-7.64-4.71-14.77-10.17a.49.49 0 0 0-.71.13c-1.8 2.89 53.28 33.69 58.64 36.6 16.92 9.18 36.91 21.53 49.69 28.6 21.41 11.82 40.29 23.22 58.6 37.16q21.27 16.22 42.37 32.74a.49.48 37.9 0 1 .09.68c-9.97 13.13-22.32 25.8-36.79 33.92-9.89 5.56-21.06 11.19-32.44 12.6a.37.36-32.7 0 0-.15.67c2.25 1.36 7.81.89 10.53 1.01 4.66.2 8.74-1.59 13.43 1.31 10.68 6.6 6.98 32.52 5.59 42.76M2199.09 918.555q.92-3.44-.47-6.1a.86.85 35 0 0-1.61.28q-.86 6.57-2.92 12.82M2185.63 935.345c-18.2-17.8-34.74-37.54-46.99-60.07q-10.2-18.76-19.85-33.49c-11.4-17.4-21.9-35.72-33.92-52.64-10.29-14.5-22.23-27.9-32.82-41.54-3.6-4.64-32.76-42.7-35.44-42.46q-.6.05-.21.51c15.36 17.96 29.29 36.94 44.51 54.96q12.27 14.51 23.26 30c7.9 11.15 15.6 24.34 23.26 36.58q1.03 1.64 10.8 16.42c8.34 12.59 15.29 25.92 22.89 38.95 11.78 20.19 25.91 35.87 43.49 53.87M2112.63 970.345c2.83-.96 17.11-7.97 17.41-10.83a.85.84 77.9 0 0-1.26-.82q-9.32 5.33-17.72 10.78-.42.28-.04 1.29M1705.67 969.305c-4.93-7.01-8.8-11.4-11.6-19.43a.43.43 0 0 0-.81-.01q-.88 2.4.16 5.19M1689.63 958.595q-4.43-5.5-6.48-12.46a.7.7 0 0 0-1.37.14q-.28 2.87.64 6.03M1678.84 953.055q.04-1.19-.23-1.7-3.88-7.51-5.48-15.9a.76.76 0 0 0-1.37-.29q-1.18 1.74-.92 4.39M1665.17 941.305q-4.11-10.94-2.78-23.41a.48.48 0 0 0-.77-.43q-1.28.98-1.78 2.84M1646.09 905.555c.34-7.83-1.3-16.31 1.59-26a.75.75 0 0 0-.25-.81c-1.57-1.25-2.71 1.24-3.3 2.6M1641.09 880.305q1.19-5.47 3.53-10.58a.63.63 0 0 0-.29-.82l-.67-.32a.71.71 0 0 0-.88.2q-2.53 3.24-3.44 7.27"/><path stroke="#8c8279" vector-effect="non-scaling-stroke" d="M1636.13 874.515c2.8-9.01 5.64-15.62 16.38-11.91 5.14 1.78 10.51 4.02 15.64 4.71q10.53 1.44 21.14-.65a.6.6 0 0 0-.09-1.19c-7.07-.25-14.69-.38-21.32-1.98-17.63-4.27-33.13-15.05-48.12-24.76a1.03 1.03 0 0 1-.22-1.54c17.67-20.43 35.74-41.19 56.48-58.59 28-23.5 59.9-45.66 92.7-60.42q43.42-19.53 92.76-33.97.36-.11.51-.44a.38.38 0 0 0-.34-.53q-1.73-.03-2.78.27-22.44 6.4-44.1 14.07a.94.92 67.7 0 1-1.15-.49q-.82-1.74-2.64-.86a.73.73 0 0 0-.35.93l.45 1.06a.59.58-22.1 0 1-.33.77c-32.64 12.6-60.85 24.57-89.39 43.56-27.08 18.03-50.15 35.99-71.48 58.24q-16.55 17.27-31.93 35.48a.5.49-46.9 0 1-.72.03q-4.09-4.04-7.45-8.63c-10.75-14.69-21.56-32.63-23.19-51.24-.07-.79-.41-1.41-.84-2.02a.53.52-61.2 0 0-.95.28l-.46 8.86"/><path stroke="#8c8279" vector-effect="non-scaling-stroke" d="M1579.34 782.305q.06-8.3 1.29-16.41a.92.91-8.5 0 1 .52-.7q21.32-10.13 27.2-13.66c17.99-10.81 35.84-22.07 54.52-30.5 40.2-18.15 80.28-29.87 125.72-37.98 13.73-2.45 28.34-4.23 42.57-6.06 17.96-2.32 41.01-1.31 56.71-.6q1.7.08 3.26-.58.49-.2-.05-.25c-21.32-1.71-43.05-2.09-64.31.47q-38.95 4.69-79.31 14.39c-27.43 6.59-52.73 15.44-78.14 26.12-18.81 7.9-33.66 16.99-49.93 26.81-12.64 7.63-24.73 13.88-37.57 20.03a.34.33-10.3 0 1-.48-.33c.14-1.38 1.25-5.1-.29-5.79a.58.58 0 0 0-.78.31l-1.43 3.48"/><path stroke="#ccbfb2" vector-effect="non-scaling-stroke" d="M1576.42 759.055q-1.92-5.29-5.29-9.79"/><path stroke="#8c8279" vector-effect="non-scaling-stroke" d="M1571.13 749.265c-7.48-19.18-9.42-40.55-9.93-60.96q-.38-15.51 2.72-27.24 3.25-12.28 4.24-19.08M1566.09 632.555q4.19-7.13 10.58-13.28a1.6 1.59-45.1 0 0 0-2.31c-1.08-1.02-7.15 5.93-8 6.84M1565.88 620.345q6.56-15.95 13.38-31.79c7.02-16.3 14.75-30.05 24.62-44.49q11.46-16.76 19.52-36.99"/><path stroke="#ccbfb2" vector-effect="non-scaling-stroke" d="M1623.4 507.075c1.76-3.87 17.47-36.97 19.23-37.06"/><path stroke="#8c8279" vector-effect="non-scaling-stroke" d="m1642.63 470.015.38.03a1.31 1.3 28.6 0 0 .93-.27q4.42-3.49 7.77-7.98a.99.99 0 0 0 0-1.18c-1.18-1.57-7.9 6.27-9.07 7.43"/><path stroke="#ccbfb2" vector-effect="non-scaling-stroke" d="M1642.64 468.045q1.37-2.93 1.31-6.01-.01-.49.19-.94l2.24-5"/><path stroke="#8c8279" vector-effect="non-scaling-stroke" d="M1646.38 456.095c3.94-3.71 6.4-9.42 8.82-14.22 4.73-9.42 14.07-18.02 24.1-27.4q4.58-4.29 7.3-9.54a.59.59 0 0 0-.92-.7c-4.62 4.25-9.05 8.4-14.03 12.43-9.32 7.55-18.46 15.78-27.88 22.55q-20 14.38-40.43 28.14c-13.12 8.84-24.92 20.68-36.91 31.35a1.43 1.43 0 0 1-2.28-.56q-1.86-4.91-.28-10.12"/><path stroke="#eddfd0" vector-effect="non-scaling-stroke" d="M1563.87 488.025q9.9-8.91 19.02-18.61c12.33-13.12 28.72-20.59 42.88-30.95 21.05-15.4 36.73-35.52 60-48.68.4-.23 1.48-.48 1.62.02"/><path stroke="#8c8279" vector-effect="non-scaling-stroke" d="M1687.39 389.805q.54.92.94.71 7.19-3.9 15.1-5.89a.62.63-8.2 0 0 .48-.65c-.08-1.24-5.27-.28-6.49-.2"/><path stroke="#eddfd0" vector-effect="non-scaling-stroke" d="M1697.42 383.775q13.01-10.22 26.08-20.28c1.83-1.4 3.25-3.03 4.9-4.66a.54.53-46.1 0 0-.01-.76c-.59-.55-13.87 6.64-15.51 7.48q-.47.24-.09-.14 1.43-1.45 4.42-3.53 20.37-14.27 40.23-24.14c1.78-.88 2.97-2.12 4.44-3.4"/><path stroke="#8c8279" vector-effect="non-scaling-stroke" d="M1761.88 334.345q7.54-1.72 15.16-2.98c.57-.1 1.03-.54.55-1.06"/><path stroke="#bbac9e" vector-effect="non-scaling-stroke" d="M1950.09 299.865q-.18 8.95-1.69 15.19-3.65 15.09-5.58 27.66c-1.3 8.52-1.69 19.64-2.93 29.46a1.01 1.01 0 0 1-1.71.59q-2.26-2.23-5.58-1.22"/><path stroke="#7a6f65" vector-effect="non-scaling-stroke" d="m1932.6 371.545-2.22-2.1q-.23-.22-.25.09l-.02.33a1.44 1.42-60.9 0 0 .26.94c17.41 24.17 10.95 50.49 12.97 78.4"/><path stroke="#eddfd0" vector-effect="non-scaling-stroke" d="M1943.34 449.205q-1.2 1.83-1.93 4-1.05 3.16-1.49 4.11c-3.23 6.92-7.04 16.84-12.12 22.47a1.24 1.22 36.6 0 1-1.56.22c-1.28-.79 1.8-8.02 2.16-9.77q.13-.62-.3-.16-10.34 10.95-21.5 21.07a1.11 1.08 25.1 0 1-.84.29l-1.59-.13"/><path stroke="#7a6f65" vector-effect="non-scaling-stroke" d="m1904.17 491.305 2.25-13.16a.47.47 0 0 0-.81-.4c-2.66 2.88-3.1 10.11-3.06 13.67"/><path stroke="#eddfd0" vector-effect="non-scaling-stroke" d="M1902.55 491.415q-2.08.63-2.77 2.69-.15.46-.43.86l-5.92 8.54a1.72 1.69 5.4 0 1-.7.57l-.56.23"/><path stroke="#7a6f65" vector-effect="non-scaling-stroke" d="m1892.17 504.305-.12-4.11a.53.54-3.1 0 0-.57-.52c-1.51.1-1.72 6.99-1.89 8.38"/><path stroke="#eddfd0" vector-effect="non-scaling-stroke" d="M1889.59 508.055q-5.26.28-9.26 3.71"/><path stroke="#7a6f65" vector-effect="non-scaling-stroke" d="M1880.33 511.765c-1.63-.74-2.49 2.72-2.95 3.83"/><path stroke="#eddfd0" vector-effect="non-scaling-stroke" d="M1877.38 515.595c-.63-.48-1.17-.45-1.77.12q-3.24 3.16-7.97 4.15a.7.7 0 0 1-.5-1.28q4.92-2.94 8.25-7.57a.44.44 0 0 0-.61-.62c-16.19 11.25-26.35-8.93-34.62-18.37-4.55-5.19-8.87-7.86-15.76-10.79-17.56-7.47-48.72-21.04-51.47-42.93-2.45-19.44 5.85-33.9 20.03-45.91q15.69-13.28 31.96-22.59M1826.07 368.165q4.8-3.49 9.5-6.95c6.72-4.95 14.47-11.6 22.67-16.79a.65.65 0 0 0 .06-1.06c-8.75-7.02-20.57-9.88-31.21-13.57a.28.28 0 0 1 .07-.55l20.74-1.14a.46.46 0 0 0 .39-.66c-1.57-3.31-19.59-5.12-23.32-5.4a.74.73-6.5 0 1-.64-.5q-.37-1.12-1.45-1.7"/><path stroke="#7a6f65" vector-effect="non-scaling-stroke" d="m1822.88 319.845 5.26-.55a.39.38-17.8 0 0 .3-.57q-.1-.21-.31-.38M1830.42 316.555q3.3 2.13 7.26.87 17.3-5.5 34.57-11.11 13.04-4.24 25.62-2.72 2.04.25 2.26-1.25M1927.09 322.055l5.25 14.13a.31.31 0 0 0 .6-.13q-.4-4.63-1.85-9.25M1933.62 323.205q3.36 8.86 3.07 18.28a.6.59-65.8 0 0 .16.43l.24.24q.32.34.41-.12 1.02-5.31.59-10.73"/><path stroke="#8c8279" vector-effect="non-scaling-stroke" d="m1802.88 321.765-.84.67a1.26 1.26 0 0 1-.91.27q-3.35-.34-6-2.44M1822.88 319.845l-1.75-.58"/><path stroke="#7a6f65" vector-effect="non-scaling-stroke" d="M1697.42 383.775q-5.45 2.17-10.03 6.03M1563.87 488.025q3.59-14.72 12.6-27.29a.27.27 0 0 0-.33-.4l-.97.47M1573.88 459.015q6.36-7.28 15.59-14.23a.78.78 0 0 0-.47-1.41q-.98 0-2.58 1.18"/><path stroke="#eddfd0" vector-effect="non-scaling-stroke" d="M2072.13 344.465q-5.34.61-9.77-.59-.99-.27-1.33-1.36a.87.86-33.1 0 1 .18-.84l1.8-2.02a.44.44 0 0 0-.22-.72q-1.97-.5-3.43.19"/><path stroke="#7a6f65" vector-effect="non-scaling-stroke" d="m2059.36 339.125-.73-.11"/><path stroke="#eddfd0" vector-effect="non-scaling-stroke" d="M2058.63 339.015v-.93a.54.55 0 0 0-.53-.54q-1.08-.01-2.02.58a1.27 1.24-56.3 0 1-.79.17q-2.7-.35-2.48-3.27.04-.49-.4-.28c-4.04 1.95-5.88 5.18-9.04 8.05-9.47 8.61-1.8 23.37 5.51 31.05M2050.59 374.555c7.61 7.27 18.15 13.81 24.17 19.61q13.71 13.22 17.67 32.64c4.12 20.23-16.77 36.93-32.12 45.4q-12.5 6.91-25.39 13.09c-11.45 5.5-18.57 10.76-24.96 20.82-3.52 5.56-13.17 10.94-15.71 1.44q-.12-.45-.03-.9l.71-3.66a.55.55 0 0 0-.61-.65l-4.06.56a.97.96-23.5 0 1-.87-.34q-.99-1.19-2.47-.51"/><path stroke="#7a6f65" vector-effect="non-scaling-stroke" d="M1986.92 502.055q.12-.83-.16-1.53a.45.45 0 0 0-.69-.2l-1.02.78"/><path stroke="#eddfd0" vector-effect="non-scaling-stroke" d="M1985.05 501.105q-2.69-3.57-6.17-6.51"/><path stroke="#7a6f65" vector-effect="non-scaling-stroke" d="M1978.88 494.595c-.29-1.18-.44-7.94-1.21-8.18a.49.49 0 0 0-.62.37q-.97 4.72-.46 9.52"/><path stroke="#eddfd0" vector-effect="non-scaling-stroke" d="M1976.59 496.305q-.61-1.56-2.08-.87a.91.89 47.9 0 1-.86-.05c-10.57-6.6-11.94-27.37-12.73-37.83"/><path stroke="#bbac9e" vector-effect="non-scaling-stroke" d="M1960.92 457.555q1.02-2.76.13-5.53-.17-.52-.35 0-.52 1.44-.36 3.03"/><path stroke="#eddfd0" vector-effect="non-scaling-stroke" d="M1960.34 455.055q.17-2.08-.65-3.64c-1.19-2.28-3.79-11-7.77-9.11"/><path stroke="#7a6f65" vector-effect="non-scaling-stroke" d="M1951.92 442.305q.1-1.35-.48-2.51-.28-.54-.35.07l-.92 8.19"/><path stroke="#eddfd0" vector-effect="non-scaling-stroke" d="M1950.17 448.055q-1.16-.54-1.89.43-1.69 2.22-3.41 3.49"/><path stroke="#7a6f65" vector-effect="non-scaling-stroke" d="M1944.87 451.975q.39-11.78 1.2-23.67c.68-9.92-.4-20.63 1.12-29.79q1.92-11.61 8.24-21.83a.37.37 0 0 0-.6-.43l-4.7 5.84"/><path stroke="#82776b" vector-effect="non-scaling-stroke" d="m1948.84 381.555 5.58-8.25"/><path stroke="#bbac9e" vector-effect="non-scaling-stroke" d="M1954.42 373.305q3.88-3.15 6.44-6.47a.8.8 0 0 0-1.03-1.18q-5.29 3.08-7.66 7.4"/><path stroke="#82776b" vector-effect="non-scaling-stroke" d="m1952.17 373.055-3.16 4.08"/><path stroke="#5a4f47" vector-effect="non-scaling-stroke" d="M1642.64 468.045q-.37 1.03-.01 1.97"/><path stroke="#7a6f65" vector-effect="non-scaling-stroke" d="M1761.88 334.345q-17.83 4.2-34.27 13.42-32.74 18.37-61.07 35.02c-18.6 10.93-36.38 23.66-54.47 35.46q-12.87 8.39-27.94 24.52"/><path stroke="#8c8279" vector-effect="non-scaling-stroke" d="M2259 551.405c-18.09-12.43-26.7-36.23-31.77-56.35"/><path stroke="#5a4f47" vector-effect="non-scaling-stroke" d="m2227.23 495.055 2.16 1.69q.45.35.39-.22l-1.43-13.27a.55.55 0 0 1 1.06-.26l1.95 4.88q.2.49.37-.01c.43-1.19.61-2.8 1.04-3.85q8.52-20.59 27.35-32.93a.53.53 0 0 0-.14-.96q-25.16-7.25-48.59-19.8-8.85-4.74-16.24-11.63a.25.24 6.4 0 0-.38.3c1.54 2.58 7.4 11.56 3.4 13.56"/><path stroke="#8c8279" vector-effect="non-scaling-stroke" d="M2198.17 432.555q-6.27-12.36-8.33-15.21-11.77-16.37-31.13-22.21c-.39-.12-.67-.51-.6-.9a.69.7 3.3 0 1 .63-.57c12.85-1.01 27.92 14.04 37.19 21.45 13.46 10.78 24.77 15.75 42.96 23.91q19 8.52 43.22 10.61c3.9.34 6.73.98 10.53-.59a.55.54-21.2 0 0 .31-.69l-1.86-5.05"/><path stroke="#7a6f65" vector-effect="non-scaling-stroke" d="M2291.09 443.305c-2.11-7.94-7.59-12.35-13.27-17.68-5.44-5.12-11.5-8.05-18.27-10.62q-1.44-.54-.14-1.36c1.37-.85 5.05.71 6.76.91q.51.06.12-.27-2.94-2.48-6.34-4.32c-12-6.5-25.29-11.8-36.77-17.7-18.12-9.3-39.73-22.43-60.68-33.62q-16.31-8.72-32.25-18.07c-12.88-7.57-22.78-11.94-36.12-14.66a.93.91-60.9 0 0-.85.25l-17.47 17.09"/><path stroke="#8c8279" vector-effect="non-scaling-stroke" d="M2075.81 343.255q-13.56 14.82-25.22 31.3"/><path stroke="#7a6f65" vector-effect="non-scaling-stroke" d="M2050.59 374.555c-14.54 20.48-26.56 41.04-32.15 65.84a.41.41 0 0 1-.6.27q-.91-.53-.53-2.14c5.7-24.24 16.85-43.72 31.57-64.68"/><path stroke="#8c8279" vector-effect="non-scaling-stroke" d="M2048.88 373.845q10.86-15.24 23.25-29.38"/><path stroke="#7a6f65" vector-effect="non-scaling-stroke" d="M2072.13 344.465q8.93-9.59 18.67-18.48.45-.41-.16-.48-17.15-1.82-33.85 2.26a.74.74 0 0 1-.77-1.15q1.82-2.49 5.01-2.51a.15.15 0 0 0 .14-.2l-.1-.26a.46.45 77.7 0 0-.45-.3q-2.43.15-5.94-.83-17.99-5.04-26.23-7.81-32.67-11.01-67.07-13.91a.86.85-70.8 0 0-.78.38q-5.64 8.65-9.51 18.13"/><path stroke="#5a4f47" vector-effect="non-scaling-stroke" d="M1951.09 319.305c-2.81-1.91 7.13-17.26 7.97-18.41q.31-.41-.21-.45l-8.76-.58"/><path stroke="#7a6f65" vector-effect="non-scaling-stroke" d="M1950.09 299.865q-12.49-.72-24.46-.27"/><path stroke="#5a4f47" vector-effect="non-scaling-stroke" d="M1925.63 299.595q-6.22-.47-12.6.47-.48.07-.06.33c5.87 3.51 15.49 12.93 13.12 20.66"/><path stroke="#7a6f65" vector-effect="non-scaling-stroke" d="M1926.09 321.055q-.49.08-.62-.34-3.65-12.24-14.17-19.03c-2.92-1.87-7.01-1.44-10.37-1.67"/><path stroke="#5a4f47" vector-effect="non-scaling-stroke" d="M2217.42 464.305q-.22-2.53-2.35-4.69-1.75-1.77-3.97-5.14M1571.13 749.265q1.23 6.26 3.96 12.04"/><path stroke="#eddfd0" vector-effect="non-scaling-stroke" d="m2291.09 443.305-.44-.32q-.33-.25-.74-.32c-5.72-.99-10.79-1.88-17.12-2.4-26.34-2.17-49.4-14.43-69.83-30.21-6-4.63-10.68-13.1-15.98-18.81-11.65-12.55-29.57-21.21-45.64-26.47a.99.98.7 0 1-.63-.64q-.18-.58-.12-1.08"/><path stroke="#82776b" vector-effect="non-scaling-stroke" d="m2140.59 363.055.64-.45a.35.35 0 0 0-.01-.58q-1.7-1.08-3.84-1.01"/><path stroke="#eddfd0" vector-effect="non-scaling-stroke" d="M2137.38 361.015q.08-.5-.03-.93a.87.86-.5 0 0-.64-.62q-8.05-1.88-15.22-5.81c-7.73-4.22-16.11-6.14-24.77-7.34-1.74-.24-2.34-.85-3.35-2.14a1.35 1.31-12.5 0 0-.79-.49q-8.25-1.64-16.77-.43"/><path stroke="#5a4f47" vector-effect="non-scaling-stroke" d="M1646.38 456.095c-2.74-.52 4.02-13.86 4.9-15.61a.36.36 0 0 0-.5-.47c-15.61 8.65-30.08 22.59-43.84 34.62a.42.42 0 0 1-.61-.57l5.98-7.81q.68-.89-.26-.28-13.5 8.76-25.34 19.66-.41.39.14.51c17.28 3.8 23.07 23.25 24.59 38.64q.05.48.25.04 4.34-9.86 11.71-17.75"/><path stroke="#bbac9e" vector-effect="non-scaling-stroke" d="M1925.63 299.595c6.57 9.13 14.12 19.65 12.46 31.71"/><path stroke="#5a4f47" vector-effect="non-scaling-stroke" d="M1938.09 331.305q-1.04-5.49-4.13-10.29a.5.5 0 0 0-.9.14q-.26 1 .56 2.05"/><path stroke="#bbac9e" vector-effect="non-scaling-stroke" d="m1933.62 323.205-2.53 3.6"/><path stroke="#5a4f47" vector-effect="non-scaling-stroke" d="m1931.09 326.805-3.11-5.4a.47.47 0 0 0-.71-.13q-.27.23-.18.78"/><path stroke="#bbac9e" vector-effect="non-scaling-stroke" d="m1927.09 322.055-1-1M1951.09 319.305c-3.13 10.2-6.55 22.25-5.71 32.97q.97 12.54 3.63 24.86"/><path stroke="#61574d" vector-effect="non-scaling-stroke" d="m1949.01 377.135-1.52 5.85q-.2.79.26.12l1.09-1.55"/><path stroke="#bbac9e" vector-effect="non-scaling-stroke" d="m1948.84 381.555 1.29.54"/><path stroke="#5a4f47" vector-effect="non-scaling-stroke" d="m1950.13 382.095-5.28 10.76q-.22.45-.37-.02-3.72-11.8-11.88-21.29"/><path stroke="#61574d" vector-effect="non-scaling-stroke" d="m1954.42 373.305-.72-.61a.69.69 0 0 0-.81-.07l-.72.43"/><path stroke="#8c8279" vector-effect="non-scaling-stroke" d="M2058.63 339.015c-2.44 1.06-16.05 4.06-14.7 8.12a.4.4 0 0 0 .61.2c1.18-.8 6.39-4.45 7.53-4.31a.25.24-74.6 0 1 .19.34l-.65 1.54q-.54 1.25.59.5 3.95-2.6 7.16-6.28"/><path stroke="#7a6f65" vector-effect="non-scaling-stroke" d="M1848.82 323.435a.61.61 0 0 0 .07 1.2q10.32 1.17 17.57 7.98c3.82 3.58 5.81 8.86 8 13.75a.34.33-55.5 0 0 .64-.12c.75-12.48-14.54-25.52-26.28-22.81M1880.49 336.665c-1.06-2.55-5.76-10.31-9.03-9.52a.24.24 0 0 0-.12.39l8.69 9.42a.28.28 0 0 0 .46-.29M1882.5 328.745a.4.4 0 0 0-.6.51l4.69 7.65a.56.56 0 0 0 1.02-.46q-1.39-4.64-5.11-7.7M1908.25 374.395c-1.5 17.27-5.24 29.64 3.18 45.53a.53.53 0 0 0 .87.09q.4-.49.29-1.21"/><path stroke="#bbac9e" vector-effect="non-scaling-stroke" d="M1912.59 418.805c.12-1.08.37-1.89.2-2.99q-1.9-12.31.89-26.99c1.35-7.07 2.38-20.68-1.9-27.83a.32.32 0 0 0-.6.17q.11 6.52-2.17 12.66a.8.76-1.4 0 1-.46.46l-.3.11"/><path stroke="#5a4f47" vector-effect="non-scaling-stroke" d="M1912.59 418.805c-4.11-11.25-4.27-23.07-2.29-34.81q.93-5.54-2.05-9.6"/><path stroke="#7a6f65" vector-effect="non-scaling-stroke" d="M1867.33 372.275c-5.19 1.67-11.31 6.21-11.94 12.03q-.06.52.35.19 1.54-1.2 2.61-2.82c2.47-3.72 5.77-6.09 9.34-8.68a.41.41 0 0 0-.36-.72M1916.94 412.095q-1.09 5.95-2.35 11.32c-.39 1.65.07 3.18.08 4.87a.66.67 8.7 0 0 .45.62l.35.12a.48.48 0 0 0 .62-.37c.69-3.8 3.23-13.32 1.94-16.66a.57.57 0 0 0-1.09.1M1917.23 428.095c-.83 1.26-1.23 17.11 1.51 14.24a.76.76 0 0 0 .22-.58c-.1-2.43.66-14.05-.22-14.59a.6.58 46 0 0-.56-.02l-.32.15a1.24.12-57.3 0 0-.63.8M1816.5 443.965c4.86 3.34 10.69 5.77 14.19 10.53 2.17 2.95 6.98 10.24 9.93 11.92a.51.51 0 0 0 .69-.72q-4.22-6.58-7.57-11.27c-4.83-6.75-11.81-9.86-18.8-13.45a.51.51 0 0 0-.67.71q.73 1.26 2.23 2.28M2048.11 325.075c-7.98 3.72-13.9 8.39-15.85 16.78-.22.93-.96 2.23.11 3.09a.39.39 0 0 0 .61-.16c4.35-10.67 11.41-14.36 20.75-20.35q.44-.28-.08-.38-2.38-.45-5.54 1.02M2030.28 340.105c-4.3 8-4.47 18.61 2.89 24.94a.68.68 0 0 0 1-.9c-5.17-7.42-4.1-15.2-3.05-23.8q.07-.58-.35-.56a.59.58 11.3 0 0-.49.32M2022.6 341.575q-3.9 5.41-1.91 11.89a.45.45 0 0 0 .88-.05l2.08-11.4a.59.58-22.1 0 0-1.05-.44M1975.92 415.805q-.69 1.59.05 3.12.23.48.48.01c6.24-11.39 6.1-23.49 5.72-37.01-.13-4.49.92-8.95 1.26-13.51a.61.61 0 0 0-.48-.64q-.55-.11-1.29.38"/><path stroke="#bbac9e" vector-effect="non-scaling-stroke" d="M1981.66 368.155q-.68-4.93-.26-13.1.15-2.93-1.81-6.02-.28-.43-.33.08c-1.17 12.14-3.13 24.17-3.08 36.49q.06 12.98-.85 25.95-.07 1.05.59 4.25"/><path stroke="#5a4f47" vector-effect="non-scaling-stroke" d="M1981.66 368.155q-2.87 11.57-2.28 26.65.38 9.73-3.46 21"/><path stroke="#7a6f65" vector-effect="non-scaling-stroke" d="m2052.55 431.235 11.73-6.51a.61.61 0 0 0-.44-1.12q-6.9 1.74-11.92 6.8a.53.53 0 0 0 .63.83M2042.87 441.365a.35.35 0 0 0 .43.53l9.61-5.45a.58.58 0 0 0-.44-1.07q-5.7 1.54-9.6 5.99M2038.07 447.745c-.58.6-4.1 5.97-2.73 7.05a.42.42 0 0 0 .62-.12q5.83-10.13 16.6-14.76.39-.16.31-.43a.7.69 70.4 0 0-.9-.43q-8.61 3.18-13.9 8.69"/><path stroke="#8c8279" vector-effect="non-scaling-stroke" d="M1683.68 398.175a.54.54 0 0 0 .7.8l8.25-4.79q1.31-.75-.2-.66-5.48.34-8.75 4.65M2190.3 434.415c2.39 4.48 6.29 7.61 10.94 9.13a.7.69-72.3 0 0 .88-.46c.41-1.35-9.67-8.49-10.96-9.43a.59.59 0 0 0-.86.76M1652.33 451.355c-2.15.72-6.3 8.76-7.51 11.03a.42.42 0 0 0 .63.52q5.25-4.35 7.74-10.64a.69.69 0 0 0-.86-.91"/><path stroke="#ccbfb2" vector-effect="non-scaling-stroke" d="M2016.39 569.075q3.71 11.87 12.94 20.27"/><path stroke="#8c8279" vector-effect="non-scaling-stroke" d="M2029.33 589.345c17.76 25.48 47.7 37.97 78.55 37.75"/><path stroke="#eddfd0" vector-effect="non-scaling-stroke" d="m2107.88 627.095.34.44a1.44 1.4-8.8 0 0 .67.48q16.07 5.49 28.99 16.17c9.26 7.64 19.15 15.78 26.53 19.63 20.97 10.94 52.42 16.33 73.9 3.67 17.59-10.37 21.04-33.67 13.39-51.34q-2.11-4.89-3.61-9.61a.37.37 0 0 1 .67-.31q4.81 7.74 7.86 16.34.25.71.37-.03.54-3.31-.11-6.98c-2.62-14.79-10.47-25.88-21.48-37.1a.17.11-64.8 0 1-.02-.15l.08-.25a.15.14 28.7 0 1 .23-.06l10.12 8.35a.46.47 7.7 0 0 .72-.55c-6.69-15.23-18.5-19.76-32.4-27.72-6.14-3.52-12.06-8.12-17.39-12.94l-25.68-23.26c-2.97-2.7-7.38-6.89-10.45-11.3q-1.04-1.49-2.98-1.48"/><path stroke="#938a7f" vector-effect="non-scaling-stroke" d="M2157.63 509.095q-23.43-32.1-63.15-35.72c-9.75-.89-19.2 2.1-29.09 4.95-35.77 10.27-54.32 40.27-53.82 76.48 0 .29 1.87 12.99 4.82 14.27"/><path stroke="#82776b" vector-effect="non-scaling-stroke" d="M2157.63 509.095c11.47 16.77 18.89 37.77 17.18 58.19-1.07 12.84-3.84 28.04-13.16 37.79q-13.27 13.87-31.52 18.19"/><path stroke="#211a13" vector-effect="non-scaling-stroke" d="M2130.13 623.265q-1.06-1.46-1.08-3.17a.66.64 8.5 0 0-.47-.62l-.7-.21"/><path stroke="#94908c" vector-effect="non-scaling-stroke" d="M2127.88 619.265c24.12-9.46 38.81-31.21 42.36-56.3 1.73-12.26-3.07-33.14-11.52-42.59q-4.04-4.51-8.49-9.49a.49.49 0 0 0-.81.55c20.16 40.11 3.3 91.16-45.13 96.65-26.45 3-49.37-9.62-61.85-32.8-14.9-27.66-10.9-59.59 9.9-83q.34-.38-.14-.2-3.27 1.22-6.63 4.41-22.17 21.11-23.04 51.28"/><path stroke="#211a13" vector-effect="non-scaling-stroke" d="M2022.53 547.775q-1.28 4.03-3.22 7.72c-.27.5-.16.78-.22 1.31"/><path stroke="#61574d" vector-effect="non-scaling-stroke" d="M2019.09 556.805c-1.68-11.6.59-22.29 3.56-33.44q.12-.48-.11-.04c-7.92 14.83-10.29 29.15-6.15 45.75"/><path stroke="#5a4f47" vector-effect="non-scaling-stroke" d="M2019.09 556.805q1.71 17.31 10.24 32.54"/><path stroke="#8c8886" vector-effect="non-scaling-stroke" d="M2127.88 619.265c-23.96 7.31-48.8 2.94-70.27-9.47-24.2-13.99-33.5-34.61-35.08-62.02"/><path stroke="#7a6f65" vector-effect="non-scaling-stroke" d="M2107.88 627.095q11.31-.88 22.25-3.83"/><path stroke="#eddfd0" vector-effect="non-scaling-stroke" d="M1705.25 510.895q-4.09 1.92-7.23 5.3-8.04 8.65-16.05 17.33c-13.82 14.99-28.3 28.03-44.65 40.97-8.71 6.9-17.41 14.91-24.76 24.13q-.34.43.21.44l.52.01a1.31 1.29 21.8 0 0 .93-.39q1.6-1.65 3.93-1.94a.47.47 0 0 1 .34.84c-12.07 9.2-17.36 20.79-21.29 35.77-7.26 27.63-3 65.98 34.71 66.47 26.15.34 55.55-7.83 76.47-23.51q11.18-8.37 22.25-19.05"/><path stroke="#8c8279" vector-effect="non-scaling-stroke" d="M1730.63 657.265q35.53 9.66 72.23 11.45c15.12.74 31.64 4.36 46.57 1.06q.51-.11 0-.21-1.97-.38-3.93-.12-3.37.44-4.31.41c-14.72-.34-29.14-2.17-43.93-3q-33.39-1.86-65.63-11.09"/><path stroke="#eddfd0" vector-effect="non-scaling-stroke" d="M1731.63 655.765c11.36-11.85 21.49-17.82 34.24-25.08.81-.46.8-.72 1.01-1.59"/><path stroke="#8c8279" vector-effect="non-scaling-stroke" d="M1766.88 629.095c21.08-2.63 41.68-10.67 57.04-25.29"/><path stroke="#ccbfb2" vector-effect="non-scaling-stroke" d="m1823.92 603.805 1.46-.59q.46-.19.84-.5 8.44-6.82 15.91-14.7"/><path stroke="#938a7f" vector-effect="non-scaling-stroke" d="M1842.13 588.015c12.12-12.97 11.19-36.75 6.23-52.25-6.46-20.2-16.06-39.3-35.09-50.56-11.94-7.07-30.69-11.61-44.26-10.98-27.72 1.28-47.24 15.47-63.76 36.67"/><path stroke="#61574d" vector-effect="non-scaling-stroke" d="m1842.13 588.015-.04-.55a1.41 1.39-32.7 0 1 .18-.79c6.66-11.93 6.29-23.53 5.54-36.92q-.01-.27-.19-.07l-.21.23a.82.78-23.7 0 0-.21.51c-.22 11.42-2.66 25.25-9.28 35.13"/><path stroke="#211a13" vector-effect="non-scaling-stroke" d="M1837.92 585.555q-2.46-.63-1.98-2.96.1-.47-.34-.28l-.47.2"/><path stroke="#94908c" vector-effect="non-scaling-stroke" d="M1835.13 582.515q6.9-13.34 7.5-28.96 1.3-33.89-24.99-53.69-.4-.3-.08.08 21.89 25.75 16.6 58.62c-9.01 55.99-84.52 72.77-114.19 23.24-14.23-23.76-10.6-54.8 4.29-76.88a.46.46 0 0 0-.67-.62q-10.75 8.52-18.71 19.29"/><path stroke="#211a13" vector-effect="non-scaling-stroke" d="M1704.88 523.595q-.78-.13-.93.32-.38 1.16-.34.17l.03-.69a.56.56 0 0 0-.66-.57l-.35.06a.65.65 0 0 1-.7-.35l-1.51-2.98"/><path stroke="#82776b" vector-effect="non-scaling-stroke" d="m1700.42 519.555 4.83-8.66"/><path stroke="#5a4f47" vector-effect="non-scaling-stroke" d="M1837.92 585.555c-4.08 7.23-9.22 12.05-14 18.25"/><path stroke="#8c8886" vector-effect="non-scaling-stroke" d="M1835.13 582.515q-17.74 28.82-50.25 38.54-22.43 6.71-42.99 2.49c-21.68-4.45-42.46-21.85-47.29-44.02q-6.55-30.09 10.28-55.93"/><path stroke="#7a6f65" vector-effect="non-scaling-stroke" d="M1700.42 519.555c-8.95 17.49-14.1 37.02-10.86 56.06 2.87 16.88 11.6 30.81 25.55 40.61a.233.233 0 0 1-.24.4c-11.17-5.49-21.03-13.01-26.45-24.72a.2.2 0 0 0-.25-.11l-.27.08a.38.37-16.7 0 0-.25.46c4.26 14.8 17.21 25.36 30.8 31.19 14.26 6.13 32.8 6.61 48.43 5.57M1731.63 655.765c-21.08-5.52-42.14-13.2-59.36-26.95q-.43-.34-.32.19.2.93.82 1.45c16.85 14.06 37.8 20.86 57.86 26.81"/><path stroke="#938a7f" vector-effect="non-scaling-stroke" d="M1905.42 606.055q-3.79 4.73-7.06 9.86c-2.47 3.88-5.04 5.42-9.29 6.35a.73.73 0 0 0-.57.8l.11.83a.72.73-3.6 0 0 .72.64l6.44.03q.52 0 .98.25c5.51 2.93 10.02 1.39 14.89 2.74 6.18 1.72 11.29 9.42 14.88 14.99 1.51 2.34 3.61 4.11 5.57 6.01"/><path stroke="#8c8279" vector-effect="non-scaling-stroke" d="M1932.09 648.555c3.11 3.16 4.29 12.91 4.52 17.23q.07 1.22 1.17 1.3a.67.67 0 0 0 .72-.66q.16-9.69 5.42-17.62"/><path stroke="#938a7f" vector-effect="non-scaling-stroke" d="M1943.92 648.805q6.51-7.41 11.62-15.86c3.18-5.26 10.04-4.44 15.1-6.23 6.81-2.42 14.46.11 18.14-8.05a.95.95 0 0 0-1.24-1.26l-6.04 2.59a1.28 1.27 58.5 0 1-1.48-.36q-7.32-8.81-13.43-18.33"/><path stroke="#eddfd0" vector-effect="non-scaling-stroke" d="M1966.59 601.305q1.25-.97 2.1.33a1.24 1.26-8.5 0 0 .73.55c3.83 1.09 14.01 9.74 15.81.99q.82-3.98.3-7.55a1.2 1.19-76.7 0 0-.51-.83l-.97-.65a.78.78 0 0 1-.32-.82q2.43-11.12-3.42-20.73a.54.53 31.9 0 0-.99.23l-.62 7.33a.41.4 11.7 0 1-.54.35c-1.5-.49 1.98-10.53-4.89-10.14a.61.6-9.4 0 1-.62-.44c-2-7.71-4.53-16.31-11.77-20.7a.77.76-.4 0 0-1.05 1.06l3.99 6.36a.44.44 0 0 1-.61.61c-6.4-4.05-12.83-8.51-17.5-14.58-2.44-3.16-4.76 2.65-6.53 4.03-4.57 3.58-8.72 7.33-13.82 10.21-12.48 7.07-24.5 12.85-28.68 27.69q-2.09 7.41-.12 14.91a1.58 1.54-41 0 1-.08 1l-3.98 8.98a2.25 2.16 28.3 0 0 .88 2.74c2.74 1.76 9.09-4.12 10.48-6.12a.9.88 19.6 0 1 .8-.37q.46.05.76.31"/><path stroke="#82776b" vector-effect="non-scaling-stroke" d="M1966.59 601.305c-6.65-8.04-14.67-5.55-23.36-3.52-13.71 3.21-28.54-9.25-37.81 8.27"/><path stroke="#211a13" vector-effect="non-scaling-stroke" d="m1943.92 648.805-2.73-2.48a1.54 1.51 69.4 0 0-.84-.39l-2.23-.3a.61.6 11 0 1-.51-.75q.57-2.17-1.19-3.08"/><path stroke="#936f5c" vector-effect="non-scaling-stroke" d="m1936.42 641.805 1.37-9.54q.25-1.77 1.25-.29c1.33 1.97 1.4 9.99 1.52 12.61q.03.51.43.21 5.09-3.77 7.81-9.37c1.45-2.98.84-6.22 1.37-8.86.6-2.97 3.54-8.06 6.8-9.04 3.52-1.06 8.57 2.72 11.38 4.96a.96.95-37.9 0 0 1 .12q2.52-1.17 3.8-3.66a.91.91 0 0 0-.12-1q-5.01-5.94-9.19-12.49c-5.1-7.99-13.38-4.83-20.72-3.31-6.76 1.39-11.86.01-18.99-1.32-8.89-1.67-11.72 3.73-16.48 9.62-1.84 2.28-4.63 3.8-5.5 7.66a1.2 1.19-55.2 0 0 .16.91c4.05 6.51 9.83-1.61 14.81-1.41 9.43.4 7.31 12.95 11.04 19.28q2.05 3.48 4.97 6.38"/><path stroke="#211a13" vector-effect="non-scaling-stroke" d="M1933.13 643.265c-2.9-.33-1.32 3.9-1.04 5.29"/><path stroke="#8c6756" vector-effect="non-scaling-stroke" d="m1936.42 641.805-.67 3.52q-.11.6-.53.16l-2.09-2.22"/><path stroke="#8c8279" vector-effect="non-scaling-stroke" d="M1889.922 663.717a1.39 1.77 21.1 0 0 1.934-1.151 1.39 1.77 21.1 0 0-.66-2.152 1.39 1.77 21.1 0 0-1.934 1.15 1.39 1.77 21.1 0 0 .66 2.153"/><path stroke="#938a7f" vector-effect="non-scaling-stroke" d="M1941.82 706.865c40.32 2.95 72.84 37.06 85.01 74.65q.16.49.17-.03.12-4.84-1.59-9.45c-5.8-15.67-15.25-32.95-27.51-44.49q-12.16-11.45-25.7-21.19c-5.44-3.91-11.99-7.45-18.02-11.15-9.39-5.76-12.25-14.1-14.48-24.17a.97.96 4.8 0 0-.59-.69c-1.25-.5-1.74.24-1.76 1.44-.17 11.32-5.02 22.26-14.93 28.13q-20.01 11.84-37.48 27.08c-13.28 11.59-23.73 22.19-31.62 37.19a.38.37-13.5 0 0 .64.39q17.57-24.66 42.79-40.14c12.57-7.71 30.17-18.66 45.07-17.57"/><path stroke="#8c8279" vector-effect="non-scaling-stroke" d="M2027.56 672.775q50.46-3.96 100.02 5.98 19.04 3.82 38.04 7.84 2.4.51 5.71.12.53-.06.02-.19c-4.26-1.15-9.04-1.76-12.94-2.73-23.3-5.78-47.29-10.39-71.23-12.39-17.3-1.46-31.78-1.06-47.73-.64q-6.12.16-12.18 1.22a.39.39 0 0 0-.24.62q.16.2.53.17M1995.22 675.795c1.86.43 4.92-1.13 2.42-2.86a.84.83-51.7 0 0-1.09.13l-1.63 1.79a.57.57 0 0 0 .3.94M1879.2 692.235q1.79-.32 2.19-2.19a.71.71 0 0 0-.41-.8c-1.56-.7-3.69.77-2.57 2.63a.77.77 0 0 0 .79.36M1988.75 690.4a2.03 1.44-32 0 0-2.484-.146 2.03 1.44-32 0 0-.958 2.297 2.03 1.44-32 0 0 2.484.146 2.03 1.44-32 0 0 .959-2.297M2008.404 694.017a1.93 1.61 9.3 0 0-1.645-1.9 1.93 1.61 9.3 0 0-2.164 1.276 1.93 1.61 9.3 0 0 1.644 1.901 1.93 1.61 9.3 0 0 2.165-1.277M1736.6 873.775q8.65-26.23 13.5-37.73c7.48-17.77 17.58-34.56 28.66-52.39 20.69-33.3 46.78-62.34 80.82-82.81a.53.41-68 0 0-.26-.91l-4.58 2.57a.4.4 0 0 1-.57-.51l.48-1.11a.74.73-54.7 0 0-.13-.79c-.81-.88-2.33.11-2.83.91a.99.97 51.5 0 0-.09.85l.47 1.33a.79.79 0 0 1-.32.93c-30.3 19.44-55.05 47.77-73.9 78.1q-15.66 25.2-21.39 36.41c-8.92 17.43-14.99 35.9-21.5 54.43a.98.97-71.9 0 1-1.2.61c-2.82-.83-20.11-6.81-21.47-3.19a.38.37-71.8 0 0 .24.49l20.47 6.03a.71.7 18.7 0 1 .46.92c-7.73 21.05-13.51 44.85-13.79 67.33q-.01.53.1.01.71-3.19 1.85-11.96 3.66-28.07 13.31-55.29a.56.56 0 0 1 .67-.36q8.99 2.32 17.81-.31a.96.95 9.8 0 0 .46-.32q1.47-1.87-1-1.72-8.02.49-15.94-.96a.43.43 0 0 1-.33-.56M1856.46 863.245c.87.35 12.84-4.67 14.4-5.27a.45.44-61.5 0 0-.25-.85q-7.6 1.62-14.18 5.75a.21.21 0 0 0 .03.37M1873.97 863.325c17.89-5.35 31.03 1.4 46.18 10.81a.55.55 0 0 0 .75-.77c-9.35-13.71-32.73-18.27-47.22-11.92a.84.83-17.5 0 0-.48.91l.1.56a.53.53 0 0 0 .67.41M1917.7 863.375c1.49 4.22 5.51 9.99 9.85 11.54a.49.49 0 0 0 .55-.77l-9.22-11.42a.68.68 0 0 0-1.18.65M1700.06 868.665l6.75-2.22a.64.64 0 0 0-.03-1.22c-1.72-.46-8.69-.33-7.58 3.01a.69.68-18 0 0 .86.43M2010.44 878.355c20.61 1.27 38.24-10.56 58.08-9.91a.54.53-33 0 0 .22-1.03c-8.61-3.45-16.51-1.03-24.9 1.72q-16.06 5.25-32.72 8.07-.74.13-.95.74a.31.3-78.6 0 0 .27.41M1929.22 866.325c.6 2.63 4.44 7.78 7.73 8.12q.89.1.27-.55l-7.54-7.81q-.67-.69-.46.24M2007.99 876.335a.62.6-36.5 0 0 .45.06c3.82-.93 11.62-2.99 13.97-6.4a.77.77 0 0 0-.93-1.15l-14.52 5.98a.49.48-41.2 0 0-.06.87l1.09.64M1992.38 873.975c-.47 3.14 11.53-1.2 12.81-1.86a.45.45 0 0 0-.29-.85l-11.9 2.08a.77.75-1.2 0 0-.62.63M2158.39 873.515c.32 3.13 10.31 3.42 12.62 3.06a.84.84 0 0 0 .02-1.65l-11.88-2.11a.65.64 2.1 0 0-.76.7M2167.67 946.605c4.37.41 9.21-8.73 6.04-9.26a.83.82 22.3 0 0-.82.34l-5.64 8a.59.58 20.5 0 0 .42.92M2149.69 957.995c1.28 1.12 8.13-6.7 9.01-8.03a.85.84 46.7 0 0 .02-.88c-.74-1.22-1.83-.87-2.7.06q-3.51 3.75-7.18 7.33a.81.79-32 0 0-.2.84q.17.51.73.55a.55.53 66 0 1 .32.13M2141.85 951.035q-6.06 8.25-13.75 15.1a.74.74 0 0 0 .69 1.26c6.97-1.93 12.88-10.2 15.87-16.4q.8-1.66-1.03-1.44c-1.16.13-1.22.72-1.78 1.48"/><path stroke="#938a7f" vector-effect="non-scaling-stroke" d="M2073.12 518.835c5.02 7.57 19.15-4.77 23.54-8.74 8.83-7.99-.43-16-9-13.79-8.39 2.18-21.01 12.76-14.54 22.53"/><path stroke="#857543" vector-effect="non-scaling-stroke" d="M2064.06 556.245c-1 24.6 21.93 39.82 44.69 32.51 12.89-4.14 21.73-15.26 24.72-28.37a.25.25 0 0 0-.46-.19c-17.22 27.08-56.3 28.63-68.4-4.04a.29.28-54.1 0 0-.55.09"/><path stroke="#938a7f" vector-effect="non-scaling-stroke" d="M1748.99 515.145c-.12 5.23 4.17 10.49 9.72 6.98q5.7-3.62 14.68-10.31c3.98-2.95 5.98-7.49 1.15-10.92-5.13-3.66-9.96-1.87-15.2 1.08-4.37 2.47-10.23 7.71-10.35 13.17"/><path stroke="#857543" vector-effect="non-scaling-stroke" d="M1741.85 559.045c2.9 41.96 63.46 46.26 69.98 3.86a.21.21 0 0 0-.38-.14c-17.06 27.32-56.36 28.28-69.45-3.76q-.19-.46-.15.04"/></g><path fill="#19120d" d="M1791.63 323.765q.86.05 1.06.61a.56.56 0 0 1-.43.74l-5.86 1.02q-.67.12-.12.53c14.69 11.01 28.25 27.22 39.79 41.5q21.62 29.15 36.83 62.16 1.4 3.05 4.34 12.46a.37.38 77.6 0 1-.31.48l-.27.04a.28.28 0 0 1-.3-.18q-16-39.33-41.44-73.32-15.57-20.07-34.21-37.33-2.11-1.95-5.63-4.38a1.45 1.43 60 0 0-.9-.25l-6.51.46-.04-.33a.37.38 79.2 0 1 .29-.42l3.99-.95a.7.69 57.6 0 0 .27-1.22c-23.9-19.3-50.48-35.51-79.35-46.12q-.48-.18.01-.06 11.97 2.83 22.45 7.96 30.6 14.95 57.73 36.56a1.33 1.37 64.7 0 0 .88.3zM2259 551.405c-18.09-12.43-26.7-36.23-31.77-56.35l2.16 1.69q.45.35.39-.22l-1.43-13.27a.55.55 0 0 1 1.06-.26l1.95 4.88q.2.49.37-.01c.43-1.19.61-2.8 1.04-3.85q8.52-20.59 27.35-32.93a.53.53 0 0 0-.14-.96q-25.16-7.25-48.59-19.8-8.85-4.74-16.24-11.63a.25.24 6.4 0 0-.38.3c1.54 2.58 7.4 11.56 3.4 13.56q-6.27-12.36-8.33-15.21-11.77-16.37-31.13-22.21c-.39-.12-.67-.51-.6-.9a.69.7 3.3 0 1 .63-.57c12.85-1.01 27.92 14.04 37.19 21.45 13.46 10.78 24.77 15.75 42.96 23.91q19 8.52 43.22 10.61c3.9.34 6.73.98 10.53-.59a.54.55 68.8 0 0 .31-.69l-1.86-5.05c-2.11-7.94-7.59-12.35-13.27-17.68-5.44-5.12-11.5-8.05-18.27-10.62q-1.44-.54-.14-1.36c1.37-.85 5.05.71 6.76.91q.51.06.12-.27-2.94-2.48-6.34-4.32c-12-6.5-25.29-11.8-36.77-17.7-18.12-9.3-39.73-22.43-60.68-33.62q-16.31-8.72-32.25-18.07c-12.88-7.57-22.78-11.94-36.12-14.66a.91.93 29.1 0 0-.85.25l-17.47 17.09q-13.56 14.82-25.22 31.3c-14.54 20.48-26.56 41.04-32.15 65.84a.41.41 0 0 1-.6.27q-.91-.53-.53-2.14c5.7-24.24 16.85-43.72 31.57-64.68q10.86-15.24 23.25-29.38 8.93-9.59 18.67-18.48.45-.41-.16-.48-17.15-1.82-33.85 2.26a.74.74 0 0 1-.77-1.15q1.82-2.49 5.01-2.51a.15.15 0 0 0 .14-.2l-.1-.26a.46.45 77.7 0 0-.45-.3q-2.43.15-5.94-.83-17.99-5.04-26.23-7.81-32.67-11.01-67.07-13.91a.85.86 19.2 0 0-.78.38q-5.64 8.65-9.51 18.13c-2.81-1.91 7.13-17.26 7.97-18.41q.31-.41-.21-.45l-8.76-.58q-12.49-.72-24.46-.27-6.22-.47-12.6.47-.48.07-.06.33c5.87 3.51 15.49 12.93 13.12 20.66q-.49.08-.62-.34-3.65-12.24-14.17-19.03c-2.92-1.87-7.01-1.44-10.37-1.67q-1.86.31-.84-1.09a.85.84 13.6 0 1 .57-.34q59.33-7.33 115.9 8.79c15.71 4.48 35.68 12.77 52.44 13.45 8.6.35 16.96.63 25.52 1.57a1.19 1.17 27.5 0 0 .88-.27q20.17-17.17 43.35-30c2.1-1.16 18.87-9.56 19.98-8.85q.46.3-.03.54-32.76 15.68-60.96 38.55-.4.33.1.46c11.73 2.91 21.01 6.84 32.32 13.38q18.45 10.67 37.17 20.83c31.06 16.85 54.25 31.01 82.68 44.2 6.43 2.98 14.87 7.18 19.33 12.83q1.65 2.11 3.31 3.25c11.63 8.03 22.17 18.28 24.3 32.77a1.18 1.16 60.6 0 1-.24.89c-2.9 3.71-10.66 3.34-14.73 2.61q-8.1-1.43-16.34-1.54a1.7 1.66 29.1 0 0-.92.25c-16.45 10.13-33.29 29.88-30.81 50.72.22 1.79.06 3.68.57 5.35 5.38 17.31 13.18 28.5 24.97 42.11a.48.48 0 0 1-.11.72z"/><path  d="M1925.63 299.595c6.57 9.13 14.12 19.65 12.46 31.71q-1.04-5.49-4.13-10.29a.5.5 0 0 0-.9.14q-.26 1 .56 2.05l-2.53 3.6-3.11-5.4a.47.47 0 0 0-.71-.13q-.27.23-.18.78l-1-1c2.37-7.73-7.25-17.15-13.12-20.66q-.42-.26.06-.33 6.38-.94 12.6-.47z"/><path  d="M1950.09 299.865q-.18 8.95-1.69 15.19-3.65 15.09-5.58 27.66c-1.3 8.52-1.69 19.64-2.93 29.46a1.01 1.01 0 0 1-1.71.59q-2.26-2.23-5.58-1.22l-2.22-2.1q-.23-.22-.25.09l-.02.33a1.42 1.44 29.1 0 0 .26.94c17.41 24.17 10.95 50.49 12.97 78.4q-1.2 1.83-1.93 4-1.05 3.16-1.49 4.11c-3.23 6.92-7.04 16.84-12.12 22.47a1.24 1.22 36.6 0 1-1.56.22c-1.28-.79 1.8-8.02 2.16-9.77q.13-.62-.3-.16-10.34 10.95-21.5 21.07a1.11 1.08 25.1 0 1-.84.29l-1.59-.13 2.25-13.16a.47.47 0 0 0-.81-.4c-2.66 2.88-3.1 10.11-3.06 13.67q-2.08.63-2.77 2.69-.15.46-.43.86l-5.92 8.54a1.72 1.69 5.4 0 1-.7.57l-.56.23-.12-4.11a.54.53 86.9 0 0-.57-.52c-1.51.1-1.72 6.99-1.89 8.38q-5.26.28-9.26 3.71c-1.63-.74-2.49 2.72-2.95 3.83-.63-.48-1.17-.45-1.77.12q-3.24 3.16-7.97 4.15a.7.7 0 0 1-.5-1.28q4.92-2.94 8.25-7.57a.44.44 0 0 0-.61-.62c-16.19 11.25-26.35-8.93-34.62-18.37-4.55-5.19-8.87-7.86-15.76-10.79-17.56-7.47-48.72-21.04-51.47-42.93-2.45-19.44 5.85-33.9 20.03-45.91q15.69-13.28 31.96-22.59 25.44 33.99 41.44 73.32a.28.28 0 0 0 .3.18l.27-.04a.37.38 77.6 0 0 .31-.48q-2.94-9.41-4.34-12.46-15.21-33.01-36.83-62.16 4.8-3.49 9.5-6.95c6.72-4.95 14.47-11.6 22.67-16.79a.65.65 0 0 0 .06-1.06c-8.75-7.02-20.57-9.88-31.21-13.57a.28.28 0 0 1 .07-.55l20.74-1.14a.46.46 0 0 0 .39-.66c-1.57-3.31-19.59-5.12-23.32-5.4a.73.74 83.5 0 1-.64-.5q-.37-1.12-1.45-1.7l5.26-.55a.38.39 72.2 0 0 .3-.57q-.1-.21-.31-.38l2.29-1.79q3.3 2.13 7.26.87 17.3-5.5 34.57-11.11 13.04-4.24 25.62-2.72 2.04.25 2.26-1.25 2.83-.65.8-2.33c3.36.23 7.45-.2 10.37 1.67q10.52 6.79 14.17 19.03.13.42.62.34l1 1 5.25 14.13a.31.31 0 0 0 .6-.13q-.4-4.63-1.85-9.25l2.53-3.6q3.36 8.86 3.07 18.28a.59.6 24.2 0 0 .16.43l.24.24q.32.34.41-.12 1.02-5.31.59-10.73c1.66-12.06-5.89-22.58-12.46-31.71q11.97-.45 24.46.27zm-101.27 23.57a.61.61 0 0 0 .07 1.2q10.32 1.17 17.57 7.98c3.82 3.58 5.81 8.86 8 13.75a.33.34 34.5 0 0 .64-.12c.75-12.48-14.54-25.52-26.28-22.81zm31.67 13.23c-1.06-2.55-5.76-10.31-9.03-9.52a.24.24 0 0 0-.12.39l8.69 9.42a.28.28 0 0 0 .46-.29zm2.01-7.92a.4.4 0 0 0-.6.51l4.69 7.65a.56.56 0 0 0 1.02-.46q-1.39-4.64-5.11-7.7zm25.75 45.65c-1.5 17.27-5.24 29.64 3.18 45.53a.53.53 0 0 0 .87.09q.4-.49.29-1.21c.12-1.08.37-1.89.2-2.99q-1.9-12.31.89-26.99c1.35-7.07 2.38-20.68-1.9-27.83a.32.32 0 0 0-.6.17q.11 6.52-2.17 12.66a.76.8 88.6 0 1-.46.46zm-40.92-2.12c-5.19 1.67-11.31 6.21-11.94 12.03q-.06.52.35.19 1.54-1.2 2.61-2.82c2.47-3.72 5.77-6.09 9.34-8.68a.41.41 0 0 0-.36-.72zm49.61 39.82q-1.09 5.95-2.35 11.32c-.39 1.65.07 3.18.08 4.87a.66.67 8.7 0 0 .45.62l.35.12a.48.48 0 0 0 .62-.37c.69-3.8 3.23-13.32 1.94-16.66a.57.57 0 0 0-1.09.1zm.29 16c-.83 1.26-1.23 17.11 1.51 14.24a.76.76 0 0 0 .22-.58c-.1-2.43.66-14.05-.22-14.59a.6.58 46 0 0-.56-.02l-.32.15a.12 1.24 32.7 0 0-.63.8zm-100.73 15.87c4.86 3.34 10.69 5.77 14.19 10.53 2.17 2.95 6.98 10.24 9.93 11.92a.51.51 0 0 0 .69-.72q-4.22-6.58-7.57-11.27c-4.83-6.75-11.81-9.86-18.8-13.45a.51.51 0 0 0-.67.71q.73 1.26 2.23 2.28z"/><path  d="m1950.09 299.865 8.76.58q.52.04.21.45c-.84 1.15-10.78 16.5-7.97 18.41-3.13 10.2-6.55 22.25-5.71 32.97q.97 12.54 3.63 24.86l-1.52 5.85q-.2.79.26.12l1.09-1.55 1.29.54-5.28 10.76q-.22.45-.37-.02-3.72-11.8-11.88-21.29 3.32-1.01 5.58 1.22a1.01 1.01 0 0 0 1.71-.59c1.24-9.82 1.63-20.94 2.93-29.46q1.93-12.57 5.58-27.66 1.51-6.24 1.69-15.19z"/><path fill="#19120d" d="M1900.13 302.345q-.22 1.5-2.26 1.25-12.58-1.52-25.62 2.72-17.27 5.61-34.57 11.11-3.96 1.26-7.26-.87-.04-1.07.76-1.7a1.18 1.15 28.7 0 1 .9-.25q3.55.46 6.26-.55 19.92-7.4 37.27-12.5 12.28-3.61 24.52.79z"/><path  d="M2072.13 344.465q-5.34.61-9.77-.59-.99-.27-1.33-1.36a.86.87 56.9 0 1 .18-.84l1.8-2.02a.44.44 0 0 0-.22-.72q-1.97-.5-3.43.19l-.73-.11v-.93a.54.55 0 0 0-.53-.54q-1.08-.01-2.02.58a1.24 1.27 33.7 0 1-.79.17q-2.7-.35-2.48-3.27.04-.49-.4-.28c-4.04 1.95-5.88 5.18-9.04 8.05-9.47 8.61-1.8 23.37 5.51 31.05-14.72 20.96-25.87 40.44-31.57 64.68q-.38 1.61.53 2.14a.41.41 0 0 0 .6-.27c5.59-24.8 17.61-45.36 32.15-65.84 7.61 7.27 18.15 13.81 24.17 19.61q13.71 13.22 17.67 32.64c4.12 20.23-16.77 36.93-32.12 45.4q-12.5 6.91-25.39 13.09c-11.45 5.5-18.57 10.76-24.96 20.82-3.52 5.56-13.17 10.94-15.71 1.44q-.12-.45-.03-.9l.71-3.66a.55.55 0 0 0-.61-.65l-4.06.56a.96.97 66.5 0 1-.87-.34q-.99-1.19-2.47-.51.12-.83-.16-1.53a.45.45 0 0 0-.69-.2l-1.02.78q-2.69-3.57-6.17-6.51c-.29-1.18-.44-7.94-1.21-8.18a.49.49 0 0 0-.62.37q-.97 4.72-.46 9.52-.61-1.56-2.08-.87a.91.89 47.9 0 1-.86-.05c-10.57-6.6-11.94-27.37-12.73-37.83q1.02-2.76.13-5.53-.17-.52-.35 0-.52 1.44-.36 3.03.17-2.08-.65-3.64c-1.19-2.28-3.79-11-7.77-9.11q.1-1.35-.48-2.51-.28-.54-.35.07l-.92 8.19q-1.16-.54-1.89.43-1.69 2.22-3.41 3.49.39-11.78 1.2-23.67c.68-9.92-.4-20.63 1.12-29.79q1.92-11.61 8.24-21.83a.37.37 0 0 0-.6-.43l-4.7 5.84-1.29-.54 5.58-8.25q3.88-3.15 6.44-6.47a.8.8 0 0 0-1.03-1.18q-5.29 3.08-7.66 7.4l-3.16 4.08q-2.66-12.32-3.63-24.86c-.84-10.72 2.58-22.77 5.71-32.97q3.87-9.48 9.51-18.13a.85.86 19.2 0 1 .78-.38q34.4 2.9 67.07 13.91 8.24 2.77 26.23 7.81 3.51.98 5.94.83a.46.45 77.7 0 1 .45.3l.1.26a.15.15 0 0 1-.14.2q-3.19.02-5.01 2.51a.74.74 0 0 0 .77 1.15q16.7-4.08 33.85-2.26.61.07.16.48-9.74 8.89-18.67 18.48zm-24.02-19.39c-7.98 3.72-13.9 8.39-15.85 16.78-.22.93-.96 2.23.11 3.09a.39.39 0 0 0 .61-.16c4.35-10.67 11.41-14.36 20.75-20.35q.44-.28-.08-.38-2.38-.45-5.54 1.02zm-17.83 15.03c-4.3 8-4.47 18.61 2.89 24.94a.68.68 0 0 0 1-.9c-5.17-7.42-4.1-15.2-3.05-23.8q.07-.58-.35-.56a.59.58 11.3 0 0-.49.32zm-7.68 1.47q-3.9 5.41-1.91 11.89a.45.45 0 0 0 .88-.05l2.08-11.4a.58.59 67.9 0 0-1.05-.44zm-46.68 74.23q-.69 1.59.05 3.12.23.48.48.01c6.24-11.39 6.1-23.49 5.72-37.01-.13-4.49.92-8.95 1.26-13.51a.61.61 0 0 0-.48-.64q-.55-.11-1.29.38-.68-4.93-.26-13.1.15-2.93-1.81-6.02-.28-.43-.33.08c-1.17 12.14-3.13 24.17-3.08 36.49q.06 12.98-.85 25.95-.07 1.05.59 4.25zm76.63 15.43 11.73-6.51a.61.61 0 0 0-.44-1.12q-6.9 1.74-11.92 6.8a.53.53 0 0 0 .63.83zm-9.68 10.13a.35.35 0 0 0 .43.53l9.61-5.45a.58.58 0 0 0-.44-1.07q-5.7 1.54-9.6 5.99zm-4.8 6.38c-.58.6-4.1 5.97-2.73 7.05a.42.42 0 0 0 .62-.12q5.83-10.13 16.6-14.76.39-.16.31-.43a.7.69 70.4 0 0-.9-.43q-8.61 3.18-13.9 8.69z"/><path fill="#19120d" d="M1828.13 318.345q.21.17.31.38a.38.39 72.2 0 1-.3.57l-5.26.55-1.75-.58-.17-.91q-.45-2.39 1.87-1.66zM1802.88 321.765l-.84.67a1.26 1.26 0 0 1-.91.27q-3.35-.34-6-2.44l-1.14-1.29a.43.43 0 0 1 .43-.71q5.36 1.33 8.46 3.5z"/><path  d="m1821.13 319.265 1.75.58q1.08.58 1.45 1.7a.73.74 83.5 0 0 .64.5c3.73.28 21.75 2.09 23.32 5.4a.46.46 0 0 1-.39.66l-20.74 1.14a.28.28 0 0 0-.07.55c10.64 3.69 22.46 6.55 31.21 13.57a.65.65 0 0 1-.06 1.06c-8.2 5.19-15.95 11.84-22.67 16.79q-4.7 3.46-9.5 6.95c-11.54-14.28-25.1-30.49-39.79-41.5q-.55-.41.12-.53l5.86-1.02a.56.56 0 0 0 .43-.74q-.2-.56-1.06-.61l3.5-3.5q2.65 2.1 6 2.44a1.26 1.26 0 0 0 .91-.27l.84-.67q1.57.47 3-.17c-.62 2.96 7.43 1.4 9.32 1.05.73-.13 1-.62.93-1.3q2.4 0 3.81-1.65a1.13 1.12 17.3 0 1 .77-.4z"/><path fill="#19120d" d="M1816.13 321.345c.07.68-.2 1.17-.93 1.3-1.89.35-9.94 1.91-9.32-1.05q5.07-1.74 10.25-.25zM1938.09 331.305q.43 5.42-.59 10.73-.09.46-.41.12l-.24-.24a.59.6 24.2 0 1-.16-.43q.29-9.42-3.07-18.28-.82-1.05-.56-2.05a.5.5 0 0 1 .9-.14q3.09 4.8 4.13 10.29zM1931.09 326.805q1.45 4.62 1.85 9.25a.31.31 0 0 1-.6.13l-5.25-14.13q-.09-.55.18-.78a.47.47 0 0 1 .71.13zM1848.82 323.435c11.74-2.71 27.03 10.33 26.28 22.81a.33.34 34.5 0 1-.64.12c-2.19-4.89-4.18-10.17-8-13.75q-7.25-6.81-17.57-7.98a.61.61 0 0 1-.07-1.2zM2032.26 341.855c1.95-8.39 7.87-13.06 15.85-16.78q3.16-1.47 5.54-1.02.52.1.08.38c-9.34 5.99-16.4 9.68-20.75 20.35a.39.39 0 0 1-.61.16c-1.07-.86-.33-2.16-.11-3.09z"/><path  d="m2291.09 443.305-.44-.32q-.33-.25-.74-.32c-5.72-.99-10.79-1.88-17.12-2.4-26.34-2.17-49.4-14.43-69.83-30.21-6-4.63-10.68-13.1-15.98-18.81-11.65-12.55-29.57-21.21-45.64-26.47a.99.98.7 0 1-.63-.64q-.18-.58-.12-1.08l.64-.45a.35.35 0 0 0-.01-.58q-1.7-1.08-3.84-1.01.08-.5-.03-.93a.86.87 89.5 0 0-.64-.62q-8.05-1.88-15.22-5.81c-7.73-4.22-16.11-6.14-24.77-7.34-1.74-.24-2.34-.85-3.35-2.14a1.31 1.35 77.5 0 0-.79-.49q-8.25-1.64-16.77-.43l17.47-17.09a.91.93 29.1 0 1 .85-.25c13.34 2.72 23.24 7.09 36.12 14.66q15.94 9.35 32.25 18.07c20.95 11.19 42.56 24.32 60.68 33.62 11.48 5.9 24.77 11.2 36.77 17.7q3.4 1.84 6.34 4.32.39.33-.12.27c-1.71-.2-5.39-1.76-6.76-.91q-1.3.82.14 1.36c6.77 2.57 12.83 5.5 18.27 10.62 5.68 5.33 11.16 9.74 13.27 17.68z"/><path fill="#19120d" d="M1871.46 327.145c3.27-.79 7.97 6.97 9.03 9.52a.28.28 0 0 1-.46.29l-8.69-9.42a.24.24 0 0 1 .12-.39z"/><path  d="M1824.92 369.805q-16.27 9.31-31.96 22.59c-14.18 12.01-22.48 26.47-20.03 45.91 2.75 21.89 33.91 35.46 51.47 42.93 6.89 2.93 11.21 5.6 15.76 10.79 8.27 9.44 18.43 29.62 34.62 18.37a.44.44 0 0 1 .61.62q-3.33 4.63-8.25 7.57a.7.7 0 0 0 .5 1.28q4.73-.99 7.97-4.15c.6-.57 1.14-.6 1.77-.12l-2.49 6.61a.58.58 0 0 0 .95.63q4.61-4.45 4.49-11.07 4-3.43 9.26-3.71l-.59 5.59a.53.54 9 0 0 .42.58c2.28.47 2.82-8.29 2.75-9.92l.56-.23a1.72 1.69 5.4 0 0 .7-.57l5.92-8.54q.28-.4.43-.86.69-2.06 2.77-2.69-.1 1.04.34 1.53a.36.36 0 0 0 .6-.1l.68-1.54 1.59.13a1.11 1.08 25.1 0 0 .84-.29q11.16-10.12 21.5-21.07.43-.46.3.16c-.36 1.75-3.44 8.98-2.16 9.77a1.24 1.22 36.6 0 0 1.56-.22c5.08-5.63 8.89-15.55 12.12-22.47q.44-.95 1.49-4.11.73-2.17 1.93-4l.83 3.55a.42.42 0 0 0 .66.25q.34-.25.04-1.03 1.72-1.27 3.41-3.49.73-.97 1.89-.43l-1.11 12.64a.44.45 62.5 0 0 .83.26c2.24-3.88 2.16-14.11 2.03-18.65 3.98-1.89 6.58 6.83 7.77 9.11q.82 1.56.65 3.64l.58 2.5c.79 10.46 2.16 31.23 12.73 37.83a.91.89 47.9 0 0 .86.05q1.47-.69 2.08.87.82 5.04 3.85 9.03a.64.64 0 0 0 .79.19q.45-.21.25-.65-2.16-4.92-2.6-10.28 3.48 2.94 6.17 6.51c-.48 5.64.77 14.43 5.29 18.47a.38.38 0 0 0 .62-.39q-2.78-8.89-4.04-17.13 1.48-.68 2.47.51a.96.97 66.5 0 0 .87.34l4.06-.56a.55.55 0 0 1 .61.65l-.71 3.66q-.09.45.03.9c2.54 9.5 12.19 4.12 15.71-1.44 6.39-10.06 13.51-15.32 24.96-20.82q12.89-6.18 25.39-13.09c15.35-8.47 36.24-25.17 32.12-45.4q-3.96-19.42-17.67-32.64c-6.02-5.8-16.56-12.34-24.17-19.61q11.66-16.48 25.22-31.3 8.52-1.21 16.77.43a1.31 1.35 77.5 0 1 .79.49c1.01 1.29 1.61 1.9 3.35 2.14 8.66 1.2 17.04 3.12 24.77 7.34q7.17 3.93 15.22 5.81a.86.87 89.5 0 1 .64.62q.11.43.03.93-3.77-.67-7.5-.15a.62.62 0 0 0-.54.59c-.05 1.35 9.84 1.51 11.25 1.6q-.06.5.12 1.08a.99.98.7 0 0 .63.64c16.07 5.26 33.99 13.92 45.64 26.47 5.3 5.71 9.98 14.18 15.98 18.81 20.43 15.78 43.49 28.04 69.83 30.21 6.33.52 11.4 1.41 17.12 2.4q.41.07.74.32l.44.32 1.86 5.05a.54.55 68.8 0 1-.31.69c-3.8 1.57-6.63.93-10.53.59q-24.22-2.09-43.22-10.61c-18.19-8.16-29.5-13.13-42.96-23.91-9.27-7.41-24.34-22.46-37.19-21.45a.69.7 3.3 0 0-.63.57c-.07.39.21.78.6.9q19.36 5.84 31.13 22.21 2.06 2.85 8.33 15.21c.01.86.11 2.11.61 2.87q6.26 9.45 12.32 19.05-3.49-3.11-7.43-4.51a.3.3 0 0 0-.31.49l14.06 13.85q3.67 6.69 7.3 18.43 2.38 7.72 2.51 12.32c5.07 20.12 13.68 43.92 31.77 56.35q7.62 12 12.43 22.6 2.79 6.12 6.2 10.41a.63.63 0 0 1 0 .78l-.5.65c-3.59-5.33-9.71-14.48-17.01-17.5a.62.62 0 0 0-.76.24q-.61.95.31 1.68c11.69 9.26 16.81 22.35 22.95 35.32.46.99 1.21 1.99 2.36.89q.68 2.48-1.35 3.37l-2.23-1.19a.99.97 44.4 0 0-.93 0c-1.72.95 5.33 7.86 8.22 10.82q.91.93-.38 1.82a.57.56 60.3 0 0-.19.71q.86 1.87-.74 3.09-1.29-1.77-2.83-1.06a.49.5 63.9 0 0-.24.68c14.92 28.17 15.17 56.73 10.87 86.94q-3.34 23.46-11.78 45.43a.49.49 0 0 1-.69.25c-23.36-13.25-46.96-27.28-72.15-36.71q-30.72-11.52-62.29-20.39c-21.47-6.03-43.57-10.1-65.36-14.82q-30.53-6.62-61.78-8.02c-1.05-.05-6.6-.52-6.93.6a.38.38 0 0 0 .41.49q1.68-.18 2.27-.15 34.83 1.55 60.5 7.23 20.92 4.63 41.89 9.04c30.63 6.44 60.96 16.12 90.21 27.19 25.47 9.64 48.79 23.49 72.43 36.84a.68.67 21.6 0 1 .32.73c-1.08 4.55-5.07 9.84-7.5 13.91a.73.73 0 0 0 .01.75l.18.28-2.75-.25q.18-3.65-1.28-6.95a.93.92 77.4 0 0-.86-.55l-.69.01a.5.5 0 0 0-.49.53l.71 12.69-4.46 9.3q-1.49-.12-1.71.52-5.74 17.18-16.88 32.32a.79.79 0 0 1-1.11.16c-28.33-21.45-55.79-43.91-86.71-61.33-22.48-12.67-41.55-24.33-61.94-35.38q-23.32-12.64-45.9-26.56-7.64-4.71-14.77-10.17a.49.49 0 0 0-.71.13c-1.8 2.89 53.28 33.69 58.64 36.6 16.92 9.18 36.91 21.53 49.69 28.6 21.41 11.82 40.29 23.22 58.6 37.16q21.27 16.22 42.37 32.74a.49.48 37.9 0 1 .09.68c-9.97 13.13-22.32 25.8-36.79 33.92-9.89 5.56-21.06 11.19-32.44 12.6a.36.37 57.3 0 0-.15.67c2.25 1.36 7.81.89 10.53 1.01 4.66.2 8.74-1.59 13.43 1.31 10.68 6.6 6.98 32.52 5.59 42.76q-.9 1.2-2.55.86a.83.83 0 0 0-.8.27q-.97 1.13-2.49.6.92-3.44-.47-6.1a.86.85 35 0 0-1.61.28q-.86 6.57-2.92 12.82-.82.62-1.75 1.09c-2.16 1.1-4.49 5.26-5.76 7.35a.64.63 50.5 0 0-.05.57l.12.28a.13.12 70.9 0 1-.07.16l-.95.34c-18.2-17.8-34.74-37.54-46.99-60.07q-10.2-18.76-19.85-33.49c-11.4-17.4-21.9-35.72-33.92-52.64-10.29-14.5-22.23-27.9-32.82-41.54-3.6-4.64-32.76-42.7-35.44-42.46q-.6.05-.21.51c15.36 17.96 29.29 36.94 44.51 54.96q12.27 14.51 23.26 30c7.9 11.15 15.6 24.34 23.26 36.58q1.03 1.64 10.8 16.42c8.34 12.59 15.29 25.92 22.89 38.95 11.78 20.19 25.91 35.87 43.49 53.87q-5.98 6.55-12.8 12.03c-8.24 6.61-16.13 11.61-26.47 15.4-11.45 4.2-18.78 6.07-31.45 7.83a.73.73 0 0 1-.76-.39l-.5-.96c2.83-.96 17.11-7.97 17.41-10.83a.85.84 77.9 0 0-1.26-.82q-9.32 5.33-17.72 10.78-.42.28-.04 1.29-3.79 1.77-8.64 2.5-43.49 6.56-63.44 11.37-24.15 5.82-48.37 11.39-9.54 2.19-41.37 5.89-38.06 4.42-88.57 4.93-5.29.06-21.27-.91c-23.25-1.39-46.05-6.27-68-14.08-20.31-7.23-43.14-19.25-54.56-38.41a.61.61 0 0 0-1.12.2c-.73 4.16-.59 10.56-3 14.19a1.11 1.08 11 0 1-.75.49l-6.26.98c-4.93-7.01-8.8-11.4-11.6-19.43a.43.43 0 0 0-.81-.01q-.88 2.4.16 5.19l-3.79 3.54q-4.43-5.5-6.48-12.46a.7.7 0 0 0-1.37.14q-.28 2.87.64 6.03-1.43 1.87-3.58.75.04-1.19-.23-1.7-3.88-7.51-5.48-15.9a.76.76 0 0 0-1.37-.29q-1.18 1.74-.92 4.39-2.57-.56-3.64 1.64a1.11 1.15 5.3 0 1-.69.59q-.73.23-1.34-.48-4.11-10.94-2.78-23.41a.48.48 0 0 0-.77-.43q-1.28.98-1.78 2.84-1.93-.69-2.46-2.83a.67.68 60 0 0-1.14-.3l-5.25 5.42a.68.68 0 0 1-1.08-.12c-2.07-3.44-2.77-10.66-3.1-14.67a.97.98 13.9 0 0-.44-.74q-.83-.54-.28-1.51c.34-7.83-1.3-16.31 1.59-26a.75.75 0 0 0-.25-.81c-1.57-1.25-2.71 1.24-3.3 2.6q-1.89.55-3.04-1.04 1.19-5.47 3.53-10.58a.63.63 0 0 0-.29-.82l-.67-.32a.71.71 0 0 0-.88.2q-2.53 3.24-3.44 7.27l-3.21-1.54c2.8-9.01 5.64-15.62 16.38-11.91 5.14 1.78 10.51 4.02 15.64 4.71q10.53 1.44 21.14-.65a.6.6 0 0 0-.09-1.19c-7.07-.25-14.69-.38-21.32-1.98-17.63-4.27-33.13-15.05-48.12-24.76a1.03 1.03 0 0 1-.22-1.54c17.67-20.43 35.74-41.19 56.48-58.59 28-23.5 59.9-45.66 92.7-60.42q43.42-19.53 92.76-33.97.36-.11.51-.44a.38.38 0 0 0-.34-.53q-1.73-.03-2.78.27-22.44 6.4-44.1 14.07a.94.92 67.7 0 1-1.15-.49q-.82-1.74-2.64-.86a.73.73 0 0 0-.35.93l.45 1.06a.58.59 67.9 0 1-.33.77c-32.64 12.6-60.85 24.57-89.39 43.56-27.08 18.03-50.15 35.99-71.48 58.24q-16.55 17.27-31.93 35.48a.49.5 43.1 0 1-.72.03q-4.09-4.04-7.45-8.63c-10.75-14.69-21.56-32.63-23.19-51.24-.07-.79-.41-1.41-.84-2.02a.52.53 28.8 0 0-.95.28l-.46 8.86-5-1.25q.06-8.3 1.29-16.41a.91.92 81.5 0 1 .52-.7q21.32-10.13 27.2-13.66c17.99-10.81 35.84-22.07 54.52-30.5 40.2-18.15 80.28-29.87 125.72-37.98 13.73-2.45 28.34-4.23 42.57-6.06 17.96-2.32 41.01-1.31 56.71-.6q1.7.08 3.26-.58.49-.2-.05-.25c-21.32-1.71-43.05-2.09-64.31.47q-38.95 4.69-79.31 14.39c-27.43 6.59-52.73 15.44-78.14 26.12-18.81 7.9-33.66 16.99-49.93 26.81-12.64 7.63-24.73 13.88-37.57 20.03a.33.34 79.7 0 1-.48-.33c.14-1.38 1.25-5.1-.29-5.79a.58.58 0 0 0-.78.31l-1.43 3.48q-1.79-.18-2.42-2-1.92-5.29-5.29-9.79c-7.48-19.18-9.42-40.55-9.93-60.96q-.38-15.51 2.72-27.24 3.25-12.28 4.24-19.08l4.12-9.94a.74.75 14.5 0 0-.6-1.03c-2.5-.28-2.74 2.61-5.59 1.54q4.19-7.13 10.58-13.28a1.59 1.6 44.9 0 0 0-2.31c-1.08-1.02-7.15 5.93-8 6.84q-.7-1.37-2.05-2.1a1.2 1.22 6 0 1-.57-.72l-.17-.64q6.56-15.95 13.38-31.79c7.02-16.3 14.75-30.05 24.62-44.49q11.46-16.76 19.52-36.99c1.76-3.87 17.47-36.97 19.23-37.06l.38.03a1.31 1.3 28.6 0 0 .93-.27q4.42-3.49 7.77-7.98a.99.99 0 0 0 0-1.18c-1.18-1.57-7.9 6.27-9.07 7.43q1.37-2.93 1.31-6.01-.01-.49.19-.94l2.24-5c3.94-3.71 6.4-9.42 8.82-14.22 4.73-9.42 14.07-18.02 24.1-27.4q4.58-4.29 7.3-9.54a.59.59 0 0 0-.92-.7c-4.62 4.25-9.05 8.4-14.03 12.43-9.32 7.55-18.46 15.78-27.88 22.55q-20 14.38-40.43 28.14c-13.12 8.84-24.92 20.68-36.91 31.35a1.43 1.43 0 0 1-2.28-.56q-1.86-4.91-.28-10.12 9.9-8.91 19.02-18.61c12.33-13.12 28.72-20.59 42.88-30.95 21.05-15.4 36.73-35.52 60-48.68.4-.23 1.48-.48 1.62.02q.54.92.94.71 7.19-3.9 15.1-5.89a.63.62 81.8 0 0 .48-.65c-.08-1.24-5.27-.28-6.49-.2q13.01-10.22 26.08-20.28c1.83-1.4 3.25-3.03 4.9-4.66a.53.54 43.9 0 0-.01-.76c-.59-.55-13.87 6.64-15.51 7.48q-.47.24-.09-.14 1.43-1.45 4.42-3.53 20.37-14.27 40.23-24.14c1.78-.88 2.97-2.12 4.44-3.4q7.54-1.72 15.16-2.98c.57-.1 1.03-.54.55-1.06l.08-2 6.51-.46a1.45 1.43 60 0 1 .9.25q3.52 2.43 5.63 4.38 18.64 17.26 34.21 37.33zm-141.24 28.37a.54.54 0 0 0 .7.8l8.25-4.79q1.31-.75-.2-.66-5.48.34-8.75 4.65zm506.62 36.24c2.39 4.48 6.29 7.61 10.94 9.13a.69.7 17.7 0 0 .88-.46c.41-1.35-9.67-8.49-10.96-9.43a.59.59 0 0 0-.86.76zm-537.97 16.94c-2.15.72-6.3 8.76-7.51 11.03a.42.42 0 0 0 .63.52q5.25-4.35 7.74-10.64a.69.69 0 0 0-.86-.91zm364.06 117.72q3.71 11.87 12.94 20.27c17.76 25.48 47.7 37.97 78.55 37.75l.34.44a1.4 1.44 81.2 0 0 .67.48q16.07 5.49 28.99 16.17c9.26 7.64 19.15 15.78 26.53 19.63 20.97 10.94 52.42 16.33 73.9 3.67 17.59-10.37 21.04-33.67 13.39-51.34q-2.11-4.89-3.61-9.61a.37.37 0 0 1 .67-.31q4.81 7.74 7.86 16.34.25.71.37-.03.54-3.31-.11-6.98c-2.62-14.79-10.47-25.88-21.48-37.1a.11.17 25.2 0 1-.02-.15l.08-.25a.15.14 28.7 0 1 .23-.06l10.12 8.35a.46.47 7.7 0 0 .72-.55c-6.69-15.23-18.5-19.76-32.4-27.72-6.14-3.52-12.06-8.12-17.39-12.94l-25.68-23.26c-2.97-2.7-7.38-6.89-10.45-11.3q-1.04-1.49-2.98-1.48-23.43-32.1-63.15-35.72c-9.75-.89-19.2 2.1-29.09 4.95-35.77 10.27-54.32 40.27-53.82 76.48 0 .29 1.87 12.99 4.82 14.27zm-311.14-58.18q-4.09 1.92-7.23 5.3-8.04 8.65-16.05 17.33c-13.82 14.99-28.3 28.03-44.65 40.97-8.71 6.9-17.41 14.91-24.76 24.13q-.34.43.21.44l.52.01a1.31 1.29 21.8 0 0 .93-.39q1.6-1.65 3.93-1.94a.47.47 0 0 1 .34.84c-12.07 9.2-17.36 20.79-21.29 35.77-7.26 27.63-3 65.98 34.71 66.47 26.15.34 55.55-7.83 76.47-23.51q11.18-8.37 22.25-19.05 35.53 9.66 72.23 11.45c15.12.74 31.64 4.36 46.57 1.06q.51-.11 0-.21-1.97-.38-3.93-.12-3.37.44-4.31.41c-14.72-.34-29.14-2.17-43.93-3q-33.39-1.86-65.63-11.09c11.36-11.85 21.49-17.82 34.24-25.08.81-.46.8-.72 1.01-1.59 21.08-2.63 41.68-10.67 57.04-25.29l1.46-.59q.46-.19.84-.5 8.44-6.82 15.91-14.7c12.12-12.97 11.19-36.75 6.23-52.25-6.46-20.2-16.06-39.3-35.09-50.56-11.94-7.07-30.69-11.61-44.26-10.98-27.72 1.28-47.24 15.47-63.76 36.67zm200.17 95.16q-3.79 4.73-7.06 9.86c-2.47 3.88-5.04 5.42-9.29 6.35a.73.73 0 0 0-.57.8l.11.83a.73.72 86.4 0 0 .72.64l6.44.03q.52 0 .98.25c5.51 2.93 10.02 1.39 14.89 2.74 6.18 1.72 11.29 9.42 14.88 14.99 1.51 2.34 3.61 4.11 5.57 6.01 3.11 3.16 4.29 12.91 4.52 17.23q.07 1.22 1.17 1.3a.67.67 0 0 0 .72-.66q.16-9.69 5.42-17.62 6.51-7.41 11.62-15.86c3.18-5.26 10.04-4.44 15.1-6.23 6.81-2.42 14.46.11 18.14-8.05a.95.95 0 0 0-1.24-1.26l-6.04 2.59a1.28 1.27 58.5 0 1-1.48-.36q-7.32-8.81-13.43-18.33 1.25-.97 2.1.33a1.26 1.24 81.5 0 0 .73.55c3.83 1.09 14.01 9.74 15.81.99q.82-3.98.3-7.55a1.19 1.2 13.3 0 0-.51-.83l-.97-.65a.78.78 0 0 1-.32-.82q2.43-11.12-3.42-20.73a.54.53 31.9 0 0-.99.23l-.62 7.33a.41.4 11.7 0 1-.54.35c-1.5-.49 1.98-10.53-4.89-10.14a.6.61 80.6 0 1-.62-.44c-2-7.71-4.53-16.31-11.77-20.7a.76.77 89.6 0 0-1.05 1.06l3.99 6.36a.44.44 0 0 1-.61.61c-6.4-4.05-12.83-8.51-17.5-14.58-2.44-3.16-4.76 2.65-6.53 4.03-4.57 3.58-8.72 7.33-13.82 10.21-12.48 7.07-24.5 12.85-28.68 27.69q-2.09 7.41-.12 14.91a1.54 1.58 49 0 1-.08 1l-3.98 8.98a2.25 2.16 28.3 0 0 .88 2.74c2.74 1.76 9.09-4.12 10.48-6.12a.9.88 19.6 0 1 .8-.37q.46.05.76.31zm-15.498 57.662a1.39 1.77 21.1 0 0 1.934-1.151 1.39 1.77 21.1 0 0-.66-2.152 1.39 1.77 21.1 0 0-1.934 1.15 1.39 1.77 21.1 0 0 .66 2.153zm51.897 43.148c40.32 2.95 72.84 37.06 85.01 74.65q.16.49.17-.03.12-4.84-1.59-9.45c-5.8-15.67-15.25-32.95-27.51-44.49q-12.16-11.45-25.7-21.19c-5.44-3.91-11.99-7.45-18.02-11.15-9.39-5.76-12.25-14.1-14.48-24.17a.97.96 4.8 0 0-.59-.69c-1.25-.5-1.74.24-1.76 1.44-.17 11.32-5.02 22.26-14.93 28.13q-20.01 11.84-37.48 27.08c-13.28 11.59-23.73 22.19-31.62 37.19a.37.38 76.5 0 0 .64.39q17.57-24.66 42.79-40.14c12.57-7.71 30.17-18.66 45.07-17.57zm85.74-34.09q50.46-3.96 100.02 5.98 19.04 3.82 38.04 7.84 2.4.51 5.71.12.53-.06.02-.19c-4.26-1.15-9.04-1.76-12.94-2.73-23.3-5.78-47.29-10.39-71.23-12.39-17.3-1.46-31.78-1.06-47.73-.64q-6.12.16-12.18 1.22a.39.39 0 0 0-.24.62q.16.2.53.17zm-32.34 3.02c1.86.43 4.92-1.13 2.42-2.86a.83.84 38.3 0 0-1.09.13l-1.63 1.79a.57.57 0 0 0 .3.94zm-116.02 16.44q1.79-.32 2.19-2.19a.71.71 0 0 0-.41-.8c-1.56-.7-3.69.77-2.57 2.63a.77.77 0 0 0 .79.36zm109.552-1.835a1.44 2.03 58 0 0-2.485-.146 1.44 2.03 58 0 0-.958 2.297 1.44 2.03 58 0 0 2.484.146 1.44 2.03 58 0 0 .959-2.297zm19.653 3.617a1.93 1.61 9.3 0 0-1.645-1.9 1.93 1.61 9.3 0 0-2.164 1.276 1.93 1.61 9.3 0 0 1.644 1.901 1.93 1.61 9.3 0 0 2.165-1.277zm-271.805 179.758q8.65-26.23 13.5-37.73c7.48-17.77 17.58-34.56 28.66-52.39 20.69-33.3 46.78-62.34 80.82-82.81a.41.53 22 0 0-.26-.91l-4.58 2.57a.4.4 0 0 1-.57-.51l.48-1.11a.73.74 35.3 0 0-.13-.79c-.81-.88-2.33.11-2.83.91a.99.97 51.5 0 0-.09.85l.47 1.33a.79.79 0 0 1-.32.93c-30.3 19.44-55.05 47.77-73.9 78.1q-15.66 25.2-21.39 36.41c-8.92 17.43-14.99 35.9-21.5 54.43a.97.98 18.1 0 1-1.2.61c-2.82-.83-20.11-6.81-21.47-3.19a.37.38 18.2 0 0 .24.49l20.47 6.03a.71.7 18.7 0 1 .46.92c-7.73 21.05-13.51 44.85-13.79 67.33q-.01.53.1.01.71-3.19 1.85-11.96 3.66-28.07 13.31-55.29a.56.56 0 0 1 .67-.36q8.99 2.32 17.81-.31a.96.95 9.8 0 0 .46-.32q1.47-1.87-1-1.72-8.02.49-15.94-.96a.43.43 0 0 1-.33-.56zm119.86-10.53c.87.35 12.84-4.67 14.4-5.27a.44.45 28.5 0 0-.25-.85q-7.6 1.62-14.18 5.75a.21.21 0 0 0 .03.37zm17.51.08c17.89-5.35 31.03 1.4 46.18 10.81a.55.55 0 0 0 .75-.77c-9.35-13.71-32.73-18.27-47.22-11.92a.83.84 72.5 0 0-.48.91l.1.56a.53.53 0 0 0 .67.41zm43.73.05c1.49 4.22 5.51 9.99 9.85 11.54a.49.49 0 0 0 .55-.77l-9.22-11.42a.68.68 0 0 0-1.18.65zm-217.64 5.29 6.75-2.22a.64.64 0 0 0-.03-1.22c-1.72-.46-8.69-.33-7.58 3.01a.68.69 72 0 0 .86.43zm310.38 9.69c20.61 1.27 38.24-10.56 58.08-9.91a.53.54 57 0 0 .22-1.03c-8.61-3.45-16.51-1.03-24.9 1.72q-16.06 5.25-32.72 8.07-.74.13-.95.74a.3.31 11.4 0 0 .27.41zm-81.22-12.03c.6 2.63 4.44 7.78 7.73 8.12q.89.1.27-.55l-7.54-7.81q-.67-.69-.46.24zm78.77 10.01a.6.62 53.5 0 0 .45.06c3.82-.93 11.62-2.99 13.97-6.4a.77.77 0 0 0-.93-1.15l-14.52 5.98a.48.49 48.8 0 0-.06.87zm-15.61-2.36c-.47 3.14 11.53-1.2 12.81-1.86a.45.45 0 0 0-.29-.85l-11.9 2.08a.75.77 88.8 0 0-.62.63zm166.01-.46c.32 3.13 10.31 3.42 12.62 3.06a.84.84 0 0 0 .02-1.65l-11.88-2.11a.65.64 2.1 0 0-.76.7zm9.28 73.09c4.37.41 9.21-8.73 6.04-9.26a.83.82 22.3 0 0-.82.34l-5.64 8a.59.58 20.5 0 0 .42.92zm-17.98 11.39c1.28 1.12 8.13-6.7 9.01-8.03a.85.84 46.7 0 0 .02-.88c-.74-1.22-1.83-.87-2.7.06q-3.51 3.75-7.18 7.33a.79.81 58 0 0-.2.84q.17.51.73.55a.55.53 66 0 1 .32.13zm-7.84-6.96q-6.06 8.25-13.75 15.1a.74.74 0 0 0 .69 1.26c6.97-1.93 12.88-10.2 15.87-16.4q.8-1.66-1.03-1.44c-1.16.13-1.22.72-1.78 1.48z"/><path fill="#19120d" d="M1882.5 328.745q3.72 3.06 5.11 7.7a.56.56 0 0 1-1.02.46l-4.69-7.65a.4.4 0 0 1 .6-.51zM1777.59 330.305c.48.52.02.96-.55 1.06q-7.62 1.26-15.16 2.98-17.83 4.2-34.27 13.42-32.74 18.37-61.07 35.02c-18.6 10.93-36.38 23.66-54.47 35.46q-12.87 8.39-27.94 24.52c-.84.88-6.17 7.06-6.94 6.81a.68.67 23.3 0 1-.39-.97q3.21-5.82 7.83-10.56c12.19-12.55 24.04-20.99 39.93-31.99 13.05-9.04 26.01-18.17 39.74-26.28q27.03-15.96 54.27-31.57c17.72-10.16 36.86-18.56 57.49-18.46q.5 0 .94.24z"/><path  d="M1761.88 334.345c-1.47 1.28-2.66 2.52-4.44 3.4q-19.86 9.87-40.23 24.14-2.99 2.08-4.42 3.53-.38.38.09.14c1.64-.84 14.92-8.03 15.51-7.48a.53.54 43.9 0 1 .01.76c-1.65 1.63-3.07 3.26-4.9 4.66q-13.07 10.06-26.08 20.28-5.45 2.17-10.03 6.03c-.14-.5-1.22-.25-1.62-.02-23.27 13.16-38.95 33.28-60 48.68-14.16 10.36-30.55 17.83-42.88 30.95q-9.12 9.7-19.02 18.61 3.59-14.72 12.6-27.29a.27.27 0 0 0-.33-.4l-.97.47q-.2-1.19-1.29-1.79 6.36-7.28 15.59-14.23a.78.78 0 0 0-.47-1.41q-.98 0-2.58 1.18-.74-1.44-2.29-1.79 15.07-16.13 27.94-24.52c18.09-11.8 35.87-24.53 54.47-35.46q28.33-16.65 61.07-35.02 16.44-9.22 34.27-13.42z"/><path  d="M2058.63 339.015c-2.44 1.06-16.05 4.06-14.7 8.12a.4.4 0 0 0 .61.2c1.18-.8 6.39-4.45 7.53-4.31a.24.25 15.4 0 1 .19.34l-.65 1.54q-.54 1.25.59.5 3.95-2.6 7.16-6.28 1.46-.69 3.43-.19a.44.44 0 0 1 .22.72l-1.8 2.02a.86.87 56.9 0 0-.18.84q.34 1.09 1.33 1.36 4.43 1.2 9.77.59-12.39 14.14-23.25 29.38c-7.31-7.68-14.98-22.44-5.51-31.05 3.16-2.87 5-6.1 9.04-8.05q.44-.21.4.28-.22 2.92 2.48 3.27a1.24 1.27 33.7 0 0 .79-.17q.94-.59 2.02-.58a.54.55 0 0 1 .53.54z"/><path fill="#19120d" d="m2058.63 339.015.73.11q-3.21 3.68-7.16 6.28-1.13.75-.59-.5l.65-1.54a.24.25 15.4 0 0-.19-.34c-1.14-.14-6.35 3.51-7.53 4.31a.4.4 0 0 1-.61-.2c-1.35-4.06 12.26-7.06 14.7-8.12zM2030.28 340.105a.59.58 11.3 0 1 .49-.32q.42-.02.35.56c-1.05 8.6-2.12 16.38 3.05 23.8a.68.68 0 0 1-1 .9c-7.36-6.33-7.19-16.94-2.89-24.94zM2022.6 341.575a.58.59 67.9 0 1 1.05.44l-2.08 11.4a.45.45 0 0 1-.88.05q-1.99-6.48 1.91-11.89z"/><path  d="M1981.66 368.155q-2.87 11.57-2.28 26.65.38 9.73-3.46 21-.66-3.2-.59-4.25.91-12.97.85-25.95c-.05-12.32 1.91-24.35 3.08-36.49q.05-.51.33-.08 1.96 3.09 1.81 6.02-.42 8.17.26 13.1z"/><path fill="#282119" d="M2137.38 361.015q2.14-.07 3.84 1.01a.35.35 0 0 1 .01.58l-.64.45c-1.41-.09-11.3-.25-11.25-1.6a.62.62 0 0 1 .54-.59q3.73-.52 7.5.15z"/><path  d="M1912.59 418.805c-4.11-11.25-4.27-23.07-2.29-34.81q.93-5.54-2.05-9.6l.3-.11a.76.8 88.6 0 0 .46-.46q2.28-6.14 2.17-12.66a.32.32 0 0 1 .6-.17c4.28 7.15 3.25 20.76 1.9 27.83q-2.79 14.68-.89 26.99c.17 1.1-.08 1.91-.2 2.99zM1954.42 373.305l-.72-.61a.69.69 0 0 0-.81-.07l-.72.43q2.37-4.32 7.66-7.4a.8.8 0 0 1 1.03 1.18q-2.56 3.32-6.44 6.47z"/><path fill="#19120d" d="M1975.92 415.805q3.84-11.27 3.46-21-.59-15.08 2.28-26.65.74-.49 1.29-.38a.61.61 0 0 1 .48.64c-.34 4.56-1.39 9.02-1.26 13.51.38 13.52.52 25.62-5.72 37.01q-.25.47-.48-.01-.74-1.53-.05-3.12zM1932.6 371.545q8.16 9.49 11.88 21.29.15.47.37.02l5.28-10.76 4.7-5.84a.37.37 0 0 1 .6.43q-6.32 10.22-8.24 21.83c-1.52 9.16-.44 19.87-1.12 29.79q-.81 11.89-1.2 23.67.3.78-.04 1.03a.42.42 0 0 1-.66-.25l-.83-3.55c-2.02-27.91 4.44-54.23-12.97-78.4a1.42 1.44 29.1 0 1-.26-.94l.02-.33q.02-.31.25-.09zM1855.39 384.305c.63-5.82 6.75-10.36 11.94-12.03a.41.41 0 0 1 .36.72c-3.57 2.59-6.87 4.96-9.34 8.68q-1.07 1.62-2.61 2.82-.41.33-.35-.19z"/><path fill="#282119" d="m1954.42 373.305-5.58 8.25-1.09 1.55q-.46.67-.26-.12l1.52-5.85 3.16-4.08.72-.43a.69.69 0 0 1 .81.07z"/><path fill="#19120d" d="M1908.25 374.395q2.98 4.06 2.05 9.6c-1.98 11.74-1.82 23.56 2.29 34.81q.11.72-.29 1.21a.53.53 0 0 1-.87-.09c-8.42-15.89-4.68-28.26-3.18-45.53zM1687.39 389.805q4.58-3.86 10.03-6.03c1.22-.08 6.41-1.04 6.49.2a.63.62 81.8 0 1-.48.65q-7.91 1.99-15.1 5.89-.4.21-.94-.71zM1683.68 398.175q3.27-4.31 8.75-4.65 1.51-.09.2.66l-8.25 4.79a.54.54 0 0 1-.7-.8zM1646.38 456.095c-2.74-.52 4.02-13.86 4.9-15.61a.36.36 0 0 0-.5-.47c-15.61 8.65-30.08 22.59-43.84 34.62a.42.42 0 0 1-.61-.57l5.98-7.81q.68-.89-.26-.28-13.5 8.76-25.34 19.66-.41.39.14.51c17.28 3.8 23.07 23.25 24.59 38.64q.05.48.25.04 4.34-9.86 11.71-17.75-8.06 20.23-19.52 36.99c-9.87 14.44-17.6 28.19-24.62 44.49q-6.82 15.84-13.38 31.79c-3.12-.49.57-9.89 1.55-12.36q7.77-19.57 11.88-28.75c7.57-16.93 18.8-33.26 29.15-49.17a1.36 1.37 58.3 0 0 .22-.92q-1.35-10.95-5.81-23.57-4.89-13.83-18.68-16.66a1.05 1.06 31.3 0 0-.88.22q-6.1 5.24-11.96 10.65c-4.49 4.12-10.17 6.09-11.48-2.01-2.02-12.43 6.11-28.78 15.3-36.97l.97-.47a.27.27 0 0 1 .33.4q-9.01 12.57-12.6 27.29-1.58 5.21.28 10.12a1.43 1.43 0 0 0 2.28.56c11.99-10.67 23.79-22.51 36.91-31.35q20.43-13.76 40.43-28.14c9.42-6.77 18.56-15 27.88-22.55 4.98-4.03 9.41-8.18 14.03-12.43a.59.59 0 0 1 .92.7q-2.72 5.25-7.3 9.54c-10.03 9.38-19.37 17.98-24.1 27.4-2.42 4.8-4.88 10.51-8.82 14.22zM1916.94 412.095a.57.57 0 0 1 1.09-.1c1.29 3.34-1.25 12.86-1.94 16.66a.48.48 0 0 1-.62.37l-.35-.12a.66.67 8.7 0 1-.45-.62c-.01-1.69-.47-3.22-.08-4.87q1.26-5.37 2.35-11.32z"/><path  d="M2227.23 495.055q-.13-4.6-2.51-12.32-3.63-11.74-7.3-18.43-.22-2.53-2.35-4.69-1.75-1.77-3.97-5.14-6.06-9.6-12.32-19.05c-.5-.76-.6-2.01-.61-2.87 4-2-1.86-10.98-3.4-13.56a.25.24 6.4 0 1 .38-.3q7.39 6.89 16.24 11.63 23.43 12.55 48.59 19.8a.53.53 0 0 1 .14.96q-18.83 12.34-27.35 32.93c-.43 1.05-.61 2.66-1.04 3.85q-.17.5-.37.01l-1.95-4.88a.55.55 0 0 0-1.06.26l1.43 13.27q.06.57-.39.22z"/><path fill="#19120d" d="M2052.55 431.235a.53.53 0 0 1-.63-.83q5.02-5.06 11.92-6.8a.61.61 0 0 1 .44 1.12zM1917.86 427.295l.32-.15a.6.58 46 0 1 .56.02c.88.54.12 12.16.22 14.59a.76.76 0 0 1-.22.58c-2.74 2.87-2.34-12.98-1.51-14.24a.12 1.24 32.7 0 1 .63-.8zM2201.24 443.545c-4.65-1.52-8.55-4.65-10.94-9.13a.59.59 0 0 1 .86-.76c1.29.94 11.37 8.08 10.96 9.43a.69.7 17.7 0 1-.88.46zM2042.87 441.365q3.9-4.45 9.6-5.99a.58.58 0 0 1 .44 1.07l-9.61 5.45a.35.35 0 0 1-.43-.53zM1951.92 442.305c.13 4.54.21 14.77-2.03 18.65a.44.45 62.5 0 1-.83-.26l1.11-12.64.92-8.19q.07-.61.35-.07.58 1.16.48 2.51zM2038.07 447.745q5.29-5.51 13.9-8.69a.7.69 70.4 0 1 .9.43q.08.27-.31.43-10.77 4.63-16.6 14.76a.42.42 0 0 1-.62.12c-1.37-1.08 2.15-6.45 2.73-7.05z"/><path  d="m1646.38 456.095-2.24 5q-.2.45-.19.94.06 3.08-1.31 6.01-.37 1.03-.01 1.97c-1.76.09-17.47 33.19-19.23 37.06q-7.37 7.89-11.71 17.75-.2.44-.25-.04c-1.52-15.39-7.31-34.84-24.59-38.64q-.55-.12-.14-.51 11.84-10.9 25.34-19.66.94-.61.26.28l-5.98 7.81a.42.42 0 0 0 .61.57c13.76-12.03 28.23-25.97 43.84-34.62a.36.36 0 0 1 .5.47c-.88 1.75-7.64 15.09-4.9 15.61z"/><path fill="#19120d" d="M1816.5 443.965q-1.5-1.02-2.23-2.28a.51.51 0 0 1 .67-.71c6.99 3.59 13.97 6.7 18.8 13.45q3.35 4.69 7.57 11.27a.51.51 0 0 1-.69.72c-2.95-1.68-7.76-8.97-9.93-11.92-3.5-4.76-9.33-7.19-14.19-10.53zM1573.88 459.015c-1.2 1.31-5.27 7.54-6.42 7.77a.59.59 0 0 1-.67-.77c3.4-9.54 11.29-16.31 19.63-21.46q1.6-1.18 2.58-1.18a.78.78 0 0 1 .47 1.41q-9.23 6.95-15.59 14.23zM2211.1 454.475q2.22 3.37 3.97 5.14 2.13 2.16 2.35 4.69l-14.06-13.85a.3.3 0 0 1 .31-.49q3.94 1.4 7.43 4.51zM1644.82 462.385c1.21-2.27 5.36-10.31 7.51-11.03a.69.69 0 0 1 .86.91q-2.49 6.29-7.74 10.64a.42.42 0 0 1-.63-.52z"/><path  d="m1960.92 457.555-.58-2.5q-.16-1.59.36-3.03.18-.52.35 0 .89 2.77-.13 5.53z"/><path fill="#19120d" d="M1642.63 470.015q-.36-.94.01-1.97c1.17-1.16 7.89-9 9.07-7.43a.99.99 0 0 1 0 1.18q-3.35 4.49-7.77 7.98a1.31 1.3 28.6 0 1-.93.27z"/><path fill="#282119" d="M2157.63 509.095c11.47 16.77 18.89 37.77 17.18 58.19-1.07 12.84-3.84 28.04-13.16 37.79q-13.27 13.87-31.52 18.19-1.06-1.46-1.08-3.17a.66.64 8.5 0 0-.47-.62l-.7-.21c24.12-9.46 38.81-31.21 42.36-56.3 1.73-12.26-3.07-33.14-11.52-42.59q-4.04-4.51-8.49-9.49a.49.49 0 0 0-.81.55c20.16 40.11 3.3 91.16-45.13 96.65-26.45 3-49.37-9.62-61.85-32.8-14.9-27.66-10.9-59.59 9.9-83q.34-.38-.14-.2-3.27 1.22-6.63 4.41-22.17 21.11-23.04 51.28-1.28 4.03-3.22 7.72c-.27.5-.16.78-.22 1.31-1.68-11.6.59-22.29 3.56-33.44q.12-.48-.11-.04c-7.92 14.83-10.29 29.15-6.15 45.75-2.95-1.28-4.82-13.98-4.82-14.27-.5-36.21 18.05-66.21 53.82-76.48 9.89-2.85 19.34-5.84 29.09-4.95q39.72 3.62 63.15 35.72zm-84.51 9.74c5.02 7.57 19.15-4.77 23.54-8.74 8.83-7.99-.43-16-9-13.79-8.39 2.18-21.01 12.76-14.54 22.53zm-9.06 37.41c-1 24.6 21.93 39.82 44.69 32.51 12.89-4.14 21.73-15.26 24.72-28.37a.25.25 0 0 0-.46-.19c-17.22 27.08-56.3 28.63-68.4-4.04a.28.29 35.9 0 0-.55.09zM1842.13 588.015l-.04-.55a1.39 1.41 57.3 0 1 .18-.79c6.66-11.93 6.29-23.53 5.54-36.92q-.01-.27-.19-.07l-.21.23a.78.82 66.3 0 0-.21.51c-.22 11.42-2.66 25.25-9.28 35.13q-2.46-.63-1.98-2.96.1-.47-.34-.28l-.47.2q6.9-13.34 7.5-28.96 1.3-33.89-24.99-53.69-.4-.3-.08.08 21.89 25.75 16.6 58.62c-9.01 55.99-84.52 72.77-114.19 23.24-14.23-23.76-10.6-54.8 4.29-76.88a.46.46 0 0 0-.67-.62q-10.75 8.52-18.71 19.29-.78-.13-.93.32-.38 1.16-.34.17l.03-.69a.56.56 0 0 0-.66-.57l-.35.06a.65.65 0 0 1-.7-.35l-1.51-2.98 4.83-8.66c16.52-21.2 36.04-35.39 63.76-36.67 13.57-.63 32.32 3.91 44.26 10.98 19.03 11.26 28.63 30.36 35.09 50.56 4.96 15.5 5.89 39.28-6.23 52.25zm-93.14-72.87c-.12 5.23 4.17 10.49 9.72 6.98q5.7-3.62 14.68-10.31c3.98-2.95 5.98-7.49 1.15-10.92-5.13-3.66-9.96-1.87-15.2 1.08-4.37 2.47-10.23 7.71-10.35 13.17zm-7.14 43.9c2.9 41.96 63.46 46.26 69.98 3.86a.21.21 0 0 0-.38-.14c-17.06 27.32-56.36 28.28-69.45-3.76q-.19-.46-.15.04z"/><path fill="#19120d" d="m1904.17 491.305-.68 1.54a.36.36 0 0 1-.6.1q-.44-.49-.34-1.53c-.04-3.56.4-10.79 3.06-13.67a.47.47 0 0 1 .81.4zM1978.88 494.595q.44 5.36 2.6 10.28.2.44-.25.65a.64.64 0 0 1-.79-.19q-3.03-3.99-3.85-9.03-.51-4.8.46-9.52a.49.49 0 0 1 .62-.37c.77.24.92 7 1.21 8.18z"/><path fill="#fffefe" d="M2127.88 619.265c-23.96 7.31-48.8 2.94-70.27-9.47-24.2-13.99-33.5-34.61-35.08-62.02q.87-30.17 23.04-51.28 3.36-3.19 6.63-4.41.48-.18.14.2c-20.8 23.41-24.8 55.34-9.9 83 12.48 23.18 35.4 35.8 61.85 32.8 48.43-5.49 65.29-56.54 45.13-96.65a.49.49 0 0 1 .81-.55q4.45 4.98 8.49 9.49c8.45 9.45 13.25 30.33 11.52 42.59-3.55 25.09-18.24 46.84-42.36 56.3z"/><path  d="M2073.12 518.835c-6.47-9.77 6.15-20.35 14.54-22.53 8.57-2.21 17.83 5.8 9 13.79-4.39 3.97-18.52 16.31-23.54 8.74zM1758.71 522.125c-5.55 3.51-9.84-1.75-9.72-6.98.12-5.46 5.98-10.7 10.35-13.17 5.24-2.95 10.07-4.74 15.2-1.08 4.83 3.43 2.83 7.97-1.15 10.92q-8.98 6.69-14.68 10.31z"/><path fill="#fffefe" d="M1835.13 582.515q-17.74 28.82-50.25 38.54-22.43 6.71-42.99 2.49c-21.68-4.45-42.46-21.85-47.29-44.02q-6.55-30.09 10.28-55.93 7.96-10.77 18.71-19.29a.46.46 0 0 1 .67.62c-14.89 22.08-18.52 53.12-4.29 76.88 29.67 49.53 105.18 32.75 114.19-23.24q5.29-32.87-16.6-58.62-.32-.38.08-.08 26.29 19.8 24.99 53.69-.6 15.62-7.5 28.96z"/><path fill="#19120d" d="M1892.17 504.305c.07 1.63-.47 10.39-2.75 9.92a.53.54 9 0 1-.42-.58l.59-5.59c.17-1.39.38-8.28 1.89-8.38a.54.53 86.9 0 1 .57.52zM1986.92 502.055q1.26 8.24 4.04 17.13a.38.38 0 0 1-.62.39c-4.52-4.04-5.77-12.83-5.29-18.47l1.02-.78a.45.45 0 0 1 .69.2q.28.7.16 1.53z"/><path  d="M2157.63 509.095q1.94-.01 2.98 1.48c3.07 4.41 7.48 8.6 10.45 11.3l25.68 23.26c5.33 4.82 11.25 9.42 17.39 12.94 13.9 7.96 25.71 12.49 32.4 27.72a.46.47 7.7 0 1-.72.55l-10.12-8.35a.15.14 28.7 0 0-.23.06l-.08.25a.11.17 25.2 0 0 .02.15c11.01 11.22 18.86 22.31 21.48 37.1q.65 3.67.11 6.98-.12.74-.37.03-3.05-8.6-7.86-16.34a.37.37 0 0 0-.67.31q1.5 4.72 3.61 9.61c7.65 17.67 4.2 40.97-13.39 51.34-21.48 12.66-52.93 7.27-73.9-3.67-7.38-3.85-17.27-11.99-26.53-19.63q-12.92-10.68-28.99-16.17a1.4 1.44 81.2 0 1-.67-.48l-.34-.44q11.31-.88 22.25-3.83 18.25-4.32 31.52-18.19c9.32-9.75 12.09-24.95 13.16-37.79 1.71-20.42-5.71-41.42-17.18-58.19zM1705.25 510.895l-4.83 8.66c-8.95 17.49-14.1 37.02-10.86 56.06 2.87 16.88 11.6 30.81 25.55 40.61a.233.233 0 0 1-.24.4c-11.17-5.49-21.03-13.01-26.45-24.72a.2.2 0 0 0-.25-.11l-.27.08a.37.38 73.3 0 0-.25.46c4.26 14.8 17.21 25.36 30.8 31.19 14.26 6.13 32.8 6.61 48.43 5.57-.21.87-.2 1.13-1.01 1.59-12.75 7.26-22.88 13.23-34.24 25.08-21.08-5.52-42.14-13.2-59.36-26.95q-.43-.34-.32.19.2.93.82 1.45c16.85 14.06 37.8 20.86 57.86 26.81q-11.07 10.68-22.25 19.05c-20.92 15.68-50.32 23.85-76.47 23.51-37.71-.49-41.97-38.84-34.71-66.47 3.93-14.98 9.22-26.57 21.29-35.77a.47.47 0 0 0-.34-.84q-2.33.29-3.93 1.94a1.31 1.29 21.8 0 1-.93.39l-.52-.01q-.55-.01-.21-.44c7.35-9.22 16.05-17.23 24.76-24.13 16.35-12.94 30.83-25.98 44.65-40.97q8.01-8.68 16.05-17.33 3.14-3.38 7.23-5.3z"/><path fill="#19120d" d="M1880.33 511.765q.12 6.62-4.49 11.07a.58.58 0 0 1-.95-.63l2.49-6.61c.46-1.11 1.32-4.57 2.95-3.83zM1700.42 519.555l1.51 2.98a.65.65 0 0 0 .7.35l.35-.06a.56.56 0 0 1 .66.57l-.03.69q-.04.99.34-.17.15-.45.93-.32-16.83 25.84-10.28 55.93c4.83 22.17 25.61 39.57 47.29 44.02q20.56 4.22 42.99-2.49 32.51-9.72 50.25-38.54l.47-.2q.44-.19.34.28-.48 2.33 1.98 2.96c-4.08 7.23-9.22 12.05-14 18.25-15.36 14.62-35.96 22.66-57.04 25.29-15.63 1.04-34.17.56-48.43-5.57-13.59-5.83-26.54-16.39-30.8-31.19a.37.38 73.3 0 1 .25-.46l.27-.08a.2.2 0 0 1 .25.11c5.42 11.71 15.28 19.23 26.45 24.72a.233.233 0 0 0 .24-.4c-13.95-9.8-22.68-23.73-25.55-40.61-3.24-19.04 1.91-38.57 10.86-56.06z"/><path  d="M2019.09 556.805q1.71 17.31 10.24 32.54-9.23-8.4-12.94-20.27c-4.14-16.6-1.77-30.92 6.15-45.75q.23-.44.11.04c-2.97 11.15-5.24 21.84-3.56 33.44z"/><path  d="M1966.59 601.305c-6.65-8.04-14.67-5.55-23.36-3.52-13.71 3.21-28.54-9.25-37.81 8.27q-.3-.26-.76-.31a.9.88 19.6 0 0-.8.37c-1.39 2-7.74 7.88-10.48 6.12a2.25 2.16 28.3 0 1-.88-2.74l3.98-8.98a1.54 1.58 49 0 0 .08-1q-1.97-7.5.12-14.91c4.18-14.84 16.2-20.62 28.68-27.69 5.1-2.88 9.25-6.63 13.82-10.21 1.77-1.38 4.09-7.19 6.53-4.03 4.67 6.07 11.1 10.53 17.5 14.58a.44.44 0 0 0 .61-.61l-3.99-6.36a.76.77 89.6 0 1 1.05-1.06c7.24 4.39 9.77 12.99 11.77 20.7a.6.61 80.6 0 0 .62.44c6.87-.39 3.39 9.65 4.89 10.14a.41.4 11.7 0 0 .54-.35l.62-7.33a.54.53 31.9 0 1 .99-.23q5.85 9.61 3.42 20.73a.78.78 0 0 0 .32.82l.97.65a1.19 1.2 13.3 0 1 .51.83q.52 3.57-.3 7.55c-1.8 8.75-11.98.1-15.81-.99a1.26 1.24 81.5 0 1-.73-.55q-.85-1.3-2.1-.33z"/><path fill="#19120d" d="M2022.53 547.775c1.58 27.41 10.88 48.03 35.08 62.02 21.47 12.41 46.31 16.78 70.27 9.47l.7.21a.66.64 8.5 0 1 .47.62q.02 1.71 1.08 3.17-10.94 2.95-22.25 3.83c-30.85.22-60.79-12.27-78.55-37.75q-8.53-15.23-10.24-32.54c.06-.53-.05-.81.22-1.31q1.94-3.69 3.22-7.72z"/><path  d="M1842.13 588.015q-7.47 7.88-15.91 14.7-.38.31-.84.5l-1.46.59c4.78-6.2 9.92-11.02 14-18.25 6.62-9.88 9.06-23.71 9.28-35.13a.78.82 66.3 0 1 .21-.51l.21-.23q.18-.2.19.07c.75 13.39 1.12 24.99-5.54 36.92a1.39 1.41 57.3 0 0-.18.79z"/><path fill="#e1c86c" d="M2108.75 588.755c-22.76 7.31-45.69-7.91-44.69-32.51a.28.29 35.9 0 1 .55-.09c12.1 32.67 51.18 31.12 68.4 4.04a.25.25 0 0 1 .46.19c-2.99 13.11-11.83 24.23-24.72 28.37zM1811.83 562.905c-6.52 42.4-67.08 38.1-69.98-3.86q-.04-.5.15-.04c13.09 32.04 52.39 31.08 69.45 3.76a.21.21 0 0 1 .38.14z"/><path fill="#19120d" d="M2277.13 585.845q5.7 9.65 7.85 20.63c-1.15 1.1-1.9.1-2.36-.89-6.14-12.97-11.26-26.06-22.95-35.32q-.92-.73-.31-1.68a.62.62 0 0 1 .76-.24c7.3 3.02 13.42 12.17 17.01 17.5z"/><path fill="#282119" d="M1966.59 601.305q6.11 9.52 13.43 18.33a1.28 1.27 58.5 0 0 1.48.36l6.04-2.59a.95.95 0 0 1 1.24 1.26c-3.68 8.16-11.33 5.63-18.14 8.05-5.06 1.79-11.92.97-15.1 6.23q-5.11 8.45-11.62 15.86l-2.73-2.48a1.54 1.51 69.4 0 0-.84-.39l-2.23-.3a.61.6 11 0 1-.51-.75q.57-2.17-1.19-3.08l1.37-9.54q.25-1.77 1.25-.29c1.33 1.97 1.4 9.99 1.52 12.61q.03.51.43.21 5.09-3.77 7.81-9.37c1.45-2.98.84-6.22 1.37-8.86.6-2.97 3.54-8.06 6.8-9.04 3.52-1.06 8.57 2.72 11.38 4.96a.95.96 52.1 0 0 1 .12q2.52-1.17 3.8-3.66a.91.91 0 0 0-.12-1q-5.01-5.94-9.19-12.49c-5.1-7.99-13.38-4.83-20.72-3.31-6.76 1.39-11.86.01-18.99-1.32-8.89-1.67-11.72 3.73-16.48 9.62-1.84 2.28-4.63 3.8-5.5 7.66a1.19 1.2 34.8 0 0 .16.91c4.05 6.51 9.83-1.61 14.81-1.41 9.43.4 7.31 12.95 11.04 19.28q2.05 3.48 4.97 6.38c-2.9-.33-1.32 3.9-1.04 5.29-1.96-1.9-4.06-3.67-5.57-6.01-3.59-5.57-8.7-13.27-14.88-14.99-4.87-1.35-9.38.19-14.89-2.74q-.46-.25-.98-.25l-6.44-.03a.73.72 86.4 0 1-.72-.64l-.11-.83a.73.73 0 0 1 .57-.8c4.25-.93 6.82-2.47 9.29-6.35q3.27-5.13 7.06-9.86c9.27-17.52 24.1-5.06 37.81-8.27 8.69-2.03 16.71-4.52 23.36 3.52z"/><path fill="#febc9e" d="m1936.42 641.805-.67 3.52q-.11.6-.53.16l-2.09-2.22q-2.92-2.9-4.97-6.38c-3.73-6.33-1.61-18.88-11.04-19.28-4.98-.2-10.76 7.92-14.81 1.41a1.19 1.2 34.8 0 1-.16-.91c.87-3.86 3.66-5.38 5.5-7.66 4.76-5.89 7.59-11.29 16.48-9.62 7.13 1.33 12.23 2.71 18.99 1.32 7.34-1.52 15.62-4.68 20.72 3.31q4.18 6.55 9.19 12.49a.91.91 0 0 1 .12 1q-1.28 2.49-3.8 3.66a.95.96 52.1 0 1-1-.12c-2.81-2.24-7.86-6.02-11.38-4.96-3.26.98-6.2 6.07-6.8 9.04-.53 2.64.08 5.88-1.37 8.86q-2.72 5.6-7.81 9.37-.4.3-.43-.21c-.12-2.62-.19-10.64-1.52-12.61q-1-1.48-1.25.29z"/><path fill="#19120d" d="M2283.63 609.845c1.75 1.78 7.21 7.12 5.06 9.63-2.89-2.96-9.94-9.87-8.22-10.82a.99.97 44.4 0 1 .93 0zM1566.09 632.555q-.65 1.68-2.2 1.58a.42.41 10.9 0 1-.37-.54q1.7-5.34 5.15-9.79c.85-.91 6.92-7.86 8-6.84a1.59 1.6 44.9 0 1 0 2.31q-6.39 6.15-10.58 13.28zM2287.38 625.095c11.58 17.06 15.05 44.36 13.98 64.2q-1.93 35.94-14.74 69.51a.56.56 0 0 0 .27.69c26.07 13.61 52.59 33.87 68.03 59.36.15.24.26 1.25.19 1.47q-.17.56-.49.07c-17.14-25.8-41.25-45.25-68.46-59.61a.54.54 0 0 0-.75.26q-3.24 7.33-8.92 12.9a1.28 1.27 22.7 0 1-.89.36h-.68l-.18-.28a.73.73 0 0 1-.01-.75c2.43-4.07 6.42-9.36 7.5-13.91a.68.67 21.6 0 0-.32-.73c-23.64-13.35-46.96-27.2-72.43-36.84-29.25-11.07-59.58-20.75-90.21-27.19q-20.97-4.41-41.89-9.04-25.67-5.68-60.5-7.23-.59-.03-2.27.15a.38.38 0 0 1-.41-.49c.33-1.12 5.88-.65 6.93-.6q31.25 1.4 61.78 8.02c21.79 4.72 43.89 8.79 65.36 14.82q31.57 8.87 62.29 20.39c25.19 9.43 48.79 23.46 72.15 36.71a.49.49 0 0 0 .69-.25q8.44-21.97 11.78-45.43c4.3-30.21 4.05-58.77-10.87-86.94a.49.5 63.9 0 1 .24-.68q1.54-.71 2.83 1.06zM1731.63 655.765q32.24 9.23 65.63 11.09c14.79.83 29.21 2.66 43.93 3q.94.03 4.31-.41 1.96-.26 3.93.12.51.1 0 .21c-14.93 3.3-31.45-.32-46.57-1.06q-36.7-1.79-72.23-11.45c-20.06-5.95-41.01-12.75-57.86-26.81q-.62-.52-.82-1.45-.11-.53.32-.19c17.22 13.75 38.28 21.43 59.36 26.95zM1936.42 641.805q1.76.91 1.19 3.08a.61.6 11 0 0 .51.75l2.23.3a1.54 1.51 69.4 0 1 .84.39l2.73 2.48q-5.26 7.93-5.42 17.62a.67.67 0 0 1-.72.66q-1.1-.08-1.17-1.3c-.23-4.32-1.41-14.07-4.52-17.23-.28-1.39-1.86-5.62 1.04-5.29l2.09 2.22q.42.44.53-.16zM1568.16 641.985q-.99 6.8-4.24 19.08-3.1 11.73-2.72 27.24c.51 20.41 2.45 41.78 9.93 60.96q1.23 6.26 3.96 12.04l.88 3.25a.32.32 0 0 1-.39.4q-1.35-.36-1.91-1.45c-12.88-25.01-16.97-55.08-16.04-82.95.35-10.56 3.2-20.26 5.86-31.16q1.03-4.24 4.67-7.41z"/><ellipse fill="#19120d" cx="-62.919" cy="-2002.145" transform="rotate(111.1)" rx="1.77" ry="1.39"/><path fill="#282119" d="M1941.82 706.865c-14.9-1.09-32.5 9.86-45.07 17.57q-25.22 15.48-42.79 40.14a.37.38 76.5 0 1-.64-.39c7.89-15 18.34-25.6 31.62-37.19q17.47-15.24 37.48-27.08c9.91-5.87 14.76-16.81 14.93-28.13.02-1.2.51-1.94 1.76-1.44a.97.96 4.8 0 1 .59.69c2.23 10.07 5.09 18.41 14.48 24.17 6.03 3.7 12.58 7.24 18.02 11.15q13.54 9.74 25.7 21.19c12.26 11.54 21.71 28.82 27.51 44.49q1.71 4.61 1.59 9.45-.01.52-.17.03c-12.17-37.59-44.69-71.7-85.01-74.65z"/><path fill="#19120d" d="M2027.56 672.775q-.37.03-.53-.17a.39.39 0 0 1 .24-.62q6.06-1.06 12.18-1.22c15.95-.42 30.43-.82 47.73.64 23.94 2 47.93 6.61 71.23 12.39 3.9.97 8.68 1.58 12.94 2.73q.51.13-.02.19-3.31.39-5.71-.12-19-4.02-38.04-7.84-49.56-9.94-100.02-5.98zM1995.22 675.795a.57.57 0 0 1-.3-.94l1.63-1.79a.83.84 38.3 0 1 1.09-.13c2.5 1.73-.56 3.29-2.42 2.86zM1579.34 782.305l-.25.35a.46.45 38.9 0 1-.69.07c-2.48-2.41-1.88-11.28-1.32-14.45q.09-.49-.35-.26c-16.01 8.42-31.05 18.42-46.3 28.08q-.44.28-.13-.14 1.03-1.38 2.39-2.33 21.34-14.94 44.15-27.52a1.31 1.31 0 0 0 .61-.74l1.39-4.31 1.43-3.48a.58.58 0 0 1 .78-.31c1.54.69.43 4.41.29 5.79a.33.34 79.7 0 0 .48.33c12.84-6.15 24.93-12.4 37.57-20.03 16.27-9.82 31.12-18.91 49.93-26.81 25.41-10.68 50.71-19.53 78.14-26.12q40.36-9.7 79.31-14.39c21.26-2.56 42.99-2.18 64.31-.47q.54.05.05.25-1.56.66-3.26.58c-15.7-.71-38.75-1.72-56.71.6-14.23 1.83-28.84 3.61-42.57 6.06-45.44 8.11-85.52 19.83-125.72 37.98-18.68 8.43-36.53 19.69-54.52 30.5q-5.88 3.53-27.2 13.66a.91.92 81.5 0 0-.52.7q-1.23 8.11-1.29 16.41z"/><path fill="#19120d" d="M1636.13 874.515q-.4.47-1.26.57a.82.83 89.1 0 1-.92-.89q.77-9 2.77-17.65c.54-2.31-1.6-3.58-3.43-4.71q-8.26-5.12-16.22-10.72a.54.54 0 0 0-.73.1q-21.14 25.33-40.5 52.04c-18.04 24.88-35.58 58.64-35.14 90.08a.41.41 0 0 1-.53.4q-.32-.09-.35-.45-1.31-14.13 2.94-28.15c13.48-44.49 42.8-80.2 72.15-115.17a.57.56 43.4 0 0-.03-.75c-13.56-14.41-27.62-35.62-30.54-55.66l.46-8.86a.52.53 28.8 0 1 .95-.28c.43.61.77 1.23.84 2.02 1.63 18.61 12.44 36.55 23.19 51.24q3.36 4.59 7.45 8.63a.49.5 43.1 0 0 .72-.03q15.38-18.21 31.93-35.48c21.33-22.25 44.4-40.21 71.48-58.24 28.54-18.99 56.75-30.96 89.39-43.56a.58.59 67.9 0 0 .33-.77l-.45-1.06a.73.73 0 0 1 .35-.93q1.82-.88 2.64.86a.94.92 67.7 0 0 1.15.49q21.66-7.67 44.1-14.07 1.05-.3 2.78-.27a.38.38 0 0 1 .34.53q-.15.33-.51.44-49.34 14.44-92.76 33.97c-32.8 14.76-64.7 36.92-92.7 60.42-20.74 17.4-38.81 38.16-56.48 58.59a1.03 1.03 0 0 0 .22 1.54c14.99 9.71 30.49 20.49 48.12 24.76 6.63 1.6 14.25 1.73 21.32 1.98a.6.6 0 0 1 .09 1.19q-10.61 2.09-21.14.65c-5.13-.69-10.5-2.93-15.64-4.71-10.74-3.71-13.58 2.9-16.38 11.91zM2265.1 789.085q-1.19 10.76-6.39 20.3-4.3 7.89-9.41 15.29a.53.54 35.6 0 0 .11.72q9.31 7.2 15.87 13.75c18.34 18.31 28.67 43.47 33.24 69.52a.27.27 0 0 1-.53.11q-4.79-17.48-11.99-34.91c-8.23-19.9-20.92-33.74-37.72-47.06a.48.49 37.7 0 0-.69.09c-12.51 16.95-26.78 30.65-45.51 39.4a.66.66 0 0 0-.25.99c9.75 13.07 10.21 28.48 6.3 43.77q-.81 3.19-3.2 5.77c1.39-10.24 5.09-36.16-5.59-42.76-4.69-2.9-8.77-1.11-13.43-1.31-2.72-.12-8.28.35-10.53-1.01a.36.37 57.3 0 1 .15-.67c11.38-1.41 22.55-7.04 32.44-12.6 14.47-8.12 26.82-20.79 36.79-33.92a.49.48 37.9 0 0-.09-.68q-21.1-16.52-42.37-32.74c-18.31-13.94-37.19-25.34-58.6-37.16-12.78-7.07-32.77-19.42-49.69-28.6-5.36-2.91-60.44-33.71-58.64-36.6a.49.49 0 0 1 .71-.13q7.13 5.46 14.77 10.17 22.58 13.92 45.9 26.56c20.39 11.05 39.46 22.71 61.94 35.38 30.92 17.42 58.38 39.88 86.71 61.33a.79.79 0 0 0 1.11-.16q11.14-15.14 16.88-32.32.22-.64 1.71-.52zM1879.2 692.235a.77.77 0 0 1-.79-.36c-1.12-1.86 1.01-3.33 2.57-2.63a.71.71 0 0 1 .41.8q-.4 1.87-2.19 2.19z"/><ellipse fill="#19120d" cx="1318.67" cy="1639.369" transform="rotate(-32)" rx="2.03" ry="1.44"/><ellipse fill="#19120d" cx="2092.231" cy="360.329" transform="rotate(9.3)" rx="1.93" ry="1.61"/><path fill="#19120d" d="M1736.93 874.335q7.92 1.45 15.94.96 2.47-.15 1 1.72a.96.95 9.8 0 1-.46.32q-8.82 2.63-17.81.31a.56.56 0 0 0-.67.36q-9.65 27.22-13.31 55.29-1.14 8.77-1.85 11.96-.11.52-.1-.01c.28-22.48 6.06-46.28 13.79-67.33a.71.7 18.7 0 0-.46-.92l-20.47-6.03a.37.38 18.2 0 1-.24-.49c1.36-3.62 18.65 2.36 21.47 3.19a.97.98 18.1 0 0 1.2-.61c6.51-18.53 12.58-37 21.5-54.43q5.73-11.21 21.39-36.41c18.85-30.33 43.6-58.66 73.9-78.1a.79.79 0 0 0 .32-.93l-.47-1.33a.99.97 51.5 0 1 .09-.85c.5-.8 2.02-1.79 2.83-.91a.73.74 35.3 0 1 .13.79l-.48 1.11a.4.4 0 0 0 .57.51l4.58-2.57a.41.53 22 0 1 .26.91c-34.04 20.47-60.13 49.51-80.82 82.81-11.08 17.83-21.18 34.62-28.66 52.39q-4.85 11.5-13.5 37.73a.43.43 0 0 0 .33.56zM2185.63 935.345c13.44 12.82 27.44 24.85 41.15 37.35q.38.35-.03.05c-14.95-10.77-28.73-23.6-42.14-36.31-17.58-18-31.71-33.68-43.49-53.87-7.6-13.03-14.55-26.36-22.89-38.95q-9.77-14.78-10.8-16.42c-7.66-12.24-15.36-25.43-23.26-36.58q-10.99-15.49-23.26-30c-15.22-18.02-29.15-37-44.51-54.96q-.39-.46.21-.51c2.68-.24 31.84 37.82 35.44 42.46 10.59 13.64 22.53 27.04 32.82 41.54 12.02 16.92 22.52 35.24 33.92 52.64q9.65 14.73 19.85 33.49c12.25 22.53 28.79 42.27 46.99 60.07z"/><path  d="M1571.13 749.265q3.37 4.5 5.29 9.79-1.16.86-1.33 2.25-2.73-5.78-3.96-12.04z"/><path fill="#19120d" d="M2272.17 774.055q1.23 4.9-2.61 5.73l-.71-12.69a.5.5 0 0 1 .49-.53l.69-.01a.93.92 77.4 0 1 .86.55q1.46 3.3 1.28 6.95zM1870.86 857.975c-1.56.6-13.53 5.62-14.4 5.27a.21.21 0 0 1-.03-.37q6.58-4.13 14.18-5.75a.44.45 28.5 0 1 .25.85zM1920.15 874.135c-15.15-9.41-28.29-16.16-46.18-10.81a.53.53 0 0 1-.67-.41l-.1-.56a.83.84 72.5 0 1 .48-.91c14.49-6.35 37.87-1.79 47.22 11.92a.55.55 0 0 1-.75.77zM1927.55 874.915c-4.34-1.55-8.36-7.32-9.85-11.54a.68.68 0 0 1 1.18-.65l9.22 11.42a.49.49 0 0 1-.55.77zM1700.06 868.665a.68.69 72 0 1-.86-.43c-1.11-3.34 5.86-3.47 7.58-3.01a.64.64 0 0 1 .03 1.22zM2010.44 878.355a.3.31 11.4 0 1-.27-.41q.21-.61.95-.74 16.66-2.82 32.72-8.07c8.39-2.75 16.29-5.17 24.9-1.72a.53.54 57 0 1-.22 1.03c-19.84-.65-37.47 11.18-58.08 9.91zM1936.95 874.445c-3.29-.34-7.13-5.49-7.73-8.12q-.21-.93.46-.24l7.54 7.81q.62.65-.27.55zM1641.09 880.305l-1.08 3.8a.46.46 0 0 1-.64.29c-1.4-.64-.41-7.05-.03-8.34q.91-4.03 3.44-7.27a.71.71 0 0 1 .88-.2l.67.32a.63.63 0 0 1 .29.82q-2.34 5.11-3.53 10.58zM2007.99 876.335l-1.09-.64a.48.49 48.8 0 1 .06-.87l14.52-5.98a.77.77 0 0 1 .93 1.15c-2.35 3.41-10.15 5.47-13.97 6.4a.6.62 53.5 0 1-.45-.06zM2005.19 872.115c-1.28.66-13.28 5-12.81 1.86a.75.77 88.8 0 1 .62-.63l11.9-2.08a.45.45 0 0 1 .29.85zM2171.01 876.575c-2.31.36-12.3.07-12.62-3.06a.65.64 2.1 0 1 .76-.7l11.88 2.11a.84.84 0 0 1-.02 1.65zM1646.09 905.555l-.67-.18a.97.95 87.4 0 1-.65-.61q-4.1-11.56-.64-23.42c.59-1.36 1.73-3.85 3.3-2.6a.75.75 0 0 1 .25.81c-2.89 9.69-1.25 18.17-1.59 26zM2199.09 918.555c-.46 1.96-2.41 9.82-4.71 9.97a.5.5 0 0 1-.52-.54l.23-2.43q2.06-6.25 2.92-12.82a.86.85 35 0 1 1.61-.28q1.39 2.66.47 6.1zM1665.17 941.305l-.09.8q-.13 1.23-.85.23-7.16-9.96-4.39-22.03.5-1.86 1.78-2.84a.48.48 0 0 1 .77.43q-1.33 12.47 2.78 23.41zM1678.84 953.055c-3.92 1.26-7.6-11.18-8-13.5q-.26-2.65.92-4.39a.76.76 0 0 1 1.37.29q1.6 8.39 5.48 15.9.27.51.23 1.7zM2167.67 946.605a.59.58 20.5 0 1-.42-.92l5.64-8a.83.82 22.3 0 1 .82-.34c3.17.53-1.67 9.67-6.04 9.26zM1689.63 958.595q.9 1.09.49 1.85a1.23 1.24 36.4 0 1-1.94.3q-3.87-3.73-5.76-8.44-.92-3.16-.64-6.03a.7.7 0 0 1 1.37-.14q2.05 6.96 6.48 12.46zM2149.37 957.865q-.56-.04-.73-.55a.79.81 58 0 1 .2-.84q3.67-3.58 7.18-7.33c.87-.93 1.96-1.28 2.7-.06a.85.84 46.7 0 1-.02.88c-.88 1.33-7.73 9.15-9.01 8.03a.55.53 66 0 0-.32-.13zM2141.85 951.035c.56-.76.62-1.35 1.78-1.48q1.83-.22 1.03 1.44c-2.99 6.2-8.9 14.47-15.87 16.4a.74.74 0 0 1-.69-1.26q7.69-6.85 13.75-15.1zM1705.67 969.305q-4.45-1-7.6-5.44-3.42-4.81-4.65-8.81-1.04-2.79-.16-5.19a.43.43 0 0 1 .81.01c2.8 8.03 6.67 12.42 11.6 19.43zM2112.63 970.345l-1.61.42q-.38-1.01.04-1.29 8.4-5.45 17.72-10.78a.85.84 77.9 0 1 1.26.82c-.3 2.86-14.58 9.87-17.41 10.83z"/></g></svg>