<svg xmlns="http://www.w3.org/2000/svg" viewBox="78.41 90.91 266.68 258.84">
    <g xmlns="http://www.w3.org/2000/svg">
        <path
              d="M331.865,275.001c-11.43,21.5-32.09,37.9-55.62,44.16c-5.54,1.47-11.23,2.41-16.74,3.99    c-8.98,2.58-17.39,6.83-26.26,9.78c-6.8,2.26-14.23,3.08-21.77,2.96c-7.54,0.12-14.97-0.7-21.77-2.96    c-8.87-2.95-17.28-7.2-26.26-9.78c-5.51-1.58-11.2-2.52-16.74-3.99c-23.53-6.26-44.19-22.66-55.62-44.16    c-2.29-4.31-4.18-9.11-5.23-13.97c-0.32-1.48-0.56-2.97-0.71-4.45c-0.36-3.6-0.19-7.17,0.69-10.54c0.67-2.56,1.75-5,3.33-7.24    c2.95-4.21,7.29-7.22,10.81-10.96c5.73-6.1,7.33-13.27,10.41-20.67c3.35-8.02,5.96-15.88,5.43-24.8c2.55-1.11,5.08-2.19,7.63-3.3    c0.02-1.68,0.04-3.38,0.06-5.06c4.73-1.82,8.25-5.8,11.98-9.24c8.9-8.18,19.23-14.25,30.3-18.47c3.66-1.4,7.4-2.59,11.2-3.59    c4.28-1.14,8.64-2.03,13.04-2.69c2.87-0.44,5.76-0.78,8.66-1.03c0.76-0.06,1.52-0.13,2.29-0.19c3.27-0.26,6.66-0.49,10.13-0.64    c0.13,0,0.25,0.01,0.37,0.02c0.12-0.01,0.24-0.02,0.37-0.02c0.15,0.01,0.31,0.01,0.46,0.02c4.13,0.19,8.14,0.48,11.96,0.81    c1.03,0.09,2.06,0.19,3.09,0.31c4.26,0.46,8.51,1.12,12.7,2c5.84,1.23,11.57,2.88,17.11,5c11.07,4.22,21.4,10.29,30.3,18.47    c3.73,3.44,7.25,7.42,11.98,9.24c0.02,1.68,0.04,3.38,0.06,5.06c2.55,1.11,5.08,2.19,7.63,3.3c-0.53,8.92,2.08,16.78,5.43,24.8    c3.08,7.4,4.68,14.57,10.41,20.67c2.54,2.7,5.51,5.02,8.07,7.69c0.99,1.02,1.92,2.1,2.74,3.27c1.3,1.85,2.26,3.84,2.94,5.91    c0.01,0.03,0.02,0.07,0.03,0.1C339.824,254.371,336.764,265.791,331.865,275.001z"></path>
        <path style="fill:#ABABAB;"
              d="M136.17,263.823c-11.545-5.547-19.875-17.291-21.294-30.02c-0.106-0.947-0.175-1.907-0.047-2.852    c6.366,13.3,17.677,23.507,29.18,32.732c-1.058-0.493-2.117-0.986-3.175-1.479c4.109,5.966,9.661,10.933,16.046,14.355    c-8.292-2.741-16.932-5.696-22.985-11.991C134.653,264.32,135.412,264.072,136.17,263.823z"></path>
        <path 
              d="M279.624,221.962c-0.707,9.174-2.998,20.165-9.092,27.33c1.103-0.613,2.338-0.986,3.596-1.088    c-3.994,3.763-8.314,7.181-12.895,10.203c-3.26,2.151-6.648,4.099-10.034,6.046c-2.724,1.566-5.448,3.132-8.171,4.698    c0.262,0.816,0.523,1.632,0.785,2.448c-0.005-0.016-9.075,5.628-9.993,6.022c-2.978,1.281-6.91,2.2-10.114,2.376    c-3.895,0.214-7.751-0.697-11.627-1.134c-7.649-0.864-15.821,0.021-22.636-3.558c-4.962-2.605-8.482-7.231-12.615-11.016    c-4.133-3.784-9.733-6.918-15.143-5.457c-1.075-4.01-6.104-5.177-10.232-5.618c1.714-0.33,2.205-2.821,1.181-4.234    c-1.024-1.413-2.89-1.914-4.625-2.096c-1.736-0.182-3.547-0.154-5.13-0.887c1.63-1.186,2.756-3.043,3.055-5.036    c-1.601-0.712-3.202-1.424-4.802-2.137c2.006-0.6,3.755-2.016,4.76-3.853c-1.591-1.193-3.042-2.673-5.095-2.866    c0.516-4.067,10.3-10.869,14.398-7.669c-2.805-2.191-6.141-3.697-9.639-4.354c6.151-0.692,12.443-0.103,18.359,1.718    c-3.309-1.511-6.229-3.866-8.406-6.781c8.036,2.481,15.801,5.841,23.111,10c-2.504-3.405-5.008-6.809-7.512-10.214    c7.246,3.481,14.058,7.864,20.229,13.016c-2.439-2.845-4.158-6.551-4.458-10.301c1.669,2.826,4.012,5.015,5.547,7.878    c4.681,8.731,8.107,15.685,19.302,16.012c4.652,0.136,9.45-1.52,12.609-4.939c4.62-5,5.567-13.253,11.535-16.528    c0.084,2.167,0.167,4.333,0.25,6.5c3.633-5.955,9.068-10.794,15.402-13.716c-0.109,2.3-0.217,4.601-0.326,6.901    c2.007-2.568,4.52-4.739,7.352-6.351c-0.147,1.625-0.043,3.272,0.309,4.866c4.034-0.725,7.948-2.115,11.535-4.096    c-0.188,0.974-0.373,1.997-0.069,2.941c0.304,0.944,1.276,1.752,2.238,1.512c1.298-0.325,2.378-2.297,3.439-1.482    c0.027,2.144,0.401,4.284,1.103,6.31C278.076,223.625,278.98,222.75,279.624,221.962z"></path>
        <path 
              d="M331.865,275.001c-11.43,21.5-32.09,37.9-55.62,44.16c-5.54,1.47-11.23,2.41-16.74,3.99    c-8.98,2.58-17.39,6.83-26.26,9.78c-6.8,2.26-14.23,3.08-21.77,2.96c-7.54,0.12-14.97-0.7-21.77-2.96    c-8.87-2.95-17.28-7.2-26.26-9.78c-5.51-1.58-11.2-2.52-16.74-3.99c-23.53-6.26-44.19-22.66-55.62-44.16    c-2.29-4.31-4.18-9.11-5.23-13.97c-0.32-1.48-0.56-2.97-0.71-4.45c-0.36-3.6-0.19-7.17,0.69-10.54c2.97,1.57,5.69,3.22,5.75,4.02    c-0.19-2.51-0.38-5.03-0.56-7.55c7.46,3.99,14.25,9.23,19.98,15.45c-0.06-0.52,0.27-1.21,0.85-1.31c0.9-0.16,1.71,0.53,2.37,1.16    c2.89,2.8,5.79,5.59,8.69,8.39c0.38-2.37,1.97-4.51,4.12-5.57c7.63,8,16.38,14.93,25.91,20.53c0.41-1.07,0.83-2.14,1.24-3.2    c5.44,4.76,12.26,7.94,19.41,9.03c-0.01-1.2-0.03-2.4-0.05-3.6c0.008,0.505,4.535-0.647,4.999-0.987    c1.604-1.172,1.535-2.668,1.841-4.611c-0.726-0.051-1.418-0.455-1.82-1.062c2.434-1.296,4.734-2.844,6.85-4.613    c-0.595-0.073-1.189-0.145-1.784-0.218c2.88-0.466,5.141-1.973,7.826-2.825c3.634-1.152,6.744-2.217,9.936-4.432    c0.775-0.538,1.546-1.104,2.428-1.438c0.647-0.245,1.335-0.358,2.018-0.47c3.739-0.611,6.734-1.1,9.822,1.191    c2.889,2.144,5.529,3.917,9.16,4.651c9.774,1.976,19.556,3.914,29.335,5.863c1.81,2.56,3.62,5.11,5.43,7.66    c6.03-0.44,9.6-6.75,12.09-12.25c1.6,2.18,2.56,4.82,2.76,7.53c0.75-3.65,4.66-6.34,8.34-5.73c1.85-2.33,3.7-4.66,5.55-6.98    c1.08,1.07,2.16,2.15,3.24,3.22c3.36-3.53,6.72-7.05,10.08-10.58c1.66,0.23,3.06,1.7,3.21,3.37c0.92-0.92,1.85-1.84,2.77-2.76    c1.22,0.67,2.43,1.34,3.65,2.01c-0.15-3.91,4.21-7.28,7.96-6.15c0.17-3.78,1.38-7.51,3.47-10.67c1.28,1.25,2.99,2.05,4.77,2.23    c0.63-3.44,1.84-6.77,3.57-9.81c0.99,1.02,1.92,2.1,2.74,3.27c1.3,1.85,2.26,3.84,2.94,5.91c0.01,0.03,0.02,0.07,0.03,0.1    C339.824,254.371,336.764,265.791,331.865,275.001z"></path>
        <path style="fill:#DCD5CD;"
              d="M341.574,260.531c-2.47,3.94-6.13,7.13-8.02,11.38c1.74-0.17,3.49-0.34,5.24-0.51    c-1.55,2.93-3.48,5.66-5.72,8.09c1.48,0.45,3.09,0.49,4.6,0.09c-10.21,11.31-21.81,21.36-34.47,29.85    c1.42,0.9-0.25,3.13-1.93,3.33c-1.67,0.2-3.69-0.19-4.77,1.11c-1.54,1.8-4.05,2.71-6.38,2.32l0.21,2.58    c-3.49,0.4-6.98,0.81-10.47,1.21c0.33,0.66,0.65,1.31,0.97,1.96c-3.45,0.29-6.87,0.9-10.21,1.83c-0.88,0.25-1.8,0.55-2.38,1.25    c-0.58,0.7-0.6,1.94,0.19,2.39c-2.81,0.71-5.52-0.97-8.34-0.02c-2.27,0.78-4.82,2.73-6.3,4.6c-0.61,0.78-1.19,1.68-2.1,2.06    c-0.92,0.38-2.27-0.14-2.24-1.13c-3.42,3.27-6.93,6.44-10.54,9.5c-0.4-0.84-0.8-1.69-1.19-2.53c-2.93,2.57-6.09,4.9-9.42,6.93    c-0.28-0.94-0.56-1.87-0.85-2.8c-2.04,0.24-3.5,2-5.11,3.27c-1.98,1.55-3.07,0.77-5.08,0.8c-0.48,0.01-3.84-0.36-2.35,1.66    c-8.48-1.42-16.54-5.24-23.01-10.9c-0.57,0.99-1.14,1.98-1.7,2.97c-2.14-6.34-9.68-10.29-16.11-8.44    c-2.27-3.97-6.87-5.93-11.27-7.17c-13.16-3.72-27.57-3.5-39.65-9.91c0.17-0.97,0.35-1.94,0.52-2.91    c-9.61-0.53-15.87-10.29-24.63-14.26c0.34-3.49-3.09-6.84-6.57-6.42c1.55-4.99-0.91-10.92-5.53-13.36    c0.34-1.21,1.27-2.23,2.44-2.69c-3.85-6.38-7.17-13.08-9.91-20.01c-0.37-0.95-0.73-1.9-1.08-2.85c2.95,1.57,5.99,2.51,9.19,3.39    c2.89,0.79,5.29,2.43,8.05,3.64c4.04,1.76,7.51,3.76,10.74,6.84c5.32,5.07,9.91,11.26,16.6,14.33c-0.12-1.75-0.23-3.49-0.34-5.24    c10.7,3.92,21.04,8.83,30.84,14.65c0.17-1.26,0.34-2.53,0.51-3.79c2.45,2.55,4.42,5.5,8.06,6.36c1.79,0.42,3.85,0.16,5.17-1.12    c0.95-0.92,1.46-2.29,2.61-2.94c0.95-0.54,2.12-0.45,3.19-0.62c4.25-0.68,6.57-5.14,9.49-8.3c4.94-5.34,12.39-7.37,19.44-9.17    c5.85-1.5,10.61-1.61,16.62-0.35c2.2,0.41,4.39,0.83,6.59,1.24c3.86,0.73,7.76,1.47,11.4,2.96c3.59,1.47,6.82,3.65,9.77,6.14    c2.22,1.87,4.96,6.3,7.6,7.29c5.97,2.24,16.79-4.47,21.09-8.03c-0.17,1.39-0.34,2.77-0.51,4.16c13.72-6.73,26.82-14.7,39.11-23.78    c-0.19,1.45-0.38,2.91-0.57,4.37c0.95-1.28,1.94-2.53,2.96-3.75c7.72-9.14,16.65-15.7,28.17-19.1c0.09-0.03,0.19-0.06,0.29-0.09    C345.904,248.841,344.835,255.351,341.574,260.531z"></path>
        <path style="fill:#CEC8C0;"
              d="M341.574,260.531c-2.47,3.94-6.13,7.13-8.02,11.38c1.74-0.17,3.49-0.34,5.24-0.51    c-1.55,2.93-3.48,5.66-5.72,8.09c1.48,0.45,3.09,0.49,4.6,0.09c-10.21,11.31-21.81,21.36-34.47,29.85    c1.42,0.9-0.25,3.13-1.93,3.33c-1.67,0.2-3.69-0.19-4.77,1.11c-1.54,1.8-4.05,2.71-6.38,2.32l0.21,2.58    c-3.49,0.4-6.98,0.81-10.47,1.21c0.33,0.66,0.65,1.31,0.97,1.96c-3.45,0.29-6.87,0.9-10.21,1.83c-0.88,0.25-1.8,0.55-2.38,1.25    c-0.58,0.7-0.6,1.94,0.19,2.39c-2.81,0.71-5.52-0.97-8.34-0.02c-2.27,0.78-4.82,2.73-6.3,4.6c-0.61,0.78-1.19,1.68-2.1,2.06    c-0.92,0.38-2.27-0.14-2.24-1.13c-3.42,3.27-6.93,6.44-10.54,9.5c-0.4-0.84-0.8-1.69-1.19-2.53c-2.93,2.57-6.09,4.9-9.42,6.93    c-0.28-0.94-0.56-1.87-0.85-2.8c-2.04,0.24-3.5,2-5.11,3.27c-1.98,1.55-3.07,0.77-5.08,0.8c-0.48,0.01-3.84-0.36-2.35,1.66    c-8.48-1.42-16.54-5.24-23.01-10.9c-0.57,0.99-1.14,1.98-1.7,2.97c-2.14-6.34-9.68-10.29-16.11-8.44    c-2.27-3.97-6.87-5.93-11.27-7.17c-13.16-3.72-27.57-3.5-39.65-9.91c0.17-0.97,0.35-1.94,0.52-2.91    c-9.61-0.53-15.87-10.29-24.63-14.26c0.34-3.49-3.09-6.84-6.57-6.42c1.55-4.99-0.91-10.92-5.53-13.36    c0.34-1.21,1.27-2.23,2.44-2.69c-3.85-6.38-7.17-13.08-9.91-20.01c2.25,1.87,4.17,3.75,5.37,4.98    c8.18,8.33,15.38,16.88,24.91,23.84c1.58,1.15,6.33,5.64,8.32,5.64c-2.19,0.13-4.39,0.27-6.58,0.41    c4.66,3.24,9.45,6.28,14.37,9.12c-0.91,0.04-1.82,0.09-2.73,0.13c6.3,2.91,12.79,5.4,19.42,7.45c-0.68,0.46-1.35,0.92-2.02,1.38    c8.81,2.98,18,4.81,27.28,5.44c1.04,1.5,2.08,3.01,3.12,4.52c1.46-1.66,3.24-3.03,5.22-4.01c0.31,1.56,0.89,3.07,1.71,4.43    c1.91-0.16,3.84-0.06,5.73,0.29c-0.26,1.66,1.44,3.32,3.1,3.01c3.9,6.23,5.04,12.45,11.23,17.32c1.09-0.58,0.86-2.57,2.04-2.95    c1.44-0.48,1.91,1.93,3.07,2.91c1.16,0.99,3.32-0.09,3.23-1.62c0.7,0.21,1.26,0.83,1.58,1.47c3.6-3.37,8.87-3.13,13.15-5.46    c-0.2,2.44,1.16,4.93,3.32,6.08c0.54-1.28,1.14-2.63,2.29-3.4c1.15-0.78,3.03-0.62,3.59,0.65c0.45-2.58,4.73-3.2,5.89-0.85    c1.16-1.97,3.71-2.99,5.92-2.38c1.68-5.38,3.37-10.76,5.05-16.14c0.92,0.1,1.65,0.98,1.67,1.9c0.37-2.93,1.56-5.75,3.4-8.05    c0.83,1.24,1.65,2.48,2.47,3.73c1.34-2.71,2.83-5.59,5.49-7.02c2.65-1.43,6.77-0.46,7.39,2.5c4.44-1.94,6.52-9.13,11.28-8.22    c1.08,0.2,2.04,0.85,3.12,1.06c5.68,1.11,10.21-9.65,14.91-6.26c3.91-3.42,7.82-6.84,11.74-10.25c-0.9,0.68,0.11,2.27,1.23,2.22    c1.13-0.06,1.98-1.01,2.68-1.89c2.45-3.04,4.88-6.07,7.32-9.12c0.04,0.56,0.4,1.17,1,1.2c1.15,0.05,1.96-1.08,2.55-2.07    c6.95-11.89,13.91-23.77,20.87-35.66c0.09-0.03,0.19-0.06,0.29-0.09C345.904,248.841,344.835,255.351,341.574,260.531z"></path>
        <g>
            <path style="fill:#CCB057;"
                  d="M158.42,252.382c-5.18-5.062-9.579-13.989-5.346-20.894c2.054-3.35,5.432-5.678,8.94-7.451     c1.618-0.818,3.72-0.896,5.499-0.809c7.052,0.344,13.491,4.998,16.951,11.153c3.708,6.597,3.849,13.802,3.438,21.127     c-4.76,1.249-9.523,1.241-14.431,1.588c-3.428,0.242-6.999,0.235-10.133-1.174C161.485,255.09,159.872,253.801,158.42,252.382z"></path>
            <path style="fill:#CCB057;"
                  d="M264.538,252.382c5.18-5.062,9.579-13.989,5.346-20.894c-2.054-3.35-5.432-5.678-8.94-7.451     c-1.618-0.818-3.72-0.896-5.499-0.809c-7.052,0.344-13.491,4.998-16.951,11.153c-3.708,6.597-3.849,13.802-3.438,21.127     c4.76,1.249,9.522,1.241,14.431,1.588c3.428,0.242,6.999,0.235,10.133-1.174C261.473,255.09,263.086,253.801,264.538,252.382z"></path>
            <path style="fill:#CB9845;"
                  d="M153.351,237.659c2.054-3.35,5.432-5.678,8.94-7.451c1.618-0.818,3.72-0.896,5.499-0.809     c7.052,0.344,13.491,4.998,16.951,11.153c1.934,3.441,2.893,7.048,3.314,10.751c0.071-5.866-0.595-11.592-3.591-16.921     c-3.46-6.155-9.899-10.809-16.951-11.153c-1.779-0.087-3.881-0.009-5.499,0.809c-3.507,1.773-6.886,4.1-8.94,7.451     c-1.898,3.097-2.052,6.599-1.186,9.979C152.141,240.157,152.606,238.876,153.351,237.659z"></path>
            <path style="fill:#CB9845;"
                  d="M238.772,240.552c3.46-6.155,9.899-10.809,16.951-11.153c1.779-0.087,3.881-0.009,5.499,0.809     c3.507,1.773,6.886,4.1,8.939,7.451c0.514,0.838,0.895,1.706,1.168,2.592c0.537-2.995,0.226-6.036-1.446-8.763     c-2.054-3.35-5.432-5.678-8.94-7.451c-1.618-0.818-3.72-0.896-5.499-0.809c-7.052,0.344-13.491,4.998-16.951,11.153     c-3.708,6.597-3.849,13.802-3.438,21.127c0.044,0.012,0.089,0.019,0.133,0.031C235.288,250.35,236.106,245.294,238.772,240.552z"></path>
            <path style="fill:#353130;"
                  d="M170.46,257.716c-2.97,0-5.298-0.425-7.328-1.337c-1.691-0.76-3.3-1.916-5.062-3.639     c-5.605-5.478-9.693-14.547-5.422-21.513c1.802-2.94,4.792-5.438,9.14-7.636c1.185-0.599,2.705-0.891,4.645-0.891     c0.377,0,0.747,0.011,1.104,0.028c6.839,0.334,13.654,4.811,17.363,11.407c3.945,7.017,3.875,14.726,3.5,21.4l-0.02,0.363     l-0.352,0.092c-3.781,0.993-7.467,1.197-11.37,1.412c-1.045,0.058-2.096,0.116-3.153,0.19     C172.337,257.677,171.369,257.716,170.46,257.716z M166.433,223.701c-1.78,0-3.152,0.256-4.194,0.783     c-4.178,2.112-7.037,4.489-8.739,7.266c-3.984,6.499-0.062,15.066,5.269,20.275c1.675,1.637,3.192,2.73,4.773,3.441     c1.896,0.852,4.094,1.249,6.918,1.249c0.885,0,1.831-0.038,2.976-0.118c1.063-0.075,2.118-0.133,3.168-0.191     c3.728-0.207,7.255-0.401,10.819-1.291c0.348-6.448,0.348-13.833-3.395-20.488c-3.544-6.304-10.036-10.582-16.54-10.898     C167.147,223.712,166.793,223.701,166.433,223.701z"></path>
            <path style="fill:#353130;"
                  d="M252.5,257.716L252.5,257.716c-0.911,0-1.878-0.039-3.047-0.121     c-1.058-0.074-2.108-0.132-3.153-0.19c-3.902-0.216-7.589-0.42-11.37-1.413l-0.352-0.092l-0.02-0.363     c-0.375-6.675-0.443-14.384,3.5-21.4c3.708-6.596,10.524-11.074,17.363-11.407c0.357-0.018,0.728-0.028,1.105-0.028     c1.94,0,3.46,0.291,4.645,0.891c4.348,2.198,7.338,4.696,9.141,7.636c4.27,6.966,0.182,16.035-5.423,21.513     c-1.762,1.722-3.37,2.878-5.061,3.639C257.797,257.291,255.468,257.716,252.5,257.716z M235.535,255.115     c3.564,0.89,7.091,1.084,10.82,1.291c1.05,0.058,2.105,0.116,3.168,0.191c1.145,0.081,2.09,0.118,2.976,0.118h0     c2.823,0,5.021-0.397,6.917-1.249c1.582-0.711,3.098-1.805,4.772-3.441c5.331-5.21,9.253-13.777,5.27-20.275     c-1.703-2.777-4.561-5.154-8.739-7.266c-1.042-0.527-2.413-0.783-4.193-0.783c-0.36,0-0.714,0.011-1.056,0.027     c-6.504,0.317-12.997,4.595-16.54,10.898C235.189,241.281,235.188,248.666,235.535,255.115z"></path>
            <ellipse style="fill:#353130;" cx="250.659" cy="240.208" rx="7.579"
                     ry="12.502"></ellipse>
            <ellipse style="fill:#353130;" cx="172.525" cy="240.208" rx="7.579"
                     ry="12.502"></ellipse>
            <ellipse style="fill:#FFFFFF;" cx="166.709" cy="233.241" rx="5.816" ry="2.29"></ellipse>
            <ellipse style="fill:#FFFFFF;" cx="244.786" cy="235.531" rx="5.816" ry="2.29"></ellipse>
        </g>
        <g>
            <path style="fill:#B1867E;"
                  d="M226.344,281.071c0,0-0.09,0.35-0.29,0.96c-1.07,3.18-5.29,13.28-15.96,14.36     c-8.83,0.89-13.24-6.88-15.1-11.69c-0.81-2.1-1.14-3.63-1.14-3.63C212.544,265.331,226.344,281.071,226.344,281.071z"></path>
            <path style="fill:#D09385;"
                  d="M226.344,281.071c0,0-0.09,0.35-0.29,0.96c-0.82-0.79-1.56-1.66-2.22-2.59     c-0.01,1.99-0.03,3.98-0.05,5.97c-1.3-2.05-2.73-4.01-4.28-5.87c-0.37,2.12-0.74,4.24-1.1,6.36c-0.77-1.37-1.65-2.67-2.63-3.89     c-1.18,1.92-2.03,4.05-2.51,6.26c0.31-2.08-0.37-4.29-1.79-5.84c-0.2,1.52-0.41,3.05-0.61,4.57c-0.1-2.61-2.06-5.05-4.59-5.72     c-0.07,2.3-0.13,4.6-0.2,6.9c-1.49-1.93-3.13-3.74-4.91-5.41c-0.02,1.32-0.03,2.65-0.05,3.97c-1.6-1.63-3.2-3.26-4.8-4.89     c-0.44,0.95-0.88,1.9-1.32,2.85c-0.81-2.1-1.14-3.63-1.14-3.63C212.544,265.331,226.344,281.071,226.344,281.071z"></path>
            <path style="fill:#645A55;"
                  d="M215.525,311.42c-3.1-1.232-6.084,0.253-8.38,2.337c-2.476,2.248-6.018,3.093-9.345,2.746     c-3.327-0.347-6.459-1.785-9.256-3.618c-1.277-0.837-2.632-2.461-1.721-3.686c1.589,0.265,2.915,1.312,4.313,2.112     c4.166,2.383,9.499,2.593,13.84,0.545c1.722-0.812,3.349-2.031,4.137-3.764c1.433-3.152-0.364-6.912-2.891-9.28     c-2.526-2.368-5.739-3.905-8.269-6.268c-2.04-1.906-3.579-4.339-4.461-6.986c-0.275-0.827-1.191-3.101-0.896-3.939     c0.159-0.453,1.036-1.755,1.531-0.509c0.739,1.863,2.052,3.838,3.12,5.533c2.26,3.585,4.78,7.39,8.731,8.923     c4.213,1.634,9.175,0.155,12.593-2.8c3.419-2.955,5.512-7.161,6.986-11.432c0.544-0.477,1.477-0.054,1.751,0.615     s0.089,1.431-0.132,2.12c-1.674,5.209-5.36,9.742-10.117,12.445c-1.038,0.59-2.149,1.114-2.952,1.998     c-2.049,2.254-1.304,5.929,0.388,8.462c3.622,5.42,11.154,7.838,17.253,5.539c0.978-0.369,1.98-0.852,3.016-0.717     c1.037,0.135,2.012,1.253,1.548,2.189c-0.224,0.45-0.698,0.712-1.153,0.924c-4.596,2.142-10.22,1.924-14.636-0.567     C218.841,313.392,217.321,312.134,215.525,311.42z"></path>
        </g>
        <g>
            <g>
                <path
                      d="M326.664,232.611c-3.56,1.32-7.54,1.08-11.19,0.03c-3.65-1.04-7.02-2.84-10.37-4.63      c-3.2-1.72-5.89-3.81-6.99-7.41c-0.65-2.14-0.63-4.41-1.21-6.57c-1.04-3.85-3.91-6.92-6.01-10.34      c-3.42-5.56-4.82-12.14-7.91-17.9c-2.9-5.42-7.19-9.95-11.52-14.33c-0.35-0.36-0.71-0.73-1.07-1.09      c-2.06-2.07-4.15-4.17-6.49-5.86v-0.01c-1.23-0.89-2.52-1.68-3.91-2.3c-2.46-1.07-5.19-1.62-7.38-3.14      c-2.2-1.54-3.74-4.59-2.41-6.92c1.18-1.15,2.26-2.37,3.29-3.63c2.56-3.13,4.81-6.53,7.29-9.74      c8.76-11.34,20.25-20.02,31.58-28.9c7.07-5.55,14.08-11.18,20.34-17.57c0.62-0.61,1.29-1.29,2.16-1.38      c0.73-0.08,1.32,0.23,1.82,0.75c0.69,0.71,1.15,1.82,1.44,2.78c3.7,12.72,7.04,25.81,6.09,39.02      c-0.41,5.91-1.7,11.75-2.96,17.54c-3.13,14.1-6.23,28.26-11.31,41.78c-0.02,0.02-0.04,0.06-0.04,0.08      c1.18,0.4,2.39,0.81,3.3,1.68c0.89,0.85,1.36,2.3,0.77,3.38c-0.53,0.95-1.84,1.75-1.46,2.75c0.17,0.5,0.73,0.77,0.97,1.25      c0.55,1.11-0.72,2.15-1.57,3.04c-0.64,0.67-1.2,1.5-1.65,2.29c1.27,0.55,2.64,0.87,4.01,1.22c0.63,7.28,4.79,13.74,9.33,19.46      C324.764,229.401,325.984,230.871,326.664,232.611z"></path>
                <path style="fill:#BCBBB9;"
                      d="M280.412,150.766c0.876,1.999,0.951,4.355,0.126,6.381c2.353,0.794,13.915,4.195,16.074,2.011      c-1.681,1.701-3.144,3.619-4.37,5.695c3.105,0.415,6.13,1.246,9.017,2.452c-1.918,2.828-3.836,5.656-5.735,8.483      c2.274,0.633,4.548,1.285,6.822,1.918c-2.136,3.737-3.896,7.712-5.22,11.805c1.72,0.178,3.441,0.554,5.082,1.107      c-0.771,1.206-1.542,2.432-2.333,3.639c2.808,0.771,6.803,0.91,7.554-1.898c0.573,0.771,1.543,0.791,2.511,0.435      c5.082-13.526,8.187-27.684,11.311-41.784c1.266-5.794,2.551-11.627,2.966-17.54c0.949-13.209-2.393-26.3-6.091-39.015      c-0.297-0.969-0.751-2.076-1.443-2.788c-0.771,0.811-1.325,1.938-1.78,2.966c-3.638,8.127-7.633,16.235-13.447,22.998      c-4.588,5.339-10.362,9.175-15.365,14.02c-2.917,2.822-5.5,6.122-8.532,8.802c-0.822,0.727-5.431,5.559-5.794,5.615      c2.823-0.442,5.844,0.739,7.618,2.979C279.8,149.574,280.144,150.153,280.412,150.766z"></path>
                <g>
                    <path style="fill:#A9A8A7;"
                          d="M295.546,165.46c-1.087-0.256-2.19-0.456-3.301-0.607c1.007-1.711,2.174-3.309,3.501-4.764       C295.61,161.919,295.546,163.717,295.546,165.46z"></path>
                    <path style="fill:#A9A8A7;"
                          d="M296.193,174.787c0.072,0.424,0.136,0.839,0.208,1.247c-0.296-0.088-0.583-0.168-0.879-0.248       C295.745,175.451,295.969,175.123,296.193,174.787z"></path>
                    <path style="fill:#A9A8A7;"
                          d="M306.4,193.898c-1.551,1.167-4.38,0.951-6.522,0.36c0.791-1.207,1.559-2.43,2.334-3.637       c-1.646-0.551-3.365-0.927-5.083-1.111c0.527-1.622,1.119-3.221,1.774-4.796C300.709,188.902,303.227,192.084,306.4,193.898z"></path>
                    <path style="fill:#A9A8A7;"
                          d="M320.475,102.9c-8.145,7.409-15.754,19.942-20.486,35.136       c-2.318,7.465-3.709,14.795-4.212,21.596c-3.389,1.103-13.1-1.766-15.242-2.486c0.831-2.03,0.751-4.38-0.12-6.378       c-0.272-0.616-0.615-1.191-1.031-1.719c-1.774-2.238-4.796-3.421-7.617-2.981c0.36-0.056,4.971-4.892,5.795-5.619       c3.029-2.678,5.611-5.979,8.528-8.8c5.004-4.844,10.782-8.68,15.37-14.019c5.811-6.762,9.807-14.867,13.444-22.995       c0.456-1.031,1.007-2.158,1.782-2.965c0.687,0.711,1.143,1.814,1.439,2.79C318.94,97.257,319.74,100.071,320.475,102.9z"></path>
                    <path style="fill:#A9A8A7;"
                          d="M296.609,159.161c-0.296,0.304-0.592,0.607-0.863,0.927c0-0.152,0.016-0.304,0.032-0.455       C296.129,159.513,296.409,159.361,296.609,159.161z"></path>
                </g>
            </g>
            <g>
                <path
                      d="M170.344,159.061c-2.2,1.52-4.92,2.07-7.38,3.14c-2.68,1.19-5,3-7.16,5.02      c-1.11,1.01-2.18,2.09-3.24,3.15c-2.7,2.73-5.44,5.49-7.86,8.47c-1.79,2.18-3.4,4.48-4.73,6.95c-0.55,1.02-1.04,2.06-1.5,3.13      c-0.6,1.36-1.14,2.76-1.67,4.15c-1.38,3.64-2.7,7.31-4.74,10.62c-2.1,3.42-4.97,6.49-6.02,10.34c-0.57,2.16-0.55,4.43-1.2,6.57      c-1.1,3.6-3.79,5.69-6.99,7.41c-3.35,1.79-6.72,3.59-10.37,4.63c-3.65,1.05-7.63,1.29-11.19-0.03c0.68-1.74,1.9-3.21,3.06-4.67      c4.54-5.72,8.7-12.18,9.33-19.46c1.37-0.35,2.74-0.67,4.01-1.22c-0.45-0.79-1.01-1.62-1.65-2.29c-0.85-0.89-2.12-1.93-1.57-3.04      c0.24-0.48,0.79-0.75,0.97-1.25c0.38-1-0.93-1.8-1.46-2.75c-0.59-1.08-0.12-2.53,0.77-3.38c0.91-0.87,2.12-1.28,3.3-1.68      c0-0.02-0.02-0.06-0.04-0.08c-5.08-13.52-8.18-27.68-11.31-41.78c-1.26-5.79-2.55-11.63-2.96-17.54      c-0.95-13.21,2.39-26.3,6.09-39.02c0.29-0.96,0.75-2.07,1.44-2.78c0.49-0.52,1.09-0.83,1.82-0.75c0.87,0.09,1.54,0.77,2.16,1.38      c6.43,6.58,13.66,12.34,20.94,18.04c11.14,8.72,22.37,17.3,30.98,28.43c1.7,2.19,3.29,4.48,4.95,6.71      c1.73,2.35,3.54,4.62,5.63,6.66C174.085,154.471,172.535,157.521,170.344,159.061z"></path>
                <path style="fill:#BCBBB9;"
                      d="M142.546,150.766c-0.876,1.999-0.951,4.355-0.126,6.381c-2.353,0.794-13.915,4.195-16.074,2.011      c1.681,1.701,3.144,3.619,4.37,5.695c-3.105,0.415-6.13,1.246-9.017,2.452c1.918,2.828,3.836,5.656,5.735,8.483      c-2.274,0.633-4.548,1.285-6.822,1.918c2.136,3.737,3.896,7.712,5.221,11.805c-1.72,0.178-3.441,0.554-5.082,1.107      c0.771,1.206,1.542,2.432,2.333,3.639c-2.808,0.771-6.802,0.91-7.554-1.898c-0.573,0.771-1.542,0.791-2.511,0.435      c-5.082-13.526-8.187-27.684-11.311-41.784c-1.266-5.794-2.551-11.627-2.966-17.54c-0.949-13.209,2.393-26.3,6.091-39.015      c0.297-0.969,0.751-2.076,1.444-2.788c0.771,0.811,1.325,1.938,1.78,2.966c3.639,8.127,7.633,16.235,13.447,22.998      c4.588,5.339,10.362,9.175,15.365,14.02c2.917,2.822,5.5,6.122,8.532,8.802c0.822,0.727,5.431,5.559,5.794,5.615      c-2.823-0.442-5.844,0.739-7.618,2.979C143.158,149.574,142.814,150.153,142.546,150.766z"></path>
                <g>
                    <path style="fill:#A9A8A7;"
                          d="M127.413,165.46c1.087-0.256,2.19-0.456,3.301-0.607c-1.007-1.711-2.174-3.309-3.501-4.764       C127.349,161.919,127.413,163.717,127.413,165.46z"></path>
                    <path style="fill:#A9A8A7;"
                          d="M126.765,174.787c-0.072,0.424-0.136,0.839-0.208,1.247c0.296-0.088,0.583-0.168,0.879-0.248       C127.213,175.451,126.989,175.123,126.765,174.787z"></path>
                    <path style="fill:#A9A8A7;"
                          d="M116.558,193.898c1.551,1.167,4.38,0.951,6.522,0.36c-0.791-1.207-1.559-2.43-2.334-3.637       c1.646-0.551,3.365-0.927,5.083-1.111c-0.528-1.622-1.119-3.221-1.774-4.796C122.249,188.902,119.731,192.084,116.558,193.898z       "></path>
                    <path style="fill:#A9A8A7;"
                          d="M102.483,102.9c8.145,7.409,15.754,19.942,20.485,35.136c2.318,7.465,3.709,14.795,4.212,21.596       c3.389,1.103,13.1-1.766,15.242-2.486c-0.831-2.03-0.751-4.38,0.12-6.378c0.272-0.616,0.616-1.191,1.031-1.719       c1.774-2.238,4.796-3.421,7.617-2.981c-0.36-0.056-4.972-4.892-5.795-5.619c-3.029-2.678-5.611-5.979-8.528-8.8       c-5.004-4.844-10.782-8.68-15.37-14.019c-5.811-6.762-9.807-14.867-13.444-22.995c-0.456-1.031-1.007-2.158-1.782-2.965       c-0.687,0.711-1.143,1.814-1.439,2.79C104.018,97.257,103.218,100.071,102.483,102.9z"></path>
                    <path style="fill:#A9A8A7;"
                          d="M126.349,159.161c0.296,0.304,0.592,0.607,0.863,0.927c0-0.152-0.016-0.304-0.032-0.455       C126.829,159.513,126.549,159.361,126.349,159.161z"></path>
                </g>
            </g>
        </g>
        <g>
            <path style="fill:#353130;"
                  d="M192.714,140.021c-2.4,8.94-2.18,18.42-2.94,27.67c-0.21,2.56-0.53,5.21-1.9,7.38     c-1.37,2.17-4.11,3.68-6.54,2.86c-1.79-0.61-3-2.31-3.74-4.06c-1.11-2.61-1.45-5.49-1.56-8.33c-0.32-7.75,0.94-15.55,3.64-22.83     C183.954,141.571,188.314,140.681,192.714,140.021z"></path>
            <path style="fill:#353130;"
                  d="M246.924,165.541c-0.11,2.84-0.45,5.72-1.56,8.33c-0.74,1.75-1.95,3.45-3.74,4.06     c-2.43,0.82-5.16-0.69-6.54-2.86c-1.37-2.17-1.69-4.82-1.9-7.38c-0.78-9.5-0.53-19.25-3.14-28.39c4.26,0.46,8.51,1.12,12.7,2     C245.814,148.971,247.264,157.281,246.924,165.541z"></path>
            <path style="fill:#353130;"
                  d="M217.107,165.917c-0.572,1.923-1.394,3.737-2.535,5.264c-0.739,0.989-1.916,1.74-3.146,1.637     c-1.786-0.151-2.94-1.918-3.713-3.536c-2.179-4.56-3.59-9.472-4.019-14.493c-0.117-1.374-0.832-15.925-0.03-15.988     c3.27-0.26,6.66-0.49,10.13-0.64c0.13,0,0.25,0.01,0.37,0.02c0.12-0.01,0.24-0.02,0.37-0.02c0.15,0.01,0.31,0.01,0.46,0.02     c2.053,0.137,3.169,16.606,3.219,18.52C218.288,159.58,218.009,162.885,217.107,165.917z"></path>
        </g>
        <g>
            <g>
                <path style="fill:#FFFFFF;"
                      d="M252.726,281.817c5.662-3.354,11.919-4.765,18.258-6.239c7.081-1.646,14.162-3.293,21.243-4.939      c13.518-3.143,27.037-6.286,40.555-9.43c0.785-0.183,0.452-1.388-0.332-1.205c-14.162,3.293-28.324,6.586-42.487,9.879      c-12.374,2.877-26.791,4.293-37.869,10.855C251.403,281.148,252.031,282.228,252.726,281.817L252.726,281.817z"></path>
            </g>
            <g>
                <path style="fill:#FFFFFF;"
                      d="M253.451,292.609c29.923,0.928,58.852,11.497,82.304,30.111c0.624,0.495,1.515-0.383,0.884-0.884      c-23.725-18.831-52.909-29.538-83.188-30.477C252.645,291.334,252.647,292.584,253.451,292.609L253.451,292.609z"></path>
            </g>
            <g>
                <path style="fill:#FFFFFF;"
                      d="M170.232,281.817c-5.662-3.354-11.919-4.765-18.258-6.239      c-7.081-1.646-14.162-3.293-21.243-4.939c-13.519-3.143-27.037-6.286-40.555-9.43c-0.785-0.183-0.452-1.388,0.332-1.205      c14.162,3.293,28.324,6.586,42.487,9.879c12.374,2.877,26.791,4.293,37.869,10.855      C171.555,281.148,170.927,282.228,170.232,281.817L170.232,281.817z"></path>
            </g>
            <g>
                <path style="fill:#FFFFFF;"
                      d="M169.507,292.609c-29.923,0.928-58.852,11.497-82.304,30.111      c-0.624,0.495-1.515-0.383-0.884-0.884c23.725-18.831,52.909-29.538,83.188-30.477      C170.313,291.334,170.311,292.584,169.507,292.609L169.507,292.609z"></path>
            </g>
        </g>
        <path style="fill:#ABABAB;"
              d="M174.579,204.113c-1.18-1.008-2.02-2.406-2.358-3.92c5.78,0.781,10.271,5.244,14.299,9.461    c-0.48-0.915-0.96-1.829-1.44-2.743c4.26,3.77,7.91,8.228,10.765,13.148c-7.062-6.098-16.182-9.558-25.455-10.588    s-18.702,0.274-27.656,2.899c-0.228-1.296,0.228-2.693,1.176-3.606c-2.073,0.158-4.146,0.316-6.219,0.474    c2.104-3.502,5.889-5.939,9.948-6.407c-0.585-0.6-1.17-1.2-1.755-1.8c5.42-0.419,10.955,0.776,15.718,3.395    c-1.049-1.536-2.098-3.073-3.147-4.609C163.759,201.498,169.142,202.931,174.579,204.113z"></path>
        <path style="fill:#ABABAB;"
              d="M245.428,204.113c1.179-1.008,2.02-2.406,2.358-3.92c-5.78,0.781-10.271,5.244-14.299,9.461    c0.48-0.915,0.96-1.829,1.44-2.743c-4.26,3.77-7.91,8.228-10.765,13.148c7.062-6.098,16.182-9.558,25.455-10.588    s18.702,0.274,27.656,2.899c0.228-1.296-0.228-2.693-1.176-3.606c2.073,0.158,4.146,0.316,6.219,0.474    c-2.104-3.502-5.889-5.939-9.948-6.407c0.585-0.6,1.17-1.2,1.755-1.8c-5.42-0.419-10.955,0.776-15.718,3.395    c1.049-1.536,2.098-3.073,3.147-4.609C256.247,201.498,250.865,202.931,245.428,204.113z"></path>
        <path style="fill:#ACACAC;"
              d="M293.622,246.271c5.993-7.965,10.026-17.393,11.648-27.228c1.767,6.462,0.863,13.445-1.513,19.709    c-2.376,6.264-6.153,11.898-10.202,17.235c0.074-0.83,0.148-1.66,0.223-2.49c-6.086,4.728-12.931,8.477-20.192,11.06    c7.507-7.48,14.544-15.432,21.055-23.794C294.832,242.646,294.474,244.582,293.622,246.271z"></path>
        <path 
              d="M167.124,145.481c-0.07,1.93-0.14,3.87-0.2,5.8c-2.44,1.52-3.93,4.45-3.72,7.31    c-2.28,0.49-4.34,1.92-5.59,3.89c-0.92,1.43-1.4,3.08-1.81,4.74c-0.18,0.72-0.35,1.44-0.54,2.15c-0.84,3.18-2.12,6.23-3.79,9.05    c1.56-0.08,3.12-0.17,4.68-0.25c-5.7,5.85-12.23,10.89-19.35,14.9c-0.52,0.29-1.04,0.58-1.56,0.86c1.09-1.66,2.16-3.33,3.23-5.01    c2.12-3.33,4.2-6.69,6.23-10.08c2.43-4.03,4.79-8.1,7.09-12.21c-0.88,1-2.03,1.75-3.29,2.16c2.65-5.12,4.95-10.52,5.6-16.24    c0.45-3.87,0.07-7.92-1.41-11.55c-0.65-1.59-3.64-8.46-5.32-8.94c0.77,0.22,1.54,0.44,2.32,0.66c-2-0.57-4.54-3.46-6.13-4.79    c-2.13-1.78-4.21-3.63-6.21-5.55c-3.84-3.66-8.29-7.73-11.1-12.24c1.61-0.47,3.28-0.29,4.94,0.2    c11.14,8.72,22.37,17.3,30.98,28.43C163.874,140.961,165.464,143.251,167.124,145.481z"></path>
        <path 
              d="M276.944,127.931c-1.59,1.33-4.13,4.22-6.13,4.79c0.78-0.22,1.55-0.44,2.33-0.66    c-1.69,0.48-4.68,7.35-5.32,8.94c-1.48,3.63-1.86,7.68-1.42,11.55c0.65,5.72,2.96,11.12,5.6,16.24c-1.26-0.41-2.41-1.16-3.28-2.16    c0.9,1.62,1.82,3.23,2.74,4.83c4.39,7.62,8.98,15.11,13.8,22.47c-7.72-4.14-14.8-9.48-20.91-15.76c1.56,0.08,3.12,0.17,4.68,0.25    c-1.67-2.82-2.95-5.87-3.78-9.05c-0.43-1.62-0.76-3.3-1.35-4.86v-0.01c-0.27-0.7-0.59-1.39-1-2.02c-1.26-1.97-3.32-3.4-5.6-3.89    c0.21-2.86-1.27-5.79-3.71-7.31c-0.03-0.92-0.06-1.85-0.1-2.77c2.56-3.13,4.81-6.53,7.29-9.74c8.76-11.34,20.25-20.02,31.58-28.9    c0.63,0.01,1.27,0.09,1.89,0.27c-2.8,4.51-7.26,8.58-11.09,12.24C281.154,124.301,279.085,126.151,276.944,127.931z"></path>
        <path style="fill:#CCC6BF;"
              d="M320.504,278.601c-0.24,0.3-0.49,0.61-0.73,0.91C319.724,278.991,319.954,278.521,320.504,278.601z    "></path>
        <path style="fill:#FFFFFF;"
              d="M186.038,281.27c-2.141,1.098-3.983,2.772-5.28,4.799c0.385-0.037,0.769-0.073,1.154-0.11    c-2.888,3.412-4.497,7.882-4.443,12.352c0.525-0.018,0.999-0.476,1.034-1.001c0.239,0.889,0.117,1.869-0.332,2.673    c0.589-1.641,1.179-3.282,1.768-4.923c1.055-2.936,2.109-5.872,3.164-8.808C183.763,284.411,184.495,282.47,186.038,281.27z"></path>
        <path style="fill:#FFFFFF;"
              d="M238.745,282.789c0.176,0.328,0.057,0.783-0.258,0.982c-1.445-1.18-2.89-2.361-4.335-3.541    c4.343,5.91,7.495,12.593,10.62,19.228c0.204-4.566-1.774-8.914-3.709-13.056c0.051,0.531,0.103,1.062,0.154,1.594    C240.183,286.371,239.35,284.618,238.745,282.789z"></path>
    </g>
</svg>